<svg width="48" height="48" viewBox="0 0 48 48" fill="none" xmlns="http://www.w3.org/2000/svg">
<path d="M17.466 30.5316C16.6624 29.728 16.0329 28.7994 15.5776 27.7459C15.1222 26.6923 14.8945 25.603 14.8945 24.478C14.8945 23.353 15.1088 22.2414 15.5374 21.1432C15.966 20.045 16.6624 19.0137 17.6267 18.0494C18.2517 17.4244 19.024 16.8887 19.9436 16.4423C20.8633 15.9959 21.9526 15.6432 23.2115 15.3843C24.4704 15.1253 25.9079 14.9691 27.524 14.9155C29.1401 14.8619 30.9481 14.9244 32.9481 15.103C33.091 16.9959 33.1356 18.7369 33.082 20.3262C33.0285 21.9155 32.8811 23.3486 32.6401 24.6253C32.399 25.9021 32.0597 27.0182 31.6222 27.9736C31.1847 28.9289 30.6445 29.728 30.0017 30.3709C29.0552 31.3173 28.0508 32.0093 26.9883 32.4468C25.9258 32.8843 24.841 33.103 23.7338 33.103C22.5731 33.103 21.4392 32.8753 20.332 32.42C19.2249 31.9646 18.2695 31.3352 17.466 30.5316ZM20.466 30.103C20.9838 30.4066 21.5151 30.6253 22.0597 30.7593C22.6044 30.8932 23.1624 30.9602 23.7338 30.9602C24.5552 30.9602 25.3677 30.795 26.1713 30.4646C26.9749 30.1343 27.7427 29.603 28.4749 28.8709C28.7963 28.5494 29.1222 28.0986 29.4526 27.5182C29.7829 26.9378 30.0686 26.1789 30.3097 25.2414C30.5508 24.3039 30.7338 23.17 30.8588 21.8396C30.9838 20.5093 31.0017 18.9244 30.9124 17.0852C30.0374 17.0494 29.0508 17.0361 27.9526 17.045C26.8544 17.0539 25.7606 17.1387 24.6713 17.2994C23.582 17.4602 22.5463 17.7191 21.5642 18.0762C20.582 18.4334 19.7785 18.9244 19.1535 19.5494C18.3499 20.353 17.7963 21.1477 17.4927 21.9334C17.1892 22.7191 17.0374 23.478 17.0374 24.2102C17.0374 25.2637 17.2383 26.1878 17.6401 26.9825C18.0419 27.7771 18.3945 28.3352 18.6981 28.6566C19.4481 27.228 20.4392 25.8575 21.6713 24.545C22.9035 23.2325 24.341 22.1566 25.9838 21.3173C24.6981 22.4423 23.5776 23.7146 22.6222 25.1343C21.6669 26.5539 20.9481 28.2102 20.466 30.103Z" fill="#F20530"/>
</svg>
