<svg width="48" height="48" viewBox="0 0 48 48" fill="none" xmlns="http://www.w3.org/2000/svg">
<path d="M28.284 19.7142C27.8376 19.7142 27.4581 19.558 27.1456 19.2455C26.8331 18.933 26.6769 18.5535 26.6769 18.1071C26.6769 17.8035 26.8287 17.4017 27.1323 16.9017C27.4358 16.4017 27.8198 15.9106 28.284 15.4285C28.7483 15.9106 29.1323 16.4017 29.4358 16.9017C29.7394 17.4017 29.8912 17.8035 29.8912 18.1071C29.8912 18.5535 29.7349 18.933 29.4224 19.2455C29.1099 19.558 28.7305 19.7142 28.284 19.7142ZM30.9626 27.2142C30.2126 27.2142 29.5787 26.9553 29.0608 26.4374C28.543 25.9196 28.284 25.2856 28.284 24.5356C28.284 23.9106 28.5608 23.1383 29.1144 22.2187C29.668 21.299 30.284 20.4642 30.9626 19.7142C31.6412 20.4642 32.2573 21.299 32.8108 22.2187C33.3644 23.1383 33.6412 23.9106 33.6412 24.5356C33.6412 25.2856 33.3823 25.9196 32.8644 26.4374C32.3465 26.9553 31.7126 27.2142 30.9626 27.2142ZM19.7126 30.4285H21.8555V28.2856H23.9983V26.1428H21.8555V23.9999H19.7126V26.1428H17.5698V28.2856H19.7126V30.4285ZM16.4983 34.7142C15.909 34.7142 15.4046 34.5044 14.9849 34.0848C14.5653 33.6651 14.3555 33.1606 14.3555 32.5714V23.9999C14.3555 22.3928 14.8644 20.9999 15.8823 19.8214C16.9001 18.6428 18.1769 17.9285 19.7126 17.6785V15.4285H17.5698V13.2856H23.9983C24.6055 13.2856 25.1769 13.3794 25.7126 13.5669C26.2483 13.7544 26.7483 14.0178 27.2126 14.3571L25.659 15.9106C25.409 15.7678 25.1456 15.6517 24.8689 15.5624C24.5921 15.4731 24.3019 15.4285 23.9983 15.4285H21.8555V17.6785C23.3912 17.9285 24.668 18.6428 25.6858 19.8214C26.7037 20.9999 27.2126 22.3928 27.2126 23.9999V32.5714C27.2126 33.1606 27.0028 33.6651 26.5831 34.0848C26.1635 34.5044 25.659 34.7142 25.0698 34.7142H16.4983ZM16.4983 32.5714H25.0698V23.9999C25.0698 22.8214 24.6501 21.8124 23.8108 20.9731C22.9715 20.1339 21.9626 19.7142 20.784 19.7142C19.6055 19.7142 18.5965 20.1339 17.7573 20.9731C16.918 21.8124 16.4983 22.8214 16.4983 23.9999V32.5714ZM16.4983 32.5714C16.4983 32.5714 16.918 32.5714 17.7573 32.5714C18.5965 32.5714 19.6055 32.5714 20.784 32.5714C21.9626 32.5714 22.9715 32.5714 23.8108 32.5714C24.6501 32.5714 25.0698 32.5714 25.0698 32.5714H16.4983Z" fill="#F20530"/>
</svg>
