<svg width="60" height="60" viewBox="0 0 60 60" fill="none" xmlns="http://www.w3.org/2000/svg">
<path d="M22.5 43.5L43.5 30L22.5 16.5V43.5ZM30 60C25.85 60 21.95 59.2125 18.3 57.6375C14.65 56.0625 11.475 53.925 8.775 51.225C6.075 48.525 3.9375 45.35 2.3625 41.7C0.7875 38.05 0 34.15 0 30C0 25.85 0.7875 21.95 2.3625 18.3C3.9375 14.65 6.075 11.475 8.775 8.775C11.475 6.075 14.65 3.9375 18.3 2.3625C21.95 0.7875 25.85 0 30 0C34.15 0 38.05 0.7875 41.7 2.3625C45.35 3.9375 48.525 6.075 51.225 8.775C53.925 11.475 56.0625 14.65 57.6375 18.3C59.2125 21.95 60 25.85 60 30C60 34.15 59.2125 38.05 57.6375 41.7C56.0625 45.35 53.925 48.525 51.225 51.225C48.525 53.925 45.35 56.0625 41.7 57.6375C38.05 59.2125 34.15 60 30 60ZM30 54C36.7 54 42.375 51.675 47.025 47.025C51.675 42.375 54 36.7 54 30C54 23.3 51.675 17.625 47.025 12.975C42.375 8.325 36.7 6 30 6C23.3 6 17.625 8.325 12.975 12.975C8.325 17.625 6 23.3 6 30C6 36.7 8.325 42.375 12.975 47.025C17.625 51.675 23.3 54 30 54Z" fill="white" fill-opacity="0.59"/>
</svg>
