<svg width="84" height="84" viewBox="0 0 84 84" fill="none" xmlns="http://www.w3.org/2000/svg">
<g filter="url(#filter0_d_14628_283)">
<rect x="10" y="10" width="60" height="60" rx="30" fill="#021373"/>
<path d="M25 38.8375C25.0818 38.6712 25.1898 37.7138 25.2507 37.4179C25.3817 36.7691 25.5609 36.1308 25.7868 35.5083C27.128 31.9301 29.8466 29.0309 33.3413 27.4518C36.5114 25.9995 40.0734 25.624 43.4789 26.3831C44.4227 26.5941 45.125 26.8397 46.0245 27.167C46.6113 26.1373 47.737 25.7282 48.8639 26.1945C49.8217 26.5907 50.0576 27.4893 50.3941 28.3804L50.9873 29.9498C51.3426 30.1682 51.9413 30.3189 52.344 30.4887C53.0217 30.7743 53.7641 30.9087 54.3227 31.4227C54.7299 31.7975 54.8148 32.1311 55 32.6279V33.3728C54.7328 34.0939 54.5998 34.4015 53.9566 34.8759C54.33 35.7494 54.6048 36.6615 54.7759 37.5952C54.8362 37.9382 54.9197 38.7552 55 39.0102V41.0602L54.9915 41.0858C54.944 41.2313 54.9112 41.4625 54.8928 41.62C54.3584 46.1878 51.3365 50.102 47.3029 52.2136C43.5972 54.141 39.2741 54.5262 35.2831 53.2843C34.5124 53.0421 33.7601 52.7453 33.032 52.3963C32.5899 52.5404 32.1257 52.7659 31.7106 52.9166C30.679 53.291 28.2972 54.0105 27.2516 53.9818C26.903 53.9734 26.5609 53.8866 26.2508 53.7281C25.7472 53.4721 25.39 53.0676 25.1794 52.5497C25.1469 52.47 25.0304 52.157 25 52.1135V51.2188C25.0947 51.0782 25.1468 50.8094 25.2306 50.6532C25.4079 50.3227 25.5846 49.989 25.741 49.648C26.1791 48.6714 26.5173 47.6535 26.7505 46.6095C26.6598 46.3698 26.373 45.854 26.2445 45.5837C25.9491 44.9593 25.7045 44.3123 25.5129 43.6491C25.3841 43.2191 25.2832 42.7814 25.2107 42.3386C25.1683 42.0772 25.0812 41.3334 25 41.126V38.8375ZM48.0699 38.1275C48.6493 37.6684 48.9713 35.1359 49.8592 34.5176C50.4562 34.1019 52.9104 33.4896 53.1181 33.0357C53.101 32.6597 52.3909 32.5271 52.0902 32.3897C51.3413 32.0447 49.9931 31.8066 49.5148 31.1263C49.0672 30.4897 48.8414 29.4619 48.5226 28.7357C48.3423 28.3252 48.3781 27.9326 47.8671 27.8673C47.2679 28.3487 46.952 30.9177 46.0836 31.4591C45.186 32.0188 43.9996 32.244 43.0468 32.7174C42.9462 32.7674 42.8404 32.8723 42.8152 32.9864C42.8846 33.5996 45.9383 34.0238 46.4402 34.9075C47.0294 35.9451 47.2118 37.004 47.7655 38.0389C47.8019 38.1016 47.9917 38.1196 48.0699 38.1275ZM40.2785 41.8329C41.2978 41.6781 41.9983 40.7307 41.8434 39.7164C41.6884 38.7021 40.7367 38.0045 39.7172 38.158C38.6966 38.3116 37.9947 39.2596 38.1498 40.2749C38.3049 41.2901 39.2581 41.9878 40.2785 41.8329ZM33.2472 41.8329C34.2666 41.678 34.9671 40.7307 34.8121 39.7164C34.6572 38.7021 33.7055 38.0045 32.6859 38.158C31.6654 38.3116 30.9635 39.2596 31.1186 40.2749C31.2736 41.2901 32.2269 41.9879 33.2472 41.8329Z" fill="white"/>
</g>
<defs>
<filter id="filter0_d_14628_283" x="0" y="0" width="84" height="84" filterUnits="userSpaceOnUse" color-interpolation-filters="sRGB">
<feFlood flood-opacity="0" result="BackgroundImageFix"/>
<feColorMatrix in="SourceAlpha" type="matrix" values="0 0 0 0 0 0 0 0 0 0 0 0 0 0 0 0 0 0 127 0" result="hardAlpha"/>
<feOffset dx="2" dy="2"/>
<feGaussianBlur stdDeviation="6"/>
<feComposite in2="hardAlpha" operator="out"/>
<feColorMatrix type="matrix" values="0 0 0 0 0 0 0 0 0 0 0 0 0 0 0 0 0 0 0.2 0"/>
<feBlend mode="normal" in2="BackgroundImageFix" result="effect1_dropShadow_14628_283"/>
<feBlend mode="normal" in="SourceGraphic" in2="effect1_dropShadow_14628_283" result="shape"/>
</filter>
</defs>
</svg>
