<svg width="84" height="84" viewBox="0 0 84 84" fill="none" xmlns="http://www.w3.org/2000/svg">
<g filter="url(#filter0_d_14647_4467)">
<rect x="10" y="10" width="60" height="60" rx="30" fill="url(#paint0_linear_14647_4467)"/>
<path d="M40 31V25H34M44.5 38.5V41.5M25 40H28M52 40H55M35.5 38.5V41.5M52 46C52 46.7956 51.6839 47.5587 51.1213 48.1213C50.5587 48.6839 49.7956 49 49 49H35.242C34.4464 49.0002 33.6835 49.3164 33.121 49.879L29.818 53.182C29.6691 53.3309 29.4793 53.4323 29.2727 53.4734C29.0662 53.5145 28.852 53.4934 28.6575 53.4128C28.4629 53.3322 28.2966 53.1957 28.1795 53.0206C28.0625 52.8455 28 52.6396 28 52.429V34C28 33.2044 28.3161 32.4413 28.8787 31.8787C29.4413 31.3161 30.2044 31 31 31H49C49.7956 31 50.5587 31.3161 51.1213 31.8787C51.6839 32.4413 52 33.2044 52 34V46Z" stroke="white" stroke-width="3" stroke-linecap="round" stroke-linejoin="round"/>
</g>
<defs>
<filter id="filter0_d_14647_4467" x="0" y="0" width="84" height="84" filterUnits="userSpaceOnUse" color-interpolation-filters="sRGB">
<feFlood flood-opacity="0" result="BackgroundImageFix"/>
<feColorMatrix in="SourceAlpha" type="matrix" values="0 0 0 0 0 0 0 0 0 0 0 0 0 0 0 0 0 0 127 0" result="hardAlpha"/>
<feOffset dx="2" dy="2"/>
<feGaussianBlur stdDeviation="6"/>
<feComposite in2="hardAlpha" operator="out"/>
<feColorMatrix type="matrix" values="0 0 0 0 0 0 0 0 0 0 0 0 0 0 0 0 0 0 0.2 0"/>
<feBlend mode="normal" in2="BackgroundImageFix" result="effect1_dropShadow_14647_4467"/>
<feBlend mode="normal" in="SourceGraphic" in2="effect1_dropShadow_14647_4467" result="shape"/>
</filter>
<linearGradient id="paint0_linear_14647_4467" x1="40" y1="10" x2="40" y2="70" gradientUnits="userSpaceOnUse">
<stop stop-color="#FF284F"/>
<stop offset="1" stop-color="#F20530"/>
</linearGradient>
</defs>
</svg>
