<svg width="180" height="54" viewBox="0 0 180 54" fill="none" xmlns="http://www.w3.org/2000/svg">
<path d="M7.01798 2.694C8.43502 0.542345 11.8745 -0.184621 14.3048 0.0385896C17.3646 0.323416 18.3959 1.86433 20.0734 4.09201C21.8914 6.50615 23.7128 4.00006 26.171 7.02045C26.4813 7.36814 26.5218 7.44394 26.6122 7.90084C26.3863 8.03173 25.697 8.06948 25.7094 8.05407C24.9897 8.94313 23.6855 8.69323 22.7672 8.74656C21.7218 8.80726 19.3261 8.58455 18.8094 9.62542C18.7334 9.77867 19.174 11.2331 19.1483 11.7583C20.0884 11.1191 26.464 9.71581 27.9309 9.44711C29.7287 9.11784 33.0081 9.73493 34.8662 9.81246C35.3845 9.50519 36.5235 8.94184 36.9696 8.68083C38.822 7.59691 37.2923 7.41278 36.7799 6.55947C36.1179 5.45728 37.3385 5.27004 37.9868 4.90544C38.1601 4.80795 38.2013 4.68755 38.1339 4.46368C37.339 3.02095 36.9465 2.39713 38.8646 1.44687C42.1709 -0.420066 47.1506 3.00437 47.6734 2.93277L47.7082 2.96534C48.1306 3.35511 48.7046 3.66657 49.2213 4.11601C50.4817 5.21238 52.3246 7.06605 52.6801 8.75008C52.7567 9.11271 51.56 10.6937 51.5678 10.7397C51.6801 11.3907 53.0461 11.6994 52.0558 12.8283C51.9104 12.994 51.2477 12.8961 50.8941 12.939C51.077 13.5587 52.7836 14.3412 51.9031 15.4188C51.3686 15.5592 51.0596 15.0366 50.4297 15.1317C49.449 17.0522 53.2794 18.0014 53.5488 19.4196C53.962 21.5952 53.2572 24.1915 53.2234 26.4481C53.1474 28.0055 52.1333 30.3177 52.2353 31.9222C52.3665 33.9873 56.4964 33.3574 57.157 34.7122L57.1639 34.9108C55.9929 36.1344 55.8109 36.2164 55.4557 38.0032C55.5162 38.2888 55.6864 38.5395 55.9297 38.7011C55.9972 38.7455 56.0643 38.7732 56.1398 38.7996C55.9685 38.3042 55.822 37.7294 56.0771 37.2324L56.4088 36.8596L56.6873 36.8472C56.6508 37.4446 56.6401 37.693 56.7139 38.2827L56.9097 38.412C57.7519 37.7783 57.7549 36.8219 58.5762 36.5315C59.9699 36.0386 61.3525 35.1015 62.7063 34.633C62.5861 34.4762 62.6204 34.5588 62.4259 34.5117C60.8232 34.1231 58.8345 35.9473 57.6068 35.1547L57.5543 34.9552L57.7064 34.7944C57.9204 34.7963 58.5545 34.8179 58.7221 34.7901C59.0713 34.7322 60.1914 34.0846 60.4943 34.0794C62.2425 34.0488 65.0585 34.3936 66.5063 33.1406C67.1674 32.5686 67.5597 31.3528 68.833 31.3959C69.1994 31.4084 69.6763 31.4427 69.9211 31.7698C71.0012 33.2132 70.9877 33.889 71.0108 35.6184C71.0175 36.1141 70.8729 36.7485 70.5131 37.0695C70.0832 37.4529 69.3865 37.2168 68.8882 37.2197C68.4321 37.2222 67.1887 36.9515 66.872 37.2216C66.5348 37.5093 66.4426 38.3577 66.0485 38.5806L65.8453 38.5375C65.5902 37.7533 66.3035 35.9794 64.8248 36.1061C64.2563 36.4224 64.6601 37.2112 63.5012 36.7488C63.3745 36.6984 63.2877 36.7655 63.1539 36.8167C62.6837 37.5422 63.3637 39.0433 61.5398 39.8633L61.3863 39.8102C61.345 39.2769 61.9562 38.0733 62.3435 37.7073L62.3813 37.6708C62.4073 37.646 62.4271 37.6286 62.4545 37.606L62.4583 37.4693C62.1538 37.4908 62.0316 37.4868 61.7531 37.6266C61.356 38.2839 60.2365 40.2512 59.828 40.1679C58.4168 39.8797 56.5358 38.6546 55.2651 40.5012C54.863 41.0855 54.6152 41.7781 53.6881 41.83C53.0413 41.9046 53.6236 42.2491 53.1752 42.4202L53.0823 42.4074C52.6484 42.5746 52.2178 42.75 51.7904 42.9334C51.7397 43.1787 51.7651 43.1261 51.8641 43.3958C52.0752 43.5583 52.0235 43.4744 52.0802 43.7257C52.8895 43.9394 53.8691 46.0074 53.6323 46.6821C53.3817 46.769 53.4722 46.7559 53.1797 46.6215C53.1123 46.5091 53.0493 46.4318 53.0419 46.3033C52.269 45.8693 52.4027 46.3185 51.821 46.101C50.8573 45.741 46.6494 44.7633 45.8592 45.5507L45.863 45.7489C46.9573 46.3796 49.4443 46.3347 50.5317 47.6286C50.7696 47.9116 51.0964 47.9711 51.2367 48.413L51.4879 48.432L51.6702 48.8076C52.0944 48.9938 52.3343 50.4402 52.3378 50.8989L52.2538 51.0455C51.8641 51.011 51.7419 50.8535 51.6059 50.4822C51.3254 50.4249 50.6226 50.5473 50.0627 50.4587L49.9959 50.3359C49.2438 49.6232 45.2047 48.6848 44.1955 49.3587C44.1606 49.382 44.0125 49.6857 43.9785 49.7521C44.0168 50.1649 44.0472 50.4981 43.9092 50.9002C43.7757 51.9447 42.0144 53.3887 41.199 53.9888L39.5814 53.9999L38.7464 53.3978C38.6821 52.8181 38.7776 49.7608 38.6514 49.5257C38.4107 49.7497 38.5551 49.8543 38.224 50.244C38.2629 50.5581 38.2938 50.6718 38.1519 50.9607L37.9672 50.9649C37.3614 50.5324 37.3004 49.4462 37.027 48.8772L37.0058 48.834C36.5077 48.3854 33.6736 46.3882 33.0577 46.2249L32.8985 46.4065C32.7676 46.45 32.7253 46.4289 32.5849 46.4021C32.2344 46.0546 31.4002 44.7228 31.0804 44.2446C30.3406 43.5697 28.4821 43.5222 27.983 42.3065C27.7056 41.6306 28.0314 41.0684 28.2743 40.4443L27.8406 40.0354C27.7307 39.6003 27.8955 39.4707 28.0138 38.9557L27.7614 38.8031L27.5816 39.1902C26.7989 39.4163 25.8122 36.603 25.3575 35.9688C24.4197 34.6613 23.4012 33.3926 22.3012 32.2201C22.2488 32.1642 21.3273 31.9076 21.1356 31.8286C21.1007 31.5108 20.9344 29.6235 20.9726 29.414C21.2671 27.7996 21.9598 26.0437 22.3792 24.4419C22.5185 23.9101 22.6214 23.2485 22.3349 22.7679C21.904 22.6924 21.0706 22.791 20.5844 22.8188C19.1112 22.9032 17.1575 23.0318 15.7128 22.7903C14.984 22.6685 13.5902 21.068 13.253 20.3737C13.12 20.1 13.1426 19.9757 12.9786 19.7273L12.9512 19.6866C12.3347 18.3725 12.151 19.2792 11.509 18.9403C10.1547 16.6298 15.2401 12.7273 15.2785 11.6539C15.2903 11.3237 14.9719 10.9886 14.7592 10.7576C12.702 8.52267 8.77088 8.64967 6.00267 8.97622C5.02634 9.0914 3.96933 9.36752 2.9853 9.3214C2.14202 9.28187 1.57528 9.0431 1.00391 8.41692L1.0271 6.86977C2.846 4.43149 5.00984 5.92175 7.01607 4.12408L7.01798 2.694ZM44.8594 40.5985C44.609 39.2663 43.9176 39.4284 43.1755 38.5549C43.0011 38.3497 42.3705 36.8498 42.2218 36.5011C41.9263 36.6318 41.235 37.7157 41.1143 38.058C40.8076 38.9268 41.3092 39.7435 41.6894 40.5004C41.9566 41.2726 42.0586 42.0052 42.5334 42.6601C43.1644 42.8176 45.2024 42.1799 45.641 41.6777C45.7527 41.0067 45.023 41.2486 44.7896 40.7335L44.8594 40.5985ZM30.6528 39.5602L30.5592 39.2032C29.9832 39.0684 29.4859 40.4738 29.1076 40.9135C29.4498 41.1424 29.8654 41.4363 30.2398 41.1509L30.2296 40.9574L29.857 40.691C30.1932 40.3941 30.1109 40.788 30.5215 40.1873L30.6798 40.2352L30.6528 39.5602ZM11.5888 3.67976C11.1774 3.76625 10.6455 3.83221 10.3411 4.10481L10.2971 4.29971C10.713 4.78952 11.5456 4.8547 12.1756 4.96616C12.5492 4.87534 13.0455 4.81086 13.2654 4.51757C13.317 4.20931 13.3352 4.32581 13.1627 4.04437C12.8128 3.78772 12.0121 3.59153 11.5888 3.67976ZM62.224 36.6619L62.2341 36.3195C63.1296 35.7944 63.8524 35.8729 64.6516 35.5092C65.1744 35.2713 65.5448 34.7538 66.1188 34.5972L66.2552 34.6572C66.4288 35.1581 66.5254 35.8945 66.9702 36.2386L67.0773 36.1395C67.0358 35.7945 66.7839 35.8181 66.766 35.4811C66.967 35.2361 67.1964 35.3394 67.3335 35.0197C67.2813 34.7483 67.1569 33.6435 66.9597 33.5019C66.9499 33.4949 66.9392 33.489 66.9289 33.4825C66.5865 34.1842 64.9322 34.6742 64.202 34.9251C63.1785 35.2767 61.223 35.613 60.6432 36.567C60.6045 36.7994 60.5227 37.0777 60.618 37.3014C60.798 37.3665 60.8578 37.3751 61.0318 37.2864C61.1725 37.2146 61.2622 37.0605 61.4068 36.9908C61.7054 36.8469 61.9285 36.8829 62.224 36.6619ZM49.7995 12.0834C50.1683 12.4422 51.3686 12.4399 51.7669 12.1639C51.5038 12.0542 49.9632 12.0045 49.7995 12.0834ZM59.7398 36.5843C59.4269 36.7511 59.1881 36.8798 58.9865 37.1833L58.9603 37.2222C58.7767 37.4975 58.735 37.8656 58.7938 38.1888L58.8438 38.229C59.3396 37.8063 59.7818 37.5001 59.872 36.809C59.8336 36.7063 59.8263 36.6546 59.7398 36.5843ZM47.7777 26.8094L47.4926 27.0384L47.5144 27.1718C47.8848 27.3684 48.0549 27.1602 48.4701 27.2252C48.5569 26.898 48.9281 25.9086 48.9337 25.7523L48.7676 25.6169C48.1622 25.7477 48.2997 26.3269 47.7972 26.7917L47.7777 26.8094ZM43.9432 9.56914C43.5376 9.83419 43.2299 10.0517 42.8809 10.39C43.3244 10.4533 43.5228 10.045 44.1843 10.2021L44.2169 10.3546L44.1427 10.462C44.0667 10.81 43.9767 10.9054 44.1213 11.1659C44.5225 11.0125 44.7388 10.4986 44.5874 10.0981C44.4688 9.94257 44.135 9.60303 43.9432 9.56914ZM20.3998 12.0767C20.6526 13.6356 22.571 12.4803 23.4146 13.0196C23.4992 12.7399 23.7123 12.2752 23.611 12.0397C22.9422 11.9292 21.1265 12.0345 20.3998 12.0767ZM68.5798 32.6309C68.2445 33.5094 68.5101 34.8758 69.1712 35.5651C69.4264 35.64 69.5021 35.6552 69.7666 35.6738C69.7688 34.8497 69.8227 33.4484 69.2445 32.8311C68.9629 32.6812 68.8969 32.6434 68.5798 32.6309Z" fill="#39383B"/>
<path d="M29.1055 40.9137C29.4838 40.474 29.9811 39.0686 30.5571 39.2034L30.6507 39.5604L30.6777 40.2354L30.5194 40.1875C30.1088 40.7882 30.1911 40.3944 29.8549 40.6913L30.2275 40.9576L30.2377 41.1512C29.8633 41.4365 29.4477 41.1426 29.1055 40.9137Z" fill="#B8B9BA" fill-opacity="0.886275"/>
<path d="M7.01798 2.694C8.43502 0.542345 11.8745 -0.184621 14.3048 0.0385896C17.3646 0.323416 18.3959 1.86433 20.0734 4.09201C21.8914 6.50615 23.7128 4.00006 26.171 7.02045C25.9333 6.8876 25.6932 6.7592 25.4506 6.63531C23.6199 5.70264 20.8683 5.84291 18.9646 6.463C18.7316 6.64456 18.5596 6.66676 18.277 6.73412L17.7423 6.96353C16.6986 7.66435 16.3845 7.5606 15.4327 6.79354L15.1635 6.68913C10.5934 4.60967 6.9662 5.29646 2.17453 6.48942C2.16437 7.13994 2.04865 8.05876 2.43888 8.55306C2.76866 8.71015 2.78443 8.71974 3.17237 8.60483C6.24306 7.69526 10.0346 7.41799 13.1667 8.24796C13.9035 8.4432 17.9206 11.0759 17.4892 12.3207C17.3934 12.597 16.2116 13.2923 15.9413 13.4908C14.5114 14.4339 13.1318 16.4975 12.8204 18.1851C12.7331 18.6586 12.9189 19.2014 12.9512 19.6866C12.3347 18.3725 12.151 19.2792 11.509 18.9403C10.1547 16.6298 15.2401 12.7273 15.2785 11.6539C15.2903 11.3237 14.9719 10.9886 14.7592 10.7576C12.702 8.52266 8.77088 8.64967 6.00267 8.97622C5.02634 9.0914 3.96933 9.36752 2.9853 9.3214C2.14202 9.28187 1.57528 9.0431 1.00391 8.41692L1.0271 6.86977C2.846 4.43149 5.00984 5.92175 7.01608 4.12408L7.01798 2.694ZM12.1756 4.96616C12.5492 4.87534 13.0455 4.81086 13.2654 4.51757C13.317 4.20931 13.3352 4.3258 13.1627 4.04437C12.8128 3.78772 12.0121 3.59153 11.5888 3.67976C11.1774 3.76625 10.6455 3.83221 10.3411 4.10481L10.2971 4.29971C10.713 4.78951 11.5456 4.8547 12.1756 4.96616Z" fill="#B8B9BA"/>
<path d="M8.02162 2.82975C8.97418 2.12031 9.69185 1.54259 10.8457 1.17005C13.2787 0.38453 16.7192 0.316831 18.4168 2.55096C18.6408 2.84817 18.8861 3.41843 19.0715 3.77539C19.5372 4.08301 21.0878 5.05872 20.6988 5.74123C20.2511 5.84276 20.1441 5.81746 19.7304 5.61213C18.0186 4.92886 16.5531 4.80902 14.7284 5.08122C14.2396 5.0465 14.3855 5.1193 14.0113 4.82873C13.7736 3.94862 14.6447 3.82678 14.7357 3.03604C14.3609 2.2546 11.9589 2.5215 11.2392 2.78566C10.3855 3.09898 9.04537 4.42455 8.1879 4.33C7.66763 3.91672 7.87245 3.39727 8.02162 2.82975Z" fill="#39383B"/>
<path d="M14.7266 5.08109C16.5513 4.80888 18.0168 4.92873 19.7286 5.61199L19.2949 5.75454L19.6409 5.92313C19.2378 6.06186 19.121 6.05993 18.9621 6.46333C18.7291 6.64489 18.5571 6.66709 18.2745 6.73445L17.7398 6.96386C18.4057 4.98573 15.7792 5.41018 14.756 5.09054L14.7266 5.08109Z" fill="#9E9FA2"/>
<path d="M18.2765 6.73421C18.2455 6.24327 18.2515 6.12648 18.5192 5.78633C18.8318 5.66345 18.9718 5.70464 19.297 5.7543L19.6429 5.9229C19.2398 6.06162 19.123 6.05969 18.9641 6.46309C18.7311 6.64465 18.5591 6.66685 18.2765 6.73421Z" fill="#8A8B8D"/>
<path d="M15.1616 6.68894C15.0701 6.2035 15.0799 6.35735 15.2705 5.87837C15.8324 5.28303 17.1278 5.74986 17.3138 6.43444C17.0578 7.02207 15.9956 6.82958 15.4308 6.79335L15.1616 6.68894Z" fill="#BEC2C7"/>
<path d="M37.3944 45.9627C38.0358 45.3606 37.3461 44.3571 37.3981 43.5402C37.4208 43.184 37.1769 43.0208 36.9844 42.6974L37.045 42.5444C37.5579 42.4799 38.4924 42.8923 38.9506 43.1165C39.7881 43.1971 41.1245 44.257 41.2259 45.1437C41.5564 45.9959 42.3738 48.752 42.8502 49.2511C43.1543 49.5666 43.0083 49.4803 43.4593 49.5757C43.6395 49.7276 43.6918 49.9608 43.7604 50.1772C43.8838 49.9965 43.9053 49.958 43.9784 49.7519C44.0166 50.1647 44.0471 50.4979 43.909 50.9C43.7755 51.9446 42.0142 53.3885 41.1988 53.9887L39.5812 53.9997L38.7462 53.3976C38.6819 52.8179 38.7774 49.7607 38.6512 49.5256C38.4105 49.7495 38.5549 49.8541 38.2239 50.2438C38.1 50.0121 37.4232 46.3425 37.3944 45.9627Z" fill="#8A8B8D"/>
<path d="M37.3944 45.9627C38.0358 45.3606 37.3461 44.3571 37.3981 43.5402C37.4208 43.184 37.1769 43.0208 36.9844 42.6974L37.045 42.5444C37.5579 42.4799 38.4924 42.8923 38.9506 43.1165C39.361 44.5242 39.8919 45.64 39.8578 47.1585C39.9072 48.2221 39.5085 49.2125 39.9832 50.2239C40.0501 50.3663 39.3586 51.2831 39.508 51.6969C39.7812 52.4523 40.149 53.2281 41.0262 53.1868C42.1646 52.4746 42.8167 51.8046 43.2513 50.5993C43.414 50.6722 43.7707 50.8196 43.909 50.9C43.7755 51.9446 42.0142 53.3885 41.1988 53.9887L39.5812 53.9997L38.7462 53.3976C38.6819 52.8179 38.7774 49.7607 38.6512 49.5256C38.4105 49.7495 38.5549 49.8541 38.2239 50.2438C38.1 50.0121 37.4232 46.3425 37.3944 45.9627Z" fill="#BEC2C7"/>
<path d="M41.2239 45.144C41.5544 45.9963 42.3718 48.7523 42.8482 49.2515C42.7533 49.2163 42.6392 49.1884 42.5401 49.161C41.6969 49.9122 42.2993 52.2235 40.4879 51.6639C40.3697 49.949 41.415 46.9601 41.2239 45.144Z" fill="#707072"/>
<path d="M31.4255 39.893C31.3656 39.6221 31.213 39.1553 31.3288 38.9339C31.9441 38.9015 34.4766 41.6873 34.7517 42.3576C34.8039 42.4847 35.8645 44.307 35.8 44.2548L36.111 44.2332C36.4455 44.7272 36.7379 45.4022 37.0245 45.944L37.2616 45.9238L37.2901 46.4183L37.3929 45.963C37.4216 46.3428 38.0985 50.0124 38.2223 50.2441C38.2612 50.5582 38.2921 50.6719 38.1502 50.9608L37.9655 50.965C37.3597 50.5325 37.2987 49.4463 37.0253 48.8773L37.0041 48.8342C36.506 48.3855 33.6719 46.3883 33.056 46.225L32.8968 46.4066C32.7659 46.4501 32.7236 46.429 32.5832 46.4022C32.2327 46.0547 31.3984 44.7229 31.0787 44.2448C30.3389 43.5698 28.4804 43.5223 27.9813 42.3066C27.7039 41.6307 28.0297 41.0685 28.2726 40.4444C28.5841 40.6872 28.8115 41.0365 29.0441 41.0419L29.1059 40.9136C29.4481 41.1425 29.8637 41.4364 30.2381 41.1511L30.2279 40.9575L29.8553 40.6912C30.1915 40.3942 30.1092 40.7881 30.5198 40.1874L30.6781 40.2353L30.6511 39.5603C30.7627 39.7001 30.8752 39.839 30.9886 39.9774L31.4255 39.893Z" fill="#BEC2C7"/>
<path d="M29.1059 40.9137C29.4481 41.1426 29.8637 41.4366 30.2381 41.1512L30.2279 40.9576L29.8553 40.6913C30.1915 40.3944 30.1092 40.7882 30.5198 40.1875L30.6781 40.2354C30.7356 40.7052 30.8376 42.0811 30.9104 42.426C30.9349 42.777 31.1047 43.9806 31.0787 44.2449C30.3389 43.57 28.4804 43.5225 27.9813 42.3067C27.7039 41.6309 28.0297 41.0687 28.2726 40.4445C28.5841 40.6874 28.8115 41.0366 29.0441 41.0421L29.1059 40.9137Z" fill="#BEC2C7"/>
<path d="M30.6504 39.5601C30.762 39.6999 30.8745 39.8388 30.9879 39.9772L31.4248 39.8928C31.6946 40.5735 31.9111 41.6285 32.0911 42.3685C32.4275 43.3387 32.5726 44.3106 32.7633 45.3145C32.8037 45.527 32.8527 46.3122 32.8961 46.4064C32.7652 46.4499 32.7229 46.4288 32.5825 46.402C32.232 46.0545 31.3977 44.7227 31.0779 44.2446C31.104 43.9803 30.9342 42.7767 30.9097 42.4257C30.8369 42.0807 30.7349 40.7049 30.6774 40.2351L30.6504 39.5601Z" fill="#4C4C4F"/>
<path d="M30.6504 39.5601C30.762 39.6999 30.8745 39.8388 30.9879 39.9772L31.4248 39.8928C31.6946 40.5735 31.9111 41.6285 32.0911 42.3685L31.7706 42.5063C31.6897 43.0364 32.0767 42.9745 32.1247 43.7118C31.9917 43.654 31.6959 43.7266 31.3077 43.6231C31.297 43.2275 31.2799 41.7773 31.0346 41.5235C30.8805 41.7999 30.9115 42.1059 30.9097 42.4257C30.8369 42.0807 30.7349 40.7049 30.6774 40.2351L30.6504 39.5601Z" fill="#5B5B5E"/>
<path d="M31.3086 43.6235C31.6968 43.7271 31.9926 43.6544 32.1256 43.7122C32.2455 44.1128 32.5852 45.3042 32.5389 45.665L32.377 45.6211C31.975 45.2095 31.4048 44.1901 31.3086 43.6235Z" fill="#8A8B8D"/>
<path d="M36.1117 44.2334C36.4462 44.7274 36.7386 45.4024 37.0252 45.9442L37.2624 45.924L37.2908 46.4185L37.3936 45.9632C37.4224 46.343 38.0992 50.0126 38.2231 50.2443C38.2619 50.5583 38.2928 50.6721 38.151 50.961L37.9662 50.9652C37.3605 50.5327 37.2995 49.4465 37.026 48.8775L37.0048 48.8343C37.5188 48.1122 36.2035 45.0122 35.8008 44.255L36.1117 44.2334Z" fill="#6E6E6E"/>
<path d="M41.7109 42.1396C42.0412 42.4727 42.4892 43.6192 42.9019 43.7332L42.9559 43.6999C45.3605 42.3625 47.611 42.2741 50.2086 42.8629C50.4861 42.9925 51.9113 43.7946 52.0787 43.7255C52.888 43.9392 53.8676 46.0072 53.6308 46.6819C53.3802 46.7688 53.4707 46.7556 53.1782 46.6213C53.1108 46.5089 53.0478 46.4316 53.0405 46.303C52.2675 45.8691 52.4012 46.3183 51.8195 46.1008C50.8558 45.7407 46.6479 44.763 45.8577 45.5505L45.8616 45.7487C46.9558 46.3794 49.4428 46.3345 50.5302 47.6283C50.7681 47.9113 51.095 47.9709 51.2352 48.4128C50.9099 48.3057 50.1082 47.6762 49.5883 47.4348C47.4453 46.439 45.1108 46.4284 42.8102 46.7546C42.6753 46.3274 42.5603 45.8545 42.4453 45.4183C42.4535 45.2242 42.1973 44.3941 42.1293 44.154C42.0838 43.5288 41.7472 43.0635 41.7109 42.1396Z" fill="#B8B9BA"/>
<path d="M42.957 43.7002C45.3616 42.3628 47.6122 42.2744 50.2098 42.8631C50.4872 42.9927 51.9125 43.7949 52.0799 43.7258C52.8891 43.9394 53.8688 46.0074 53.6319 46.6821C53.3814 46.7691 53.4718 46.7559 53.1794 46.6215C53.112 46.5091 53.0489 46.4319 53.0416 46.3033C52.3386 43.9653 48.0085 44.0631 46.1021 44.3407C45.1736 44.476 44.2777 45.1114 43.4699 45.5867C43.1993 44.9692 43.3522 44.2159 42.957 43.7002Z" fill="#39383B"/>
<path d="M44.8582 40.599C45.0129 40.4455 45.1353 40.3332 45.2594 40.1534L45.0402 39.9053L45.1463 39.8706L45.179 39.8897C45.8758 40.2866 47.5323 40.6513 48.3635 40.9497C47.9519 40.9809 47.6862 40.9783 47.3124 41.1558L47.2737 41.3548L47.2692 41.3254C47.9277 41.5823 48.7446 41.8281 49.342 42.1637C49.592 42.3041 49.9711 42.6975 50.209 42.8635C47.6113 42.2748 45.3608 42.3632 42.9562 43.7006L42.9022 43.7339C42.4895 43.6198 42.0416 42.4734 41.7113 42.1403C41.5607 41.5929 41.3191 40.98 41.4173 40.4424L41.6883 40.5008C41.9554 41.2731 42.0574 42.0057 42.5323 42.6606C43.1633 42.818 45.2012 42.1804 45.6399 41.6782C45.7515 41.0072 45.0218 41.2491 44.7885 40.7339L44.8582 40.599Z" fill="#C2C2C2"/>
<path d="M43.2422 48.2947C45.3164 47.7082 46.986 47.9983 49.0469 48.5531C49.8438 48.7676 51.3405 49.4154 51.6333 50.2247L51.5872 50.3359L51.2902 50.156L51.2556 50.1742C50.7244 50.4455 50.581 50.3581 49.9943 50.336C49.2421 49.6233 45.203 48.6849 44.1938 49.3588C44.1589 49.3821 44.0108 49.6858 43.9768 49.7522C43.9038 49.9582 43.8823 49.9968 43.7589 50.1775C43.6903 49.9611 43.638 49.7279 43.4578 49.576C43.389 49.1513 43.3234 48.7163 43.2422 48.2947Z" fill="#B8B9BA"/>
<path d="M19.147 11.7585C18.6222 11.7074 18.5651 11.6364 18.2105 11.269C18.1041 10.9467 18.0934 11.0646 18.2154 10.7755L18.5541 10.9822L18.7028 10.9371C18.6281 10.1506 18.1031 9.59065 17.9082 9.06299C18.1126 7.70579 22.9624 7.70832 24.1173 7.71234C24.9315 7.71517 25.8142 7.92457 26.6109 7.90108C26.385 8.03196 25.6957 8.06972 25.7081 8.0543C24.9884 8.94336 23.6842 8.69346 22.7659 8.74679C21.7205 8.80749 19.3248 8.58479 18.8081 9.62566C18.7321 9.7789 19.1727 11.2334 19.147 11.7585Z" fill="#BEC2C7"/>
<path d="M50.2093 42.8631C49.9714 42.697 49.5923 42.3037 49.3424 42.1633C48.7449 41.8276 47.9281 41.5819 47.2695 41.3249L47.2741 41.3543L47.3127 41.1554C47.6866 40.9779 47.9523 40.9804 48.3639 40.9492C48.5424 40.9561 49.1869 40.9845 49.2998 41.0727C49.9479 41.5797 50.4775 41.8512 51.3174 41.7526C51.8788 41.6867 52.9567 41.0654 53.4038 41.7245L53.0868 41.9257L53.107 41.9706C53.1978 42.1751 53.2122 42.2146 53.0815 42.4074C52.6476 42.5746 52.2169 42.75 51.7896 42.9334C51.7389 43.1787 51.7643 43.1261 51.8633 43.3958C52.0744 43.5583 52.0226 43.4744 52.0794 43.7257C51.912 43.7948 50.4868 42.9927 50.2093 42.8631Z" fill="#BEC2C7"/>
<path d="M36.111 44.233C35.9115 43.9054 35.145 42.6527 35.127 42.3322C35.5293 42.3038 35.9636 42.3626 36.3673 42.405C36.5719 42.1576 36.6489 41.9807 36.9219 41.8828L37.1779 42.0309L37.1977 42.1406L36.7211 42.1354C36.5579 42.6826 37.8264 45.1511 37.2617 45.9236L37.0245 45.9438C36.7379 45.402 36.4456 44.727 36.111 44.233Z" fill="#707174"/>
<path d="M42.8105 46.755C45.1112 46.4289 47.4457 46.4395 49.5887 47.4352C50.1085 47.6767 50.9103 48.3062 51.2355 48.4132L51.4868 48.4323L51.669 48.8078C49.9592 48.1269 48.7544 47.2005 46.6671 47.0181C45.8949 46.9505 43.2374 47.2382 42.8728 47.035L42.8105 46.755Z" fill="#4C4C4F"/>
<path d="M42.4451 45.4185C42.3919 45.6992 42.3702 45.8409 42.2556 46.1106L42.1288 46.0407C41.9657 45.6896 41.4594 43.7394 41.6008 43.4985C41.9195 43.7554 41.5686 43.8748 41.8385 44.256L42.1291 44.1542C42.1971 44.3943 42.4533 45.2244 42.4451 45.4185Z" fill="#4C4C4F"/>
<path d="M27.7598 38.8031C27.9596 38.3525 28.477 37.3955 28.8464 37.0811C28.9397 37.3798 28.3241 38.6576 28.1648 39.0094L28.0687 39.0733L28.0122 38.9557L27.7598 38.8031Z" fill="#B8B9BA"/>
<path d="M45.9556 28.0419C45.9599 27.7123 45.951 27.5892 46.0933 27.2793C46.5343 26.8242 47.1473 26.8591 47.7766 26.8096L47.4915 27.0386L47.5133 27.1719C47.8837 27.3686 48.0538 27.1604 48.4689 27.2254C48.1143 27.8089 47.7419 28.405 47.398 28.9926C46.9022 29.6617 45.1969 31.2578 44.4542 31.6238C41.2136 33.2207 37.8732 34.6651 34.6836 36.3639C34.55 36.435 34.0241 36.3455 33.8812 36.3017L33.9518 35.4931C34.194 35.2354 34.5582 35.2773 34.9999 35.1992C35.3111 35.0351 36.1067 34.8053 36.5263 34.6152C37.7594 34.0602 38.9863 33.491 40.2211 32.9397C40.7886 32.6864 42.1476 32.3827 42.2751 31.7315C41.6763 31.6122 38.0641 33.614 37.135 33.8232C36.2566 34.021 32.8783 34.9352 32.1564 34.5779L32.124 34.4215C32.8852 33.8939 33.7034 34.3309 34.1436 33.4678C34.0958 33.1119 34.1528 33.2369 33.9045 32.9668C32.1721 32.1747 30.9501 34.9015 30.6148 35.0045C30.1871 34.2769 31.5923 32.2375 32.2063 31.6828L32.2503 31.7489C32.0192 32.0823 31.692 32.3695 31.8979 32.7322L32.0735 32.73C32.4237 32.2363 33.0601 31.9575 33.5649 31.5129C34.721 30.5348 37.0878 29.1626 38.5945 29.2024C40.4593 29.2845 42.2199 29.4165 44.0806 29.1266C45.1634 28.9578 45.6634 29.3555 45.9556 28.0419Z" fill="#A9ACB7"/>
<path d="M45.9551 28.0419C45.9594 27.7123 45.9505 27.5892 46.0928 27.2793C46.5338 26.8242 47.1468 26.8591 47.7761 26.8096L47.491 27.0386L47.5128 27.1719C47.8832 27.3686 48.0533 27.1604 48.4684 27.2254C48.1138 27.8089 47.7414 28.405 47.3975 28.9926C46.9197 29.0187 46.8075 29.2989 46.2125 29.039C45.9829 28.752 45.9904 28.4115 45.9551 28.0419Z" fill="#BEC2C7"/>
<path d="M31.6992 16.3813C31.6958 14.0201 33.6048 12.3021 35.1007 10.6493C35.5344 10.1701 36.0844 9.72283 36.7589 9.71982C36.803 9.71948 36.8472 9.72004 36.8913 9.72148C37.2865 11.634 36.8196 13.7312 36.8042 15.7453C36.7802 18.862 37.6808 20.8395 38.4052 23.6963C38.2576 23.9543 37.6605 24.8261 37.4303 24.9983C37.1534 25.5055 36.7596 26.18 36.1654 26.2245C35.8004 26.0937 34.6895 24.8948 34.3183 24.537C32.9273 23.3658 32.2677 22.967 33.9177 21.4116C34.4087 20.9486 35.6602 19.8794 35.0544 19.2001C34.7132 19.1222 34.5614 19.2039 34.2738 19.3894L34.2154 19.2524C34.4055 18.7997 34.4093 17.7597 34.5605 17.5749L35.1499 17.3599L35.2216 17.1869C34.8531 16.6866 33.206 16.5626 32.4877 16.4537C32.2268 16.4118 31.9634 16.3876 31.6992 16.3813Z" fill="#ACB0BB"/>
<path d="M34.3164 24.5368C34.9397 24.4993 35.0712 24.5493 35.6498 24.7948C35.7785 24.6474 35.8331 24.5846 35.9858 24.4614C36.3688 24.6576 36.2554 25.0923 36.6739 25.3526C37.1561 25.0539 36.7951 25.0045 37.4284 24.9982C37.1515 25.5054 36.7578 26.1799 36.1635 26.2244C35.7985 26.0935 34.6876 24.8946 34.3164 24.5368Z" fill="#9E9FA2"/>
<path d="M18.7011 12.689C18.4454 13.2777 18.1196 13.398 18.1319 13.704L17.9304 13.7405C17.6889 14.0409 17.9823 13.9781 17.9654 14.4115C17.9451 14.9296 17.4321 14.823 17.018 15.2L17.0439 15.4276L17.1946 15.496C17.2509 15.4624 17.3086 15.4313 17.3677 15.4027C18.1513 15.0249 22.1214 14.969 22.8992 15.2357C23.0614 15.7185 21.7237 17.9631 21.6353 18.7213C21.5781 19.2113 21.5926 19.4505 21.6162 19.9428C21.919 20.4194 22.3691 20.8817 22.5547 21.4077L22.3899 21.625C21.7411 21.7982 21.9404 20.9181 21.2028 20.7719C21.0247 20.9911 21.1747 21.047 21.1149 21.5006L20.9396 21.6144C20.4904 21.5465 20.4637 21.18 20.1085 21.0342C18.9701 20.567 19.3448 21.4681 19.138 21.7881C16.9431 22.376 15.6008 21.9344 14.3478 19.8602C13.8269 18.9979 13.854 17.9496 13.8145 16.9693C13.9843 16.7427 14.588 15.746 14.7567 15.4644C15.8083 13.7107 16.9173 13.4119 18.7011 12.689Z" fill="#A4A7B2"/>
<path d="M26.9112 26.4859C28.1452 26.5777 30.3343 26.8694 31.3839 26.1061C31.7206 25.8612 31.7831 25.2418 32.2172 25.0259C32.6021 25.0802 32.6834 25.2597 32.9725 25.4154C33.9811 25.9582 33.3921 26.9144 33.0538 27.734C32.9179 29.0484 31.3219 31.5203 30.7813 32.7806C30.565 33.285 30.2878 34.3868 29.8509 34.6316C28.7832 34.1398 28.9792 30.6096 28.1108 30.3842C27.7517 31.1653 28.6614 34.0297 28.3287 34.6905C26.503 34.9687 26.0794 32.4997 25.8952 31.1538C25.7717 30.2513 26.3735 27.1942 26.9112 26.4859Z" fill="#A9ADB7"/>
<path d="M26.9121 26.4859C28.1461 26.5777 30.3352 26.8694 31.3848 26.1061C31.7215 25.8612 31.784 25.2418 32.218 25.0259C32.6029 25.0802 32.6843 25.2597 32.9734 25.4154C33.982 25.9582 33.393 26.9144 33.0547 27.734C32.6919 27.8672 32.8309 28.0632 32.3673 28.251C32.1713 28.1978 31.8274 27.916 31.8455 27.919C31.4055 27.8468 30.6532 28.1003 30.2707 27.8475C30.2416 27.8283 30.1356 27.5784 30.0103 27.4836C29.7383 27.6734 29.5814 27.814 29.3443 27.5589C28.6361 26.7971 27.9998 27.643 27.0188 27.2135L26.9121 26.4859Z" fill="#BEC2C7"/>
<path d="M26.5676 10.6724L26.7798 10.7486C27.256 11.2931 26.5194 14.1498 27.166 14.7369L27.3751 14.3239L27.5023 14.397C28.0219 14.2539 27.8081 11.8405 28.4382 11.0665C28.7914 11.0176 28.6562 11.011 29.0232 11.1691C29.1751 12.1474 28.1668 14.2998 29.0243 15.0393C29.3531 14.93 29.1885 12.095 30.0885 11.8319C30.2558 11.8794 30.5268 12.1665 30.4825 12.363C30.2755 13.2795 29.0208 16.7125 29.1314 17.4671C29.5071 17.4959 30.7121 16.635 31.2432 16.7996C31.3538 17.4168 28.7504 19.7719 28.2185 19.9408C27.4712 20.0017 26.9105 19.9412 26.3315 20.4103C26.1861 20.528 26.0501 20.4973 25.8652 20.4987C25.879 20.0309 27.5062 18.6411 26.3313 17.8051C26.1326 17.6638 26.2211 17.6919 25.9862 17.7205C25.772 18.1308 26.2404 18.3786 26.1917 18.6564C25.9924 19.7959 24.9951 21.1358 23.8141 20.1205C22.6398 19.1109 23.6539 18.5598 23.5674 17.7296L23.1366 17.8553C23.0706 17.3383 23.3585 17.6721 23.257 17.1372L23.0561 17.0605C22.9033 17.2199 22.8254 17.286 22.6504 17.4212C22.6529 16.5591 23.4733 16.6631 23.5046 16.4093C23.7934 14.0635 23.6086 13.387 24.7576 11.2445C24.8186 12.5128 24.3668 13.9354 24.82 14.833L25.0823 14.8734C26.0015 14.4658 26.0244 11.8737 26.5676 10.6724Z" fill="#A5A9B2"/>
<path d="M44.4357 16.5935C44.0033 17.2918 43.7806 17.5939 43.0855 18.092C42.2923 18.6601 40.1045 20.1839 39.1516 20.0589C38.2579 19.654 37.0725 16.3258 37.26 15.2432L37.3176 15.2295C37.3506 15.3493 37.3849 15.4688 37.4204 15.5879C37.6189 16.2501 38.2412 17.0052 38.9817 16.7786C39.3054 15.9441 37.7923 14.8264 37.5177 14.2759C37.3635 13.967 37.3174 12.4838 37.4679 12.1167C37.8736 12.1232 38.0332 12.6441 38.4242 12.6528C38.4415 11.9876 37.5475 10.9334 38.0176 10.4478C38.4631 10.3033 39.2608 10.4324 39.7552 10.4809C39.6707 10.7944 39.5904 11.109 39.5147 11.4248C39.45 11.705 39.3422 12.1116 39.4827 12.3355C40.3241 11.6776 39.9271 10.5541 41.6076 11.1525C41.8163 11.2268 42.4558 11.3391 42.6926 11.3868L42.0718 11.6084C41.6866 11.6706 41.8133 11.6012 41.554 11.8753C41.2241 13.7868 45.4599 12.6558 46.3207 12.4899L46.3294 12.6049C45.9166 12.8923 45.5425 13.0922 45.1045 13.3314L45.4389 13.6078C45.401 13.7566 45.4322 13.7335 45.3336 13.8028C44.9427 14.3656 43.3671 14.9265 42.9288 15.3207C42.5492 15.6437 42.5638 15.743 42.1533 15.7828C41.9916 15.6264 41.9678 15.5668 41.8667 15.3656C41.6582 15.7378 41.562 16.1261 41.4432 16.5338C42.161 16.4445 43.7347 15.8675 44.1654 16.02C43.9507 16.4865 41.0986 18.0884 40.7021 18.6076L40.7381 18.7606C41.379 18.7499 43.5349 17.0363 44.4357 16.5935Z" fill="#ABAFB9"/>
<path d="M41.8672 15.3653C42.6104 14.842 44.3125 13.7489 45.105 13.3311L45.4393 13.6074C45.4015 13.7562 45.4326 13.7332 45.334 13.8024C44.9432 14.3652 43.3675 14.9261 42.9293 15.3203C42.5497 15.6433 42.5642 15.7426 42.1538 15.7824C41.9921 15.626 41.9683 15.5664 41.8672 15.3653Z" fill="#4C4C4F"/>
<path d="M42.9297 15.3206C42.9402 14.9386 44.9057 13.755 45.3345 13.8027C44.9436 14.3655 43.368 14.9264 42.9297 15.3206Z" fill="#8A8B8D"/>
<path d="M44.0451 18.9448C44.1032 18.9847 44.2981 19.1125 44.3362 19.1524L44.1483 19.323C44.1811 19.7931 44.4176 19.4876 44.521 20.1989C44.7243 21.3629 44.7292 23.7044 44.8464 24.9586C44.8674 25.1833 44.758 25.9882 44.5988 26.042C43.3726 26.4569 41.1769 26.7447 39.9514 27.0669C39.0369 27.3075 35.9133 28.2482 35.3223 28.2317C35.4519 27.8777 42.2152 20.472 42.9218 19.899C43.1135 19.7818 43.8356 19.1279 44.0451 18.9448Z" fill="#A2A6B0"/>
<path d="M44.0461 18.9448C44.1042 18.9847 44.2992 19.1125 44.3373 19.1524L44.1494 19.323C44.1821 19.7931 44.4187 19.4876 44.522 20.1989C44.3205 20.4774 44.1672 20.6608 44.0444 20.9843L44.0881 20.8806C44.0748 20.8385 44.0275 20.6802 43.9919 20.6603C43.3701 20.3134 43.3855 20.3646 42.9611 20.8035L42.8963 20.684L43.0028 20.7607C42.8192 20.4856 42.9035 20.2968 42.9229 19.899C43.1146 19.7818 43.8367 19.1279 44.0461 18.9448Z" fill="#BEC2C7"/>
<path d="M39.6683 1.64949C42.2003 0.958998 44.8744 2.12024 47.1108 3.18313C48.0192 3.86802 48.9568 4.58427 49.7746 5.37605C48.9864 5.37105 48.4257 5.36542 47.6432 5.54811L46.8065 6.2493L46.6102 7.30996C46.1298 6.89176 44.7177 5.24932 44.5046 5.13609C44.099 5.4019 44.4989 5.54545 44.0359 5.56521C43.4226 5.31018 43.0382 4.98886 42.4914 4.64805C42.2661 4.41769 42.1796 4.51342 41.8143 4.32367L41.7337 4.04168C41.4452 3.66152 39.8465 5.01254 39.2773 4.68985C37.8207 3.864 38.5407 2.30621 39.6683 1.64949Z" fill="#B7BBC6"/>
<path d="M40.4059 7.63741C39.4698 7.57881 37.4762 7.14838 37.2461 6.08438C37.7303 4.50674 42.7412 6.31349 42.9273 6.65581C43.02 7.70421 43.0191 7.50668 43.7631 8.32341C43.2777 8.21866 41.6539 7.89878 41.2909 7.76562C41.0462 7.78958 40.6589 7.68945 40.4059 7.63741Z" fill="#AFB3BD"/>
<path d="M40.4062 7.63765C40.825 7.18013 41.5842 7.32566 42.1267 7.52599L42.2202 7.64858C41.8552 7.76134 41.6691 7.75482 41.2912 7.76587C41.0465 7.78983 40.6592 7.6897 40.4062 7.63765Z" fill="#9E9FA2"/>
<path d="M44.0449 18.9445C44.7701 18.266 45.7543 17.6708 46.437 16.8614C46.5438 16.7349 46.7333 16.7505 46.8876 16.7551C47.3935 17.2269 46.9594 18.1437 47.8395 18.502C48.5992 18.3965 48.2857 17.8471 48.7587 17.6361C48.848 17.752 48.8434 17.7922 48.8566 17.9396L48.9405 17.9092L48.9937 17.6955L49.1533 17.7594C49.348 18.2907 48.7397 19.5561 48.5207 20.1288L48.3314 20.2835C47.5092 20.166 46.5353 19.7379 45.7157 19.5004C45.3621 19.3979 44.6101 19.2551 44.3361 19.1521C44.298 19.1122 44.103 18.9844 44.0449 18.9445Z" fill="#BEC2C7"/>
<path d="M52.2731 33.0142C53.3422 34.2012 54.3057 34.0483 55.8023 34.4038C55.1037 34.8249 54.5909 35.1001 54.0581 35.7377C53.4049 35.7622 51.6402 35.6277 51.413 34.9056C51.5894 34.4353 52.0165 34.457 52.2894 33.8827L52.2113 33.7414C51.6826 33.6777 51.1948 34.0144 50.7254 34.2708C50.2525 34.6066 49.4344 35.2025 48.8513 34.9663L48.7773 34.7749C48.9038 34.2789 49.3462 34.0536 49.7693 33.7626C50.2668 33.3886 51.5882 33.176 52.2731 33.0142Z" fill="#B8B9BA"/>
<path d="M18.7004 12.6885C19.2386 12.4949 19.8595 12.0979 20.398 12.0767C20.6508 13.6355 22.5693 12.4802 23.4128 13.0195C22.9856 13.5723 22.2206 13.3573 21.5236 13.4901C20.8335 13.6216 19.0336 14.784 18.5744 14.5227C18.4483 14.2946 18.2333 13.9291 18.1312 13.7035C18.1189 13.3975 18.4447 13.2773 18.7004 12.6885Z" fill="#BEC2C7"/>
<path d="M52.3132 25.0493L52.4425 25.2293C52.5279 26.3244 52.4658 28.2816 51.8577 29.2013C51.6492 29.368 51.1238 29.3243 50.8289 29.3246C50.532 28.971 51.4347 26.4232 51.6281 25.9236C51.6859 25.7741 52.1777 25.2041 52.3132 25.0493Z" fill="#BEC2C7"/>
<path d="M44.0958 33.1162L44.1658 33.1818C44.1485 33.2228 44.1285 33.2613 44.104 33.2986C43.9952 33.4641 39.7167 36.3796 39.2902 36.5617C38.6816 36.8217 37.8941 36.856 37.2354 36.9738L37.1777 36.9261C37.3926 36.5211 43.2334 33.5243 44.0958 33.1162Z" fill="#9E9FA2"/>
<path d="M42.693 11.3866L42.7229 11.3983C43.4613 11.6797 44.0902 11.6954 44.8619 11.7447C45.4258 11.7807 46.9388 11.1009 47.1714 11.2938C47.044 12.2958 42.885 12.9424 42.1568 12.0815C42.1298 12.0495 42.0843 11.6884 42.0723 11.6082L42.693 11.3866Z" fill="#BEC2C7"/>
<path d="M20.3984 12.0767C21.1252 12.0344 22.9409 11.9291 23.6097 12.0397C23.711 12.2752 23.4978 12.7398 23.4132 13.0195C22.5697 12.4802 20.6513 13.6355 20.3984 12.0767Z" fill="#B8B9BA" fill-opacity="0.580392"/>
<path d="M22.6143 28.7373C22.9402 29.0296 23.3704 31.3403 23.257 31.7455L23.1032 31.8201C22.7812 31.6012 22.4626 31.1218 22.2195 30.7957C22.1495 29.8879 22.0472 29.4123 22.6143 28.7373Z" fill="#B8B9BA"/>
<path d="M39.668 5.10754C40.7143 4.90339 41.0982 4.86304 41.7319 4.0415L41.8125 4.3235C42.1778 4.51325 42.2643 4.41752 42.4896 4.64788C41.355 4.66329 42.1376 4.919 41.8 5.51072C41.2518 5.66313 40.2276 5.28818 39.668 5.10754Z" fill="#B8B9BA"/>
<path d="M47.7754 26.8097L47.7949 26.792C48.2973 26.3271 48.1599 25.7479 48.7653 25.6172L48.9313 25.7526C48.9258 25.9088 48.5546 26.8983 48.4677 27.2255C48.0525 27.1605 47.8824 27.3687 47.5121 27.172L47.4902 27.0387L47.7754 26.8097Z" fill="#B8B9BA" fill-opacity="0.615686"/>
<path d="M33.8819 36.3018C33.8762 36.1752 33.8563 35.595 33.7838 35.5353C33.3473 35.1768 31.6653 36.0191 31.4141 35.3782C31.7571 35.153 34.4875 35.1527 35.0006 35.1994C34.5589 35.2775 34.1947 35.2355 33.9525 35.4933L33.8819 36.3018Z" fill="#6E6E6E"/>
<path d="M23.1532 20.3896C23.5345 20.5148 23.88 21.0976 23.8426 21.4966C23.1227 21.695 23.0395 20.8988 23.1532 20.3896Z" fill="#B8B9BA"/>
<path d="M33.2738 17.9068L33.3748 17.8735L33.4588 17.9533C33.2044 18.3149 32.8809 18.5642 32.5448 18.8482L32.4599 18.8442C32.2748 18.6136 32.3039 18.7158 32.3221 18.4412C32.528 18.1776 32.9503 18.0427 33.2738 17.9068Z" fill="#9E9FA2"/>
<path d="M25.4187 11.4556C25.4557 11.489 25.5396 11.6319 25.5709 11.6814C25.5742 12.3502 25.4937 13.1198 25.2338 13.7392L25.1816 13.7395C25.1824 13.1985 25.2494 11.9386 25.4187 11.4556Z" fill="#8A8B8D"/>
<path d="M8.68699 21.7034C8.45704 21.3404 8.35494 21.3124 8.35577 20.938C8.89891 20.3578 10.8476 21.0442 11.3431 21.5126C11.4699 21.6325 11.5578 21.7373 11.7086 21.8565C13.1679 23.1746 12.0038 24.1767 12.7155 25.1835C13.5753 25.6897 16.5657 23.8194 18.5784 25.5899C19.2779 25.7085 20.2536 26.7059 20.1586 27.484L20.0054 27.6924C19.7034 27.6761 19.6784 27.5923 19.4209 27.307C19.3865 27.2687 19.3524 27.2302 19.3187 27.1914C18.9884 26.455 17.6135 25.8761 16.7743 26.3976C16.7612 26.6368 16.7314 26.559 16.8646 26.7364L16.7721 26.7726L16.8412 26.9008L16.9736 26.7803L17.1345 26.857L17.2114 27.107C16.9262 27.471 16.4382 27.2758 15.9675 27.6727C15.7497 27.7619 15.4767 28.152 15.2543 28.374C15.5532 28.558 15.5907 28.7723 15.707 29.1037C15.6577 29.6379 15.2695 30.0421 14.7314 30.0964C14.1822 29.9242 14.4455 29.4749 13.9019 29.2193C13.3412 29.3613 12.8582 29.2844 12.5067 29.7341L12.7589 29.9029C12.89 30.7982 11.9884 30.5793 11.7236 31.3099L11.7739 31.4952L11.4599 31.4068C10.8869 31.7893 11.0722 32.8873 10.4339 32.978C10.1505 32.6457 10.1719 32.0366 9.89113 31.5233C8.83668 30.9776 7.50932 31.0356 6.34586 31.074L5.81364 31.0808C6.65558 31.5134 6.32625 31.4309 6.63931 32.1247C4.94884 32.1804 3.56957 32.5429 1.92905 32.9094C1.73955 32.9516 1.47137 32.9826 1.30176 32.878C1.15089 32.8808 1.06934 32.8145 0.936036 32.7388C0.0611067 30.8646 -0.653281 28.3022 0.973073 26.666C2.40398 25.2266 4.4182 23.8787 6.51242 23.746C7.30101 23.696 8.33382 23.9476 9.19716 23.9156C9.63676 23.2544 9.13803 22.9705 9.11639 21.9162L8.68699 21.7034ZM12.2587 29.4548C10.6382 28.0427 9.12927 27.7657 7.01509 27.846C6.40249 27.8693 5.55464 28.3187 5.09288 28.7322C5.02799 28.7903 5.08243 28.996 5.09702 29.1051C6.94189 29.3841 8.69636 29.8035 10.5325 29.9261C10.8725 29.9488 10.876 30.1012 11.3555 30.0658C11.6476 29.5983 11.8138 29.8928 12.2587 29.4548Z" fill="#39383B"/>
<path d="M8.68699 21.7034C8.45704 21.3404 8.35494 21.3124 8.35577 20.938C8.89891 20.3578 10.8476 21.0442 11.3431 21.5126C11.4699 21.6325 11.5579 21.7373 11.7086 21.8565C13.1679 23.1746 12.0038 24.1767 12.7155 25.1835C13.5753 25.6897 16.5657 23.8194 18.5784 25.5899C17.8883 25.736 16.2887 25.1788 15.3939 25.4746C14.7976 25.6717 13.8419 26.3676 13.2059 26.4922C12.1844 26.1206 11.2587 25.4735 10.2627 25.0009C7.14678 23.5221 3.57895 24.935 1.54705 27.5291C0.115926 29.3561 2.09522 29.7477 2.3424 30.6456C2.00031 31.1232 0.487234 30.717 1.36119 32.5691L1.30176 32.878C1.15089 32.8807 1.06934 32.8145 0.936036 32.7388C0.0611067 30.8646 -0.653281 28.3022 0.973073 26.666C2.40398 25.2266 4.4182 23.8787 6.51243 23.746C7.30101 23.696 8.33382 23.9476 9.19716 23.9156C9.63677 23.2544 9.13803 22.9705 9.11639 21.9162L8.68699 21.7034Z" fill="#BEC2C7"/>
<path d="M8.6867 21.7034C8.45675 21.3404 8.35465 21.3124 8.35547 20.938C8.89862 20.3578 10.8473 21.0442 11.3429 21.5126C11.4696 21.6325 11.5576 21.7373 11.7083 21.8565L11.5957 21.8439L11.5255 21.9503C11.9477 22.7209 12.587 23.8975 12.2025 24.772C11.9256 25.0191 12.0467 24.9672 11.7108 25.0331C11.3254 24.6653 10.9821 22.7309 10.8439 22.1048C9.94132 21.7322 9.62627 21.6994 8.6867 21.7034Z" fill="#39383B"/>
<path d="M3.0293 30.4169C3.07706 30.339 3.1265 30.2622 3.17761 30.1865C3.68792 29.4209 5.2287 27.6152 6.06101 27.2088C7.68219 26.4172 10.387 26.8014 12.0073 27.5625C12.525 27.8056 13.8549 28.6531 14.2541 28.5732C14.3036 28.2567 14.3441 28.0711 14.4268 27.7643C14.7637 27.4888 16.3136 26.6567 16.7761 26.3975C16.763 26.6367 16.7332 26.5589 16.8665 26.7363L16.7739 26.7725L16.8431 26.9007L16.9755 26.7802L17.1364 26.8568L17.2132 27.1069C16.9281 27.4709 16.44 27.2757 15.9693 27.6726C15.7515 27.7618 15.4785 28.1519 15.2562 28.3739C15.5551 28.5579 15.5926 28.7722 15.7089 29.1036C15.6595 29.6378 15.2713 30.042 14.7332 30.0963C14.184 29.9241 14.4474 29.4748 13.9038 29.2192C13.343 29.3611 12.8601 29.2843 12.5085 29.734L12.2606 29.4547C10.64 28.0425 9.13112 27.7656 7.01694 27.8459C6.40434 27.8692 5.55649 28.3185 5.09473 28.7321C5.02983 28.7902 5.08428 28.9959 5.09887 29.105C6.94374 29.384 8.69821 29.8034 10.5343 29.926C10.8744 29.9487 10.8779 30.1011 11.3574 30.0657C11.1107 30.4559 10.6385 30.8615 10.1647 30.8192C8.98225 29.777 4.52241 30.0194 3.0293 30.4169Z" fill="#BEC2C7"/>
<path d="M15.2547 28.374C15.5536 28.558 15.5911 28.7723 15.7074 29.1037C15.6581 29.6379 15.2699 30.0422 14.7318 30.0965C14.1826 29.9242 14.4459 29.4749 13.9023 29.2193L14.1516 29.1195L14.3577 29.271C14.6728 29.2112 15.0819 28.6021 15.2547 28.374Z" fill="#39383B"/>
<path d="M5.81462 31.0806C6.65655 31.5132 6.32723 31.4306 6.64028 32.1244C4.94982 32.1801 3.57055 32.5427 1.93003 32.9091C1.74052 32.9514 1.47234 32.9824 1.30273 32.8777L1.36217 32.5688C1.63908 32.568 3.34383 31.6226 3.70477 31.5246C4.3537 31.3485 5.15768 31.2107 5.81462 31.0806Z" fill="#BEC2C7"/>
<path d="M6.34766 31.074C7.51112 31.0356 8.83848 30.9776 9.89293 31.5233C10.1737 32.0365 10.1523 32.6456 10.4357 32.978C11.074 32.8873 10.8887 31.7893 11.4617 31.4068L11.7757 31.4951C12.1548 31.7352 13.5459 32.5551 13.9597 32.7699C15.7809 33.9531 16.8095 35.4051 16.7314 37.5234C16.7216 37.7904 16.8855 37.9416 16.6738 38.2406C16.591 39.4856 15.9273 41.6423 15.3316 42.7404C14.8325 43.6604 13.0691 45.191 11.9836 45.1642C11.6191 44.9939 11.7379 45.0943 11.5163 44.7363C11.5594 44.3208 11.4855 43.254 11.8093 43.1337C12.4485 42.5564 12.9184 41.3621 13.1732 40.5549C13.201 40.3659 13.2079 40.2143 13.2164 40.0123C13.2739 38.6407 12.9042 36.5329 11.9143 35.5477C11.7206 35.355 10.752 34.932 10.5766 34.6895C10.2352 34.2096 10.2193 33.5145 9.75261 33.1163C9.3534 32.7756 8.67189 32.7955 8.32336 32.3892C8.24877 32.1435 7.87882 31.7479 7.6977 31.5335L7.71892 31.4875C7.1013 31.0645 7.07595 31.271 6.34766 31.074Z" fill="#39383B"/>
<path d="M6.34766 31.074C7.51112 31.0356 8.83848 30.9776 9.89293 31.5233C10.1737 32.0365 10.1523 32.6456 10.4357 32.978C11.074 32.8873 10.8887 31.7893 11.4617 31.4068L11.7757 31.4951C12.1548 31.7352 13.5459 32.5551 13.9597 32.7699C13.1564 32.7233 10.3755 31.8453 11.7373 34.2381C11.9955 34.6919 13.2597 34.9222 13.566 35.3825C13.5982 35.4193 13.8028 35.6567 13.8208 35.6706C14.6585 36.8872 15.1669 39.2741 14.6003 40.6817C13.8256 42.6589 13.1747 42.5737 11.9913 44.0295C11.6185 43.8272 11.8274 43.458 11.8093 43.1337C12.4485 42.5564 12.9184 41.3621 13.1732 40.5548C13.201 40.3659 13.2079 40.2143 13.2164 40.0123C13.2739 38.6407 12.9042 36.5329 11.9143 35.5477C11.7206 35.355 10.752 34.932 10.5766 34.6895C10.2352 34.2096 10.2193 33.5145 9.75261 33.1163C9.3534 32.7756 8.67189 32.7955 8.32336 32.3892C8.24877 32.1435 7.87882 31.7479 7.6977 31.5335L7.71892 31.4875C7.1013 31.0645 7.07595 31.271 6.34766 31.074Z" fill="#BEC2C7"/>
<path d="M13.8193 35.6704C14.657 36.887 15.1655 39.2739 14.5988 40.6815C13.8241 42.6587 13.1732 42.5735 11.9898 44.0293C11.617 43.827 11.8259 43.4578 11.8078 43.1336C12.4471 42.5562 12.917 41.362 13.1717 40.5547C13.2856 40.7341 13.2183 40.6795 13.4356 40.7509C14.0872 40.1386 13.7466 36.8414 13.8193 35.6704Z" fill="#BCBCBC"/>
<path d="M14.5996 40.6816C14.9619 41.4833 14.496 41.7915 14.8007 42.2728C15.2417 41.7528 16.2923 38.9886 16.5083 38.2358L16.6731 38.2406C16.5904 39.4855 15.9267 41.6422 15.3309 42.7403C14.8319 43.6604 13.0684 45.191 11.9829 45.1642C11.6184 44.9939 11.7372 45.0942 11.5156 44.7362C11.5588 44.3207 11.4848 43.2539 11.8086 43.1337C11.8268 43.4579 11.6178 43.8271 11.9907 44.0295C13.174 42.5737 13.8249 42.6589 14.5996 40.6816Z" fill="#4C4C4F"/>
<path d="M14.6973 35.5945C14.3703 35.3573 13.0873 34.1619 13.368 33.705C14.2053 33.5633 15.2124 34.8639 15.5174 35.5368C15.7227 35.972 15.7629 36.992 15.6898 37.4662L15.5845 37.4897C15.3012 37.0747 14.965 36.1291 14.6973 35.5945Z" fill="#B8B9BA"/>
<path d="M15.5174 35.5366C15.7227 35.9718 15.7629 36.9918 15.6898 37.4661L15.5845 37.4895C15.3012 37.0746 14.965 36.1289 14.6973 35.5943C15.0063 35.6868 15.1098 35.8654 15.3069 36.1162C15.4942 35.9596 15.4642 35.8208 15.5174 35.5366Z" fill="#9E9FA2"/>
<path d="M2.76097 16.206L2.33454 16.287C2.13397 16.0686 1.90805 15.8784 1.88477 15.5882C2.14685 15.1082 2.7389 14.9928 3.24861 14.6018C5.05051 14.5502 9.74656 16.098 9.16716 18.4588L8.98779 18.612C8.61227 18.5314 8.61454 18.4959 8.44455 18.1313C8.43352 17.0361 5.92844 16.0132 4.9885 15.9163C4.27098 15.8966 3.38805 15.8122 2.76097 16.206Z" fill="#39383B"/>
<path d="M4.9892 15.916C5.92914 16.0129 8.43423 17.0358 8.44525 18.131C7.82731 17.792 7.46951 18.1707 6.75554 17.8723C6.6437 17.8257 6.02515 17.3855 5.89002 17.2919C5.36373 16.8681 5.18902 16.9876 4.7185 16.674C4.68444 16.347 4.80937 16.2561 4.9892 15.916Z" fill="#B8B9BA" fill-opacity="0.482353"/>
<path d="M16.7755 26.3976C17.6148 25.8761 18.9897 26.455 19.32 27.1914L19.2063 27.229L18.85 26.9658L18.7487 27.0911L18.9031 27.3457C18.4428 27.7514 17.0823 27.4154 15.9688 27.6727C16.4395 27.2759 16.9275 27.471 17.2127 27.107L17.1358 26.857L16.9749 26.7803L16.8425 26.9009L16.7734 26.7726L16.8659 26.7364C16.7327 26.559 16.7624 26.6368 16.7755 26.3976Z" fill="#B8B9BA" fill-opacity="0.792157"/>
<path d="M2.7606 16.2059C3.38768 15.8121 4.27061 15.8965 4.98813 15.9162C4.8083 16.2563 4.68336 16.3472 4.71742 16.6742C5.18794 16.9878 5.36265 16.8683 5.88895 17.2921C5.05618 17.0876 3.15996 16.9779 2.81947 16.7833C2.69307 16.5696 2.72901 16.4567 2.7606 16.2059Z" fill="#B8B9BA" fill-opacity="0.301961"/>
<path d="M5.81445 31.0805L6.34666 31.0737C7.07496 31.2707 7.1003 31.0643 7.71793 31.4873L7.69671 31.5332C7.87782 31.7476 8.24778 32.1432 8.32237 32.3889C7.80478 32.1924 7.18952 32.1251 6.64012 32.1244C6.32706 31.4306 6.65638 31.5131 5.81445 31.0805Z" fill="#B8B9BA" fill-opacity="0.796078"/>
<path d="M56.0762 37.2322C56.1912 36.7152 56.2917 35.9049 56.9616 35.8921L57.0477 36.1004C56.9938 36.4696 56.9091 36.5583 56.6864 36.847L56.4078 36.8594L56.0762 37.2322Z" fill="#4C4C4F"/>
<path d="M85.9593 18.6637C86.7862 14.2664 93.2589 13.2077 95.6088 16.8631C97.2106 19.3917 96.7959 23.4649 94.1606 25.1825C92.6886 26.1419 91.3621 26.1325 89.6732 25.8896C88.4074 25.7076 86.213 23.9902 86.109 22.6822C85.7671 21.8472 85.5095 19.4308 85.9593 18.6637ZM92.5232 23.5149C93.243 22.8486 93.6095 22.3958 93.7977 21.3818C94.1075 19.7122 93.6221 17.2324 91.6708 16.8624C90.0403 16.5534 88.6973 17.8454 88.4789 19.3915C88.333 20.4244 88.3489 21.7375 88.9714 22.62C89.1822 22.9232 89.4265 23.1384 89.6334 23.4295C90.6942 23.9507 91.4264 23.9977 92.5232 23.5149Z" fill="#334155"/>
<path d="M86.109 22.6821C85.7671 21.8471 85.5095 19.4306 85.9593 18.6636C86.047 18.9002 85.7996 21.1031 85.996 21.6754C86.0364 21.7933 86.1857 22.504 86.109 22.6821Z" fill="#334155"/>
<path d="M147.288 14.7758C151.462 14.7607 156.988 14.0869 157.03 20.0801C157.042 21.8387 156.642 23.0936 155.389 24.3681C155.374 24.3835 155.36 24.3987 155.345 24.4137C153.422 26.3221 149.727 25.9286 147.163 25.9169C147.158 25.8694 147.155 25.8216 147.153 25.7738C147.144 25.3277 147.147 24.8729 147.148 24.426C147.153 21.3036 147.12 18.1791 147.156 15.0574C147.157 14.9508 147.216 14.8507 147.288 14.7758ZM149.735 23.8059C150.378 23.7043 151.06 23.7914 151.69 23.7459L151.718 23.6836C153.441 23.4941 154.337 21.875 154.297 20.2738C154.218 17.1791 152.27 16.9112 149.753 16.9364C149.755 19.1398 149.812 21.6251 149.735 23.8059Z" fill="#334155"/>
<path d="M113.762 14.7756C114.335 14.7734 114.899 14.7673 115.483 14.7698C117.639 14.7791 121.859 14.3769 121.618 17.6826C121.514 19.1027 120.651 19.1969 119.826 19.9329C119.91 20.0382 120.244 20.123 120.382 20.1655C121.971 20.6554 122.402 22.3302 121.875 23.7832C121.21 26.502 115.799 25.9259 113.708 25.9136C113.624 24.9558 113.6 15.0952 113.762 14.7756ZM116.326 23.9249C116.699 23.9224 117.604 23.8877 117.911 23.9931C118.533 23.7805 119.134 23.582 119.333 22.8662C119.419 22.5533 119.376 22.2189 119.213 21.9382C118.942 21.4646 118.513 21.2874 118.014 21.1539C117.461 21.1847 116.882 21.1724 116.326 21.1686V23.9249ZM116.325 16.7708V19.202C116.698 19.2003 117.809 19.2208 118.089 19.109C118.449 19.007 118.688 18.6718 118.918 18.391V17.4934C118.331 16.7526 118.384 17.059 117.752 16.7712L116.325 16.7708Z" fill="#334155"/>
<path d="M116.189 16.6276C116.581 16.623 117.357 16.5937 117.709 16.66L117.753 16.771L116.326 16.7706V19.2019C116.699 19.2001 117.81 19.2206 118.09 19.1088L118.06 19.2151C117.695 19.4394 116.674 19.363 116.192 19.3571L116.189 16.6276Z" fill="#334155"/>
<path d="M142.297 14.7754L144.834 14.7816C144.837 14.8307 144.838 14.8799 144.839 14.9291C144.863 17.5894 144.86 22.9193 144.801 25.7534C144.74 25.817 144.686 25.8724 144.639 25.9195C142.125 25.9403 142.512 26.3738 141.113 24.2337L138.533 20.2791C138.328 19.9656 137.448 18.5974 137.238 18.3681C137.282 18.2754 137.288 25.2748 137.287 25.9081C136.581 25.9484 135.522 25.9172 134.79 25.9169C134.789 24.7481 134.704 15.1621 134.846 14.7758C135.191 14.7732 137.377 14.7419 137.437 14.8119C138.943 16.5636 140.392 19.3773 141.82 21.297C142.08 21.6461 142.076 21.8542 142.34 22.0805C142.381 21.6026 142.298 20.3465 142.293 19.7633L142.297 14.7754Z" fill="#334155"/>
<path d="M126.666 14.7756C127.23 14.771 129.059 14.7256 129.514 14.8037C129.655 14.9797 129.828 15.3669 129.905 15.5822C130.67 17.6886 131.434 19.8693 132.183 21.9744C132.373 22.5088 133.45 25.4003 133.499 25.7754L133.369 25.8952C133.074 25.9778 131.559 25.8773 131.13 25.9224C130.319 26.0076 130.424 23.9616 129.912 23.5085C129.837 23.4416 129.711 23.4562 129.587 23.4476C129.202 23.446 126.427 23.3397 126.164 23.584C125.893 23.8358 125.68 25.4883 125.341 25.7952C125.04 26.068 123.753 25.8298 123.299 25.9318C123.06 25.982 122.834 25.9256 122.646 25.7493C122.739 25.1972 123.703 22.8578 123.948 22.1843L125.855 16.8605C125.999 16.4629 126.487 15.0115 126.666 14.7756ZM129.35 21.297C128.967 20.391 128.316 18.3099 128.089 17.3318L128.015 17.3271C127.879 17.6715 127.82 18.1386 127.714 18.3799C127.354 19.1957 127.08 20.7736 126.698 21.5185C127.24 21.2739 129.057 21.6518 129.35 21.297Z" fill="#334155"/>
<path d="M106.873 25.3604C106.539 25.5811 105.804 25.7824 105.403 25.8597C102.695 26.3812 99.4982 25.9573 98.1932 23.1933C97.5641 21.8609 97.492 20.2605 97.8581 18.8475C98.2159 17.4427 99.1158 16.2369 100.361 15.4941C101.613 14.7581 102.677 14.6576 104.111 14.7031C104.631 14.7196 106.591 14.7501 106.881 15.2471C106.913 15.5498 106.949 17.2679 106.848 17.4515C105.122 16.8003 102.838 16.2386 101.31 17.7019C100.09 18.8704 100.016 21.5972 101.057 22.8876C101.197 23.0613 101.569 23.3244 101.755 23.5096L101.785 23.5166C102.038 23.578 102.291 23.713 102.555 23.7993C103.125 23.9852 103.719 23.9169 104.298 23.8425C105.17 23.7309 104.817 22.3464 104.829 21.6183L102.667 21.6159L102.666 19.5266L107.45 19.5267C107.453 20.7147 107.52 23.7113 107.396 25.0796C107.387 25.1701 107.006 25.3077 106.873 25.3604Z" fill="#334155"/>
<path d="M102.666 19.5269L107.45 19.5269C107.452 20.715 107.519 23.7116 107.395 25.0798C107.387 25.1703 107.005 25.308 106.873 25.3606L106.766 25.2998C106.957 25.2258 107.312 25.0373 107.316 24.7998C107.325 24.3059 107.314 23.8077 107.314 23.3129L107.31 19.699L102.77 19.6991L102.769 21.4508L105.023 21.4661V23.7607C103.938 24.2444 102.758 24.12 101.705 23.614L101.754 23.5099L101.784 23.5168C102.037 23.5782 102.29 23.7133 102.555 23.7996C103.124 23.9854 103.718 23.9172 104.298 23.8428C105.169 23.7312 104.816 22.3467 104.829 21.6186L102.666 21.6161L102.666 19.5269Z" fill="#334155"/>
<path d="M82.1209 30.0013C82.4616 29.7154 84.493 29.9017 85.0235 29.8706C85.1034 29.866 85.2025 29.9358 85.2496 30.0013C85.3677 30.4859 86.017 32.167 86.2226 32.7414L88.2137 38.3371C88.4513 38.9965 88.9456 40.2568 89.0897 40.8995C88.3659 40.9063 87.113 40.9479 86.439 40.8846C86.0102 40.5777 85.8259 38.9862 85.4489 38.5069C84.9327 38.4427 82.3387 38.4113 81.8314 38.5386C81.4333 38.6384 81.3268 40.5647 80.8461 40.8647C80.504 40.933 78.4986 40.9415 78.2289 40.8238C78.1531 40.5798 78.4071 40.3833 78.4576 40.1482C78.5675 39.6361 78.758 39.1657 78.9376 38.672L80.6904 33.9367C81.1506 32.6672 81.6265 31.2459 82.1209 30.0013ZM83.617 36.4854C83.9604 36.4874 84.5483 36.558 84.861 36.447C84.6774 35.2328 83.9754 33.6103 83.6286 32.3712C83.2865 33.0779 82.8242 34.7174 82.5927 35.5082C82.5005 35.8237 82.4528 36.1384 82.323 36.4441C82.6112 36.5718 83.2844 36.4887 83.617 36.4854Z" fill="#334155"/>
<path d="M97.9611 29.8608L100.39 29.8609L100.389 40.8958C99.9453 40.902 98.1454 40.952 97.8593 40.845L97.7808 40.7171C97.6545 40.6428 93.3234 34.073 93.0154 33.4914L92.971 33.4291L92.9082 33.4192C92.8413 33.8102 92.8789 35.2994 92.8789 35.7739L92.8802 40.8963L90.4453 40.8961L90.4521 29.861C91.277 29.864 92.1387 29.8174 92.9649 29.8757C93.1547 29.8891 93.1732 29.9434 93.2947 30.0725C93.7303 30.68 97.5363 36.3674 97.6695 36.813C97.7876 36.9648 97.9092 37.1274 98.0396 37.2684C97.8996 34.8314 97.9447 32.309 97.9611 29.8608Z" fill="#334155"/>
<path d="M102.099 29.8769C104.807 29.8067 107.911 29.8715 110.644 29.8711C110.653 30.2151 110.699 31.09 110.585 31.3696C110.119 32.0315 105.646 38.3209 105.323 38.4954L105.233 38.7961C106.458 38.9048 109.304 38.8189 110.645 38.8161L110.647 40.9035L104.459 40.9103C104.08 40.9106 102.04 40.9349 101.797 40.8621C101.723 40.6498 101.744 39.7054 101.771 39.4488C102.199 38.7561 106.345 33.1473 106.68 32.8971C106.679 32.7182 107.222 32.1252 107.368 31.9506C105.698 31.8898 103.783 31.9282 102.095 31.9291L102.099 29.8769Z" fill="#334155"/>
<path d="M78.2781 14.7974H84.6423L84.6426 16.8902H80.8212V19.5259L84.389 19.5251V21.6199L80.8212 21.6189C80.8243 22.1663 80.8895 25.5843 80.7532 25.8129L78.3341 25.8126C78.1821 25.3428 78.2604 15.9554 78.2781 14.7974Z" fill="#334155"/>
<path d="M78.2781 14.7974H84.6423L84.6426 16.8902H80.8212V19.5259L84.389 19.5251V21.6199L80.8212 21.6189C80.8243 22.1663 80.8895 25.5843 80.7532 25.8129C80.6292 25.3925 80.722 22.1443 80.6958 21.4485C81.8164 21.4187 83.0481 21.4422 84.1778 21.44V19.7323H80.6894C80.7556 18.9557 80.7166 17.583 80.7166 16.7623L84.5741 16.7597V14.9601L78.3937 14.9599L78.3976 22.479C78.3978 23.0439 78.4389 25.3919 78.3341 25.8126C78.1821 25.3428 78.2604 15.9554 78.2781 14.7974Z" fill="#334155"/>
<path d="M162.682 14.7756L171.531 14.7754L171.534 16.9366L168.395 16.9363V22.9087L168.393 25.9167L165.789 25.9191V16.9363L162.647 16.9364C162.646 16.4481 162.609 15.1685 162.682 14.7756Z" fill="#334155"/>
<path d="M175.904 12.937C177.604 12.6813 179.19 13.8476 179.453 15.5458C179.715 17.244 178.556 18.8349 176.858 19.1045C175.151 19.3756 173.549 18.2076 173.285 16.4996C173.021 14.7916 174.195 13.1942 175.904 12.937ZM175.114 13.9962C175.763 13.9875 176.695 13.8999 177.235 14.2253C177.39 14.2501 177.605 14.533 177.711 14.6655L177.713 15.5693C177.419 15.8778 177.085 16.0381 176.974 16.2577C177.035 16.3989 177.338 16.735 177.484 17.0088C177.628 17.2781 177.743 17.7853 177.866 17.9C178.928 17.437 178.889 16.5834 178.783 15.5378C178.618 13.8981 176.772 13.1207 175.349 13.7449C174.885 13.9482 174.336 14.4552 174.077 14.904C173.938 15.4969 173.743 16.3823 174.012 16.9843C174.413 17.7875 175.641 18.7861 176.591 18.5908C176.639 18.5809 176.788 18.4567 176.869 18.4292C177.184 18.3215 177.609 18.393 177.782 18.0746L177.708 17.9779C177.543 17.9605 177.084 17.9381 177.02 17.8251C176.675 17.2185 176.701 16.8372 176.161 16.3325L175.962 16.3825C175.515 16.8836 176.251 17.7597 175.547 18.0673C175.296 18.0229 175.385 18.0629 175.185 17.9037C175.049 17.6818 175.113 14.5051 175.114 13.9962ZM176.808 15.6362C176.958 15.4029 176.985 15.3538 177.003 15.0771C176.791 14.5721 176.326 14.6051 175.838 14.6149C175.831 14.9024 175.782 15.4114 175.898 15.6491C176.273 15.897 176.432 15.6714 176.808 15.6362Z" fill="#334155"/>
<path d="M175.113 13.9966C175.763 13.988 176.695 13.9003 177.234 14.2257C176.535 14.2031 175.972 14.1619 175.26 14.169C175.26 14.6757 175.203 17.6016 175.334 17.8421C175.529 17.8753 175.455 17.8863 175.632 17.8014C175.913 17.3927 175.454 16.5188 175.832 16.2826C175.914 16.2908 176.096 16.3021 176.161 16.3329L175.961 16.3829C175.515 16.884 176.251 17.7601 175.546 18.0677C175.296 18.0234 175.384 18.0633 175.185 17.9041C175.048 17.6822 175.113 14.5056 175.113 13.9966Z" fill="#334155"/>
<path d="M158.798 14.7757L161.326 14.7754C161.324 15.9059 161.429 25.64 161.232 25.9194L158.743 25.9144L158.739 18.1125C158.739 17.5445 158.698 15.2001 158.798 14.7757Z" fill="#334155"/>
</svg>
