<svg width="158" height="120" viewBox="0 0 158 120" fill="none" xmlns="http://www.w3.org/2000/svg">
<path d="M15.5188 5.95863C18.653 1.19957 26.2605 -0.408347 31.6359 0.0853529C38.4036 0.715337 40.6846 4.12355 44.395 9.05077C48.416 14.3904 52.4447 8.8474 57.8817 15.5279C58.568 16.2969 58.6576 16.4646 58.8576 17.4752C58.3579 17.7647 56.8332 17.8482 56.8608 17.8141C55.2689 19.7805 52.3843 19.2278 50.3531 19.3457C48.0409 19.48 42.742 18.9874 41.5993 21.2896C41.4311 21.6286 42.4057 24.8456 42.3487 26.0071C44.428 24.5934 58.5297 21.4896 61.7743 20.8952C65.7507 20.167 73.0042 21.5318 77.1138 21.7033C78.2602 21.0237 80.7796 19.7777 81.7662 19.2004C85.8633 16.803 82.4799 16.3957 81.3465 14.5083C79.8824 12.0705 82.5822 11.6563 84.016 10.8499C84.3993 10.6343 84.4904 10.368 84.3414 9.87283C82.5831 6.68177 81.7152 5.302 85.9577 3.2002C93.2704 -0.929108 104.285 6.64511 105.441 6.48674L105.518 6.55879C106.452 7.42089 107.722 8.10976 108.865 9.10384C111.652 11.5288 115.729 15.6288 116.515 19.3535C116.684 20.1556 114.037 23.6525 114.055 23.7541C114.303 25.194 117.324 25.877 115.134 28.3737C114.813 28.7404 113.347 28.5237 112.565 28.6187C112.969 29.9893 116.744 31.72 114.796 34.1035C113.614 34.4141 112.931 33.2581 111.537 33.4684C109.368 37.7164 117.84 39.8157 118.436 42.9526C119.35 47.7645 117.791 53.507 117.716 58.4983C117.549 61.943 115.305 67.0571 115.531 70.6059C115.821 75.1735 124.956 73.7803 126.417 76.7768L126.432 77.2162C123.842 79.9226 123.44 80.104 122.654 84.0559C122.788 84.6878 123.164 85.2422 123.702 85.5997C123.852 85.6979 124 85.759 124.167 85.8175C123.788 84.7217 123.464 83.4504 124.028 82.3512L124.762 81.5265L125.378 81.4992C125.297 82.8204 125.274 83.3698 125.437 84.6741L125.87 84.9601C127.733 83.5584 127.739 81.4431 129.556 80.8008C132.639 79.7106 135.697 77.6379 138.691 76.6018C138.425 76.255 138.501 76.4375 138.071 76.3334C134.526 75.4739 130.127 79.5088 127.412 77.7555L127.296 77.3144L127.632 76.9587C128.106 76.963 129.508 77.0106 129.879 76.9491C130.651 76.821 133.128 75.3889 133.798 75.3773C137.665 75.3096 143.894 76.0723 147.096 73.3009C148.558 72.0356 149.426 69.3465 152.242 69.4419C153.052 69.4695 154.107 69.5454 154.649 70.2689C157.038 73.4613 157.008 74.9561 157.059 78.7812C157.074 79.8777 156.754 81.2809 155.958 81.9907C155.007 82.8388 153.466 82.3166 152.364 82.3229C151.355 82.3286 148.605 81.7298 147.905 82.3273C147.159 82.9635 146.955 84.84 146.083 85.3331L145.634 85.2378C145.07 83.5033 146.647 79.5796 143.377 79.8599C142.119 80.5595 143.013 82.3043 140.449 81.2816C140.169 81.1699 139.977 81.3185 139.681 81.4317C138.641 83.0364 140.145 86.3565 136.111 88.1701L135.771 88.0527C135.68 86.8733 137.032 84.2111 137.888 83.4014L137.972 83.3208C138.03 83.2659 138.073 83.2273 138.134 83.1774L138.142 82.8751C137.469 82.9227 137.199 82.9138 136.583 83.223C135.704 84.6768 133.228 89.0282 132.325 88.8439C129.203 88.2065 125.043 85.4967 122.232 89.581C121.343 90.8735 120.795 92.4052 118.744 92.5201C117.314 92.6851 118.602 93.4471 117.61 93.8256L117.405 93.7973C116.445 94.1671 115.492 94.555 114.547 94.9606C114.435 95.5031 114.491 95.3869 114.71 95.9835C115.177 96.3428 115.063 96.1573 115.188 96.7131C116.978 97.1857 119.145 101.76 118.621 103.252C118.067 103.444 118.267 103.415 117.62 103.118C117.471 102.869 117.331 102.699 117.315 102.414C115.606 101.454 115.901 102.448 114.615 101.967C112.483 101.17 103.176 99.008 101.428 100.75L101.437 101.188C103.857 102.583 109.358 102.484 111.763 105.345C112.289 105.971 113.012 106.103 113.322 107.08L113.878 107.123L114.281 107.953C115.22 108.365 115.75 111.564 115.758 112.579L115.572 112.903C114.71 112.827 114.44 112.478 114.139 111.657C113.518 111.531 111.964 111.801 110.726 111.605L110.578 111.334C108.914 109.757 99.9807 107.682 97.7485 109.172C97.6713 109.224 97.3438 109.896 97.2686 110.042C97.3532 110.955 97.4206 111.692 97.1153 112.582C96.82 114.892 92.9243 118.086 91.1207 119.413L87.5429 119.438L85.6961 118.106C85.5539 116.824 85.7651 110.062 85.486 109.542C84.9537 110.037 85.2729 110.268 84.5408 111.13C84.6267 111.825 84.695 112.077 84.3813 112.715L83.9727 112.725C82.6328 111.768 82.4979 109.366 81.8932 108.107L81.8462 108.012C80.7445 107.019 74.476 102.602 73.1138 102.241L72.7617 102.643C72.4721 102.739 72.3787 102.692 72.0681 102.633C71.2929 101.864 69.4476 98.9184 68.7403 97.8609C67.104 96.3681 62.9935 96.2631 61.8894 93.574C61.276 92.0792 61.9965 90.8357 62.5338 89.4553L61.5745 88.5508C61.3314 87.5885 61.696 87.3019 61.9576 86.1628L61.3993 85.8253L61.0016 86.6814C59.2705 87.1816 57.0882 80.9589 56.0824 79.5564C54.0081 76.6643 51.7554 73.8583 49.3224 71.2649C49.2064 71.1412 47.1684 70.5735 46.7443 70.399C46.6671 69.696 46.2993 65.5217 46.3838 65.0582C47.0353 61.4875 48.5673 57.6039 49.4949 54.061C49.803 52.8847 50.0306 51.4213 49.3969 50.3583C48.444 50.1913 46.6005 50.4094 45.5252 50.4709C42.2667 50.6575 37.9456 50.9421 34.7502 50.4078C33.1382 50.1384 30.0554 46.5985 29.3096 45.0629C29.0154 44.4574 29.0653 44.1826 28.7025 43.633L28.6419 43.543C27.2783 40.6365 26.8721 42.642 25.4522 41.8923C22.4566 36.7821 33.7045 28.1504 33.7895 25.7762C33.8157 25.0459 33.1113 24.3047 32.641 23.7938C28.0907 18.8505 19.3959 19.1315 13.2731 19.8537C11.1137 20.1085 8.77577 20.7192 6.59927 20.6172C4.73409 20.5298 3.48056 20.0016 2.2168 18.6167L2.26809 15.1947C6.29117 9.80162 11.0772 13.0978 15.5146 9.12171L15.5188 5.95863ZM99.2169 89.7964C98.6632 86.8498 97.134 87.2082 95.4924 85.2761C95.1068 84.8224 93.7121 81.5049 93.383 80.7336C92.7295 81.0227 91.2005 83.4201 90.9334 84.1771C90.2551 86.0987 91.3645 87.9053 92.2056 89.5792C92.7965 91.2873 93.0221 92.9077 94.0723 94.3563C95.468 94.7045 99.9755 93.2942 100.946 92.1833C101.193 90.6992 99.5788 91.2342 99.0627 90.0949L99.2169 89.7964ZM67.7947 87.4997L67.5875 86.7101C66.3135 86.4121 65.2136 89.5204 64.3768 90.493C65.1338 90.9993 66.0531 91.6494 66.8811 91.0182L66.8586 90.59L66.0344 90.001C66.7781 89.3443 66.5961 90.2154 67.5041 88.8867L67.8544 88.9927L67.7947 87.4997ZM25.6286 8.13895C24.7187 8.33025 23.5422 8.47613 22.8688 9.07907L22.7715 9.51015C23.6915 10.5935 25.5331 10.7377 26.9265 10.9842C27.7528 10.7834 28.8506 10.6407 29.3369 9.99203C29.4511 9.3102 29.4914 9.56787 29.1097 8.9454C28.3359 8.37773 26.5649 7.9438 25.6286 8.13895ZM137.624 81.0892L137.647 80.332C139.627 79.1706 141.226 79.3442 142.994 78.5396C144.15 78.0135 144.969 76.8689 146.239 76.5225L146.54 76.6551C146.924 77.763 147.138 79.3919 148.122 80.1529L148.359 79.9337C148.267 79.1708 147.71 79.223 147.67 78.4776C148.115 77.9358 148.622 78.1641 148.925 77.457C148.81 76.8568 148.535 74.4131 148.099 74.1C148.077 74.0845 148.053 74.0713 148.031 74.057C147.273 75.609 143.614 76.6927 141.999 77.2478C139.735 78.0256 135.41 78.7693 134.128 80.8794C134.042 81.3935 133.861 82.0089 134.072 82.5036C134.47 82.6477 134.603 82.6668 134.987 82.4706C135.298 82.3118 135.497 81.9709 135.817 81.8168C136.477 81.4985 136.971 81.578 137.624 81.0892ZM110.143 26.7262C110.959 27.5199 113.614 27.5147 114.495 26.9042C113.913 26.6617 110.506 26.5517 110.143 26.7262ZM132.13 80.9177C131.438 81.2866 130.909 81.5712 130.464 82.2425L130.405 82.3286C129.999 82.9375 129.907 83.7517 130.037 84.4665L130.148 84.5554C131.244 83.6204 132.222 82.9432 132.422 81.4146C132.337 81.1875 132.321 81.0731 132.13 80.9177ZM105.672 59.2974L105.041 59.804L105.089 60.0988C105.909 60.5338 106.285 60.0733 107.203 60.2171C107.395 59.4934 108.216 57.3049 108.228 56.9593L107.861 56.6598C106.522 56.949 106.826 58.2301 105.715 59.2582L105.672 59.2974ZM97.1905 21.1651C96.2934 21.7514 95.6127 22.2324 94.8409 22.9807C95.8219 23.1207 96.2606 22.2176 97.7237 22.5651L97.7959 22.9024L97.6316 23.14C97.4637 23.9098 97.2645 24.1208 97.5845 24.6968C98.4718 24.3575 98.9503 23.2209 98.6153 22.3352C98.3531 21.9911 97.6148 21.2401 97.1905 21.1651ZM45.1169 26.7114C45.6761 30.1593 49.9192 27.604 51.785 28.7969C51.9721 28.1782 52.4436 27.1505 52.2196 26.6296C50.7402 26.3851 46.7243 26.618 45.1169 26.7114ZM151.682 72.1734C150.941 74.1165 151.528 77.1387 152.99 78.6634C153.555 78.829 153.722 78.8627 154.307 78.9038C154.312 77.081 154.431 73.9816 153.152 72.6162C152.529 72.2846 152.383 72.2012 151.682 72.1734Z" fill="#39383B"/>
<path d="M64.375 90.4931C65.2117 89.5205 66.3117 86.4122 67.5857 86.7102L67.7928 87.4998L67.8525 88.9928L67.5023 88.8868C66.5942 90.2156 66.7763 89.3444 66.0325 90.0011L66.8567 90.5902L66.8793 91.0183C66.0512 91.6495 65.132 90.9994 64.375 90.4931Z" fill="#B8B9BA" fill-opacity="0.886275"/>
<path d="M15.5188 5.95863C18.653 1.19957 26.2605 -0.408347 31.6359 0.0853529C38.4036 0.715337 40.6846 4.12355 44.395 9.05077C48.416 14.3904 52.4447 8.8474 57.8817 15.5279C57.356 15.2341 56.8248 14.9501 56.2884 14.6761C52.2392 12.6132 46.1532 12.9234 41.9424 14.295C41.4272 14.6965 41.0467 14.7456 40.4216 14.8946L39.239 15.402C36.9304 16.9521 36.2359 16.7226 34.1306 15.0261L33.5352 14.7951C23.4269 10.1957 15.4043 11.7148 4.80601 14.3534C4.78352 15.7922 4.52757 17.8245 5.3907 18.9178C6.12011 19.2652 6.15497 19.2864 7.01304 19.0323C13.8048 17.0205 22.1909 16.4072 29.1186 18.243C30.7483 18.6748 39.6334 24.4979 38.6791 27.251C38.4672 27.8622 35.8533 29.4 35.2556 29.8392C32.0928 31.9251 29.0414 36.4893 28.3528 40.222C28.1595 41.2693 28.5706 42.47 28.6419 43.543C27.2783 40.6365 26.8721 42.642 25.4522 41.8923C22.4566 36.7821 33.7045 28.1504 33.7895 25.7762C33.8157 25.0459 33.1113 24.3047 32.641 23.7938C28.0907 18.8505 19.3959 19.1315 13.2731 19.8537C11.1137 20.1085 8.77577 20.7192 6.59927 20.6172C4.73409 20.5298 3.48056 20.0016 2.2168 18.6167L2.26809 15.1947C6.29117 9.80162 11.0772 13.0978 15.5146 9.12171L15.5188 5.95863ZM26.9265 10.9842C27.7528 10.7834 28.8506 10.6407 29.3369 9.99203C29.4511 9.3102 29.4914 9.56787 29.1097 8.9454C28.3359 8.37773 26.5649 7.9438 25.6286 8.13895C24.7187 8.33025 23.5422 8.47613 22.8689 9.07907L22.7715 9.51015C23.6915 10.5935 25.5331 10.7377 26.9265 10.9842Z" fill="#B8B9BA"/>
<path d="M17.739 6.25807C19.8459 4.68892 21.4332 3.41112 23.9854 2.58712C29.3667 0.849695 36.9764 0.699957 40.7313 5.64144C41.2266 6.29882 41.7692 7.56012 42.1794 8.34964C43.2093 9.03004 46.639 11.1881 45.7786 12.6977C44.7882 12.9223 44.5517 12.8663 43.6366 12.4122C39.8505 10.9009 36.6091 10.6358 32.5731 11.2379C31.4921 11.1611 31.8147 11.3221 30.9871 10.6794C30.4614 8.7328 32.3881 8.4633 32.5893 6.71434C31.7603 4.98595 26.4475 5.57626 24.8556 6.16054C22.9675 6.85354 20.0034 9.78547 18.1068 9.57633C16.9561 8.66223 17.4091 7.51331 17.739 6.25807Z" fill="#39383B"/>
<path d="M32.5723 11.238C36.6083 10.6359 39.8497 10.901 43.6358 12.4122L42.6767 12.7275L43.4419 13.1004C42.5502 13.4072 42.292 13.403 41.9404 14.2952C41.4252 14.6968 41.0447 14.7459 40.4196 14.8949L39.237 15.4023C40.7099 11.027 34.9004 11.9658 32.6374 11.2589L32.5723 11.238Z" fill="#9E9FA2"/>
<path d="M40.421 14.8948C40.3524 13.8089 40.3656 13.5506 40.9578 12.7983C41.6492 12.5265 41.9588 12.6176 42.678 12.7274L43.4432 13.1003C42.5515 13.4071 42.2934 13.4029 41.9418 14.2951C41.4265 14.6967 41.046 14.7458 40.421 14.8948Z" fill="#8A8B8D"/>
<path d="M33.5343 14.7951C33.3319 13.7214 33.3536 14.0617 33.7751 13.0023C35.0179 11.6855 37.8831 12.7181 38.2947 14.2322C37.7284 15.5319 35.3789 15.1062 34.1297 15.0261L33.5343 14.7951Z" fill="#BEC2C7"/>
<path d="M82.7058 101.661C84.1245 100.33 82.5989 98.11 82.7139 96.3032C82.7641 95.5155 82.2247 95.1546 81.7988 94.439L81.9328 94.1007C83.0674 93.958 85.1344 94.8702 86.1477 95.366C88.0001 95.5444 90.956 97.8888 91.1802 99.8498C91.9112 101.735 93.7191 107.831 94.773 108.935C95.4455 109.632 95.1226 109.442 96.1202 109.653C96.5187 109.989 96.6345 110.505 96.786 110.983C97.059 110.583 97.1066 110.498 97.2682 110.042C97.3527 110.955 97.4202 111.692 97.1148 112.582C96.8195 114.892 92.9239 118.086 91.1203 119.413L87.5425 119.438L85.6956 118.106C85.5534 116.824 85.7647 110.062 85.4855 109.542C84.9532 110.037 85.2725 110.268 84.5403 111.13C84.2664 110.618 82.7693 102.502 82.7058 101.661Z" fill="#8A8B8D"/>
<path d="M82.7058 101.661C84.1245 100.33 82.5989 98.11 82.7139 96.3032C82.7641 95.5155 82.2247 95.1546 81.7988 94.439L81.9328 94.1007C83.0674 93.958 85.1344 94.8702 86.1477 95.366C87.0555 98.4796 88.2298 100.948 88.1543 104.306C88.2635 106.659 87.3816 108.849 88.4317 111.086C88.5795 111.401 87.0501 113.429 87.3807 114.344C87.9848 116.015 88.7983 117.731 90.7386 117.64C93.2566 116.065 94.6987 114.582 95.6601 111.917C96.0199 112.078 96.8088 112.404 97.1148 112.582C96.8195 114.892 92.9239 118.086 91.1203 119.413L87.5425 119.438L85.6956 118.106C85.5534 116.824 85.7647 110.062 85.4855 109.542C84.9532 110.037 85.2725 110.268 84.5403 111.13C84.2664 110.618 82.7693 102.502 82.7058 101.661Z" fill="#BEC2C7"/>
<path d="M91.1798 99.8499C91.9108 101.735 93.7187 107.831 94.7726 108.935C94.5625 108.857 94.3103 108.795 94.0911 108.735C92.2262 110.396 93.5585 115.508 89.5519 114.271C89.2905 110.477 91.6025 103.867 91.1798 99.8499Z" fill="#707072"/>
<path d="M69.5074 88.2359C69.3748 87.6366 69.0373 86.6041 69.2935 86.1144C70.6543 86.0428 76.2558 92.2044 76.8642 93.6869C76.9797 93.9681 79.3256 97.9987 79.183 97.8834L79.8707 97.8355C80.6106 98.9282 81.2573 100.421 81.8912 101.62L82.4158 101.575L82.4787 102.669L82.7061 101.661C82.7697 102.502 84.2668 110.618 84.5407 111.131C84.6266 111.825 84.6949 112.077 84.3812 112.716L83.9726 112.725C82.6327 111.768 82.4978 109.366 81.8931 108.107L81.8461 108.012C80.7444 107.02 74.4759 102.602 73.1137 102.241L72.7616 102.643C72.472 102.739 72.3786 102.692 72.068 102.633C71.2928 101.864 69.4475 98.9186 68.7402 97.8611C67.1039 96.3683 62.9933 96.2632 61.8893 93.5741C61.2759 92.0793 61.9964 90.8358 62.5337 89.4554C63.2228 89.9925 63.7257 90.765 64.2402 90.7771L64.3767 90.4931C65.1337 90.9995 66.0529 91.6496 66.881 91.0184L66.8585 90.5902L66.0343 90.0012C66.778 89.3444 66.5959 90.2156 67.504 88.8869L67.8542 88.9928L67.7945 87.4998C68.0413 87.8091 68.2902 88.1165 68.541 88.4225L69.5074 88.2359Z" fill="#BEC2C7"/>
<path d="M64.3767 90.4932C65.1337 90.9995 66.0529 91.6497 66.881 91.0185L66.8585 90.5903L66.0343 90.0012C66.778 89.3445 66.5959 90.2157 67.504 88.887L67.8542 88.9929C67.9814 90.032 68.207 93.0752 68.3681 93.8381C68.4223 94.6145 68.7979 97.2767 68.7402 97.8611C67.1039 96.3684 62.9933 96.2633 61.8893 93.5742C61.2759 92.0794 61.9964 90.8359 62.5337 89.4555C63.2228 89.9926 63.7257 90.7651 64.2402 90.7771L64.3767 90.4932Z" fill="#BEC2C7"/>
<path d="M67.793 87.4998C68.0398 87.809 68.2886 88.1164 68.5395 88.4224L69.5059 88.2358C70.1027 89.7413 70.5814 92.0747 70.9795 93.7115C71.7237 95.8573 72.0446 98.007 72.4663 100.227C72.5557 100.697 72.6641 102.434 72.7601 102.643C72.4704 102.739 72.377 102.692 72.0664 102.633C71.2912 101.864 69.4459 98.9185 68.7386 97.861C68.7963 97.2765 68.4207 94.6143 68.3665 93.8379C68.2054 93.075 67.9798 90.0318 67.8527 88.9928L67.793 87.4998Z" fill="#4C4C4F"/>
<path d="M67.793 87.4998C68.0398 87.809 68.2886 88.1164 68.5395 88.4224L69.5059 88.2358C70.1027 89.7413 70.5814 92.0747 70.9795 93.7115L70.2706 94.0164C70.0917 95.1887 70.9476 95.0518 71.0538 96.6827C70.7596 96.5548 70.1054 96.7155 69.2468 96.4865C69.2231 95.6114 69.1852 92.404 68.6427 91.8425C68.302 92.4539 68.3704 93.1306 68.3665 93.8379C68.2054 93.075 67.9798 90.0318 67.8527 88.9928L67.793 87.4998Z" fill="#5B5B5E"/>
<path d="M69.248 96.4866C70.1067 96.7156 70.7609 96.5549 71.0551 96.6828C71.3203 97.5687 72.0716 100.204 71.9693 101.002L71.6111 100.905C70.7219 99.9944 69.4609 97.7396 69.248 96.4866Z" fill="#8A8B8D"/>
<path d="M79.8694 97.8354C80.6092 98.9281 81.2559 100.421 81.8899 101.619L82.4144 101.575L82.4773 102.669L82.7047 101.661C82.7683 102.502 84.2654 110.618 84.5393 111.13C84.6252 111.825 84.6936 112.077 84.3798 112.716L83.9712 112.725C82.6314 111.768 82.4965 109.366 81.8917 108.107L81.8447 108.012C82.9816 106.415 80.0724 99.5579 79.1816 97.8833L79.8694 97.8354Z" fill="#6E6E6E"/>
<path d="M92.2559 93.2056C92.9864 93.9423 93.9772 96.478 94.89 96.7302L95.0094 96.6566C100.328 93.6984 105.306 93.5029 111.051 94.8052C111.665 95.0919 114.817 96.8661 115.188 96.7132C116.977 97.1858 119.144 101.76 118.62 103.252C118.066 103.444 118.266 103.415 117.619 103.118C117.47 102.87 117.331 102.699 117.315 102.414C115.605 101.454 115.901 102.448 114.614 101.967C112.483 101.171 103.176 99.008 101.428 100.75L101.436 101.188C103.856 102.583 109.357 102.484 111.762 105.346C112.289 105.971 113.012 106.103 113.322 107.081C112.602 106.844 110.829 105.451 109.679 104.917C104.939 102.715 99.7758 102.692 94.6872 103.413C94.3889 102.468 94.1344 101.422 93.8801 100.457C93.8983 100.028 93.3316 98.192 93.1812 97.6609C93.0805 96.2782 92.3361 95.2489 92.2559 93.2056Z" fill="#B8B9BA"/>
<path d="M95.0098 96.6567C100.328 93.6985 105.306 93.503 111.052 94.8053C111.665 95.092 114.818 96.8661 115.188 96.7132C116.978 97.1858 119.145 101.76 118.621 103.252C118.066 103.445 118.267 103.415 117.62 103.118C117.471 102.87 117.331 102.699 117.315 102.414C115.76 97.243 106.183 97.4593 101.966 98.0734C99.9124 98.3726 97.9308 99.7781 96.1441 100.829C95.5457 99.4634 95.8839 97.7974 95.0098 96.6567Z" fill="#39383B"/>
<path d="M99.2157 89.7966C99.5578 89.4571 99.8285 89.2087 100.103 88.811L99.6181 88.2623L99.8528 88.1855L99.9253 88.2277C101.466 89.1057 105.13 89.9123 106.969 90.5723C106.058 90.6413 105.471 90.6356 104.644 91.0282L104.558 91.4682L104.548 91.4033C106.005 91.9716 107.812 92.5151 109.133 93.2575C109.686 93.568 110.524 94.4381 111.051 94.8054C105.305 93.5031 100.327 93.6986 95.0088 96.6568L94.8894 96.7304C93.9765 96.4782 92.9858 93.9424 92.2552 93.2057C91.9223 91.9948 91.388 90.6392 91.6051 89.4502L92.2044 89.5794C92.7953 91.2875 93.0209 92.9079 94.0711 94.3565C95.4668 94.7047 99.9743 93.2944 100.945 92.1835C101.192 90.6994 99.5776 91.2344 99.0615 90.0951L99.2157 89.7966Z" fill="#C2C2C2"/>
<path d="M95.6426 106.819C100.23 105.522 103.923 106.163 108.481 107.39C110.244 107.865 113.554 109.298 114.202 111.088L114.1 111.334L113.443 110.936L113.367 110.976C112.192 111.576 111.875 111.383 110.577 111.334C108.913 109.757 99.9796 107.682 97.7474 109.173C97.6702 109.224 97.3427 109.896 97.2675 110.043C97.106 110.498 97.0583 110.583 96.7853 110.983C96.6338 110.505 96.518 109.989 96.1195 109.653C95.9673 108.714 95.8221 107.751 95.6426 106.819Z" fill="#B8B9BA"/>
<path d="M42.3473 26.0072C41.1866 25.8941 41.0603 25.7371 40.276 24.9246C40.0406 24.2116 40.0171 24.4725 40.2869 23.8331L41.0359 24.2902L41.365 24.1904C41.1998 22.4508 40.0386 21.2123 39.6074 20.0452C40.0595 17.0433 50.7865 17.0489 53.3409 17.0578C55.1417 17.0641 57.0941 17.5272 58.8562 17.4753C58.3565 17.7648 56.8318 17.8483 56.8594 17.8142C55.2675 19.7806 52.3829 19.2279 50.3517 19.3458C48.0395 19.4801 42.7406 18.9875 41.5979 21.2897C41.4297 21.6287 42.4043 24.8457 42.3473 26.0072Z" fill="#BEC2C7"/>
<path d="M111.051 94.8054C110.525 94.4381 109.686 93.5681 109.134 93.2575C107.812 92.5151 106.005 91.9716 104.549 91.4033L104.559 91.4682L104.644 91.0282C105.471 90.6356 106.059 90.6413 106.969 90.5723C107.364 90.5875 108.79 90.6502 109.039 90.8455C110.473 91.9668 111.644 92.5673 113.502 92.3492C114.744 92.2034 117.128 90.8293 118.117 92.287L117.415 92.732L117.46 92.8314C117.661 93.2837 117.693 93.371 117.404 93.7975C116.444 94.1674 115.492 94.5552 114.546 94.9608C114.434 95.5034 114.49 95.3871 114.709 95.9837C115.176 96.3431 115.062 96.1576 115.187 96.7133C114.817 96.8662 111.665 95.0921 111.051 94.8054Z" fill="#BEC2C7"/>
<path d="M79.87 97.8356C79.4286 97.111 77.7332 94.3403 77.6934 93.6314C78.5832 93.5685 79.5439 93.6986 80.4367 93.7925C80.8892 93.2452 81.0597 92.8539 81.6635 92.6375L82.2298 92.9649L82.2735 93.2076L81.2194 93.1962C80.8582 94.4064 83.664 99.8664 82.415 101.575L81.8905 101.62C81.2565 100.421 80.6099 98.9282 79.87 97.8356Z" fill="#707174"/>
<path d="M94.6875 103.413C99.7761 102.691 104.94 102.715 109.679 104.917C110.829 105.451 112.603 106.844 113.322 107.08L113.878 107.123L114.281 107.953C110.499 106.447 107.834 104.398 103.218 103.995C101.509 103.845 95.6316 104.482 94.8251 104.032L94.6875 103.413Z" fill="#4C4C4F"/>
<path d="M93.8789 100.457C93.7614 101.078 93.7133 101.392 93.4599 101.988L93.1794 101.834C92.8187 101.057 91.6987 96.7435 92.0116 96.2107C92.7164 96.7788 91.9402 97.0429 92.5372 97.886L93.1801 97.6609C93.3305 98.192 93.8972 100.028 93.8789 100.457Z" fill="#4C4C4F"/>
<path d="M61.3984 85.8254C61.8405 84.8287 62.9849 82.7121 63.8018 82.0166C64.0082 82.6774 62.6467 85.5037 62.2942 86.2816L62.0818 86.4231L61.9567 86.1629L61.3984 85.8254Z" fill="#B8B9BA"/>
<path d="M101.642 62.0234C101.652 61.2942 101.632 61.0219 101.947 60.3365C102.922 59.33 104.278 59.4072 105.67 59.2976L105.039 59.8042L105.088 60.099C105.907 60.534 106.283 60.0735 107.201 60.2173C106.417 61.5079 105.593 62.8264 104.833 64.1262C103.736 65.6059 99.9642 69.1363 98.3215 69.9457C91.1539 73.4779 83.7654 76.6726 76.7108 80.43C76.4153 80.5872 75.252 80.3892 74.936 80.2924L75.092 78.504C75.6278 77.9339 76.4333 78.0267 77.4104 77.8539C78.0986 77.4909 79.8584 76.9828 80.7865 76.5621C83.5139 75.3346 86.2276 74.0756 88.9586 72.8563C90.2139 72.296 93.2197 71.6244 93.5016 70.1841C92.1772 69.9202 84.1877 74.3477 82.1328 74.8105C80.1899 75.248 72.7177 77.2699 71.121 76.4796L71.0494 76.1337C72.7329 74.9668 74.5427 75.9334 75.5163 74.0244C75.4106 73.2373 75.5366 73.5137 74.9875 72.9162C71.1558 71.1644 68.4529 77.1954 67.7114 77.4233C66.7653 75.814 69.8734 71.3031 71.2315 70.0763L71.3288 70.2226C70.8177 70.96 70.094 71.595 70.5492 72.3974L70.9378 72.3926C71.7123 71.3006 73.1198 70.6838 74.2364 69.7005C76.7935 67.5371 82.0284 64.5021 85.361 64.5901C89.4854 64.7717 93.3797 65.0636 97.4953 64.4224C99.8902 64.0491 100.996 64.9287 101.642 62.0234Z" fill="#A9ACB7"/>
<path d="M101.643 62.0234C101.652 61.2942 101.633 61.0219 101.947 60.3365C102.923 59.33 104.278 59.4072 105.67 59.2976L105.04 59.8042L105.088 60.099C105.907 60.534 106.283 60.0735 107.202 60.2173C106.417 61.5079 105.594 62.8264 104.833 64.1262C103.776 64.1838 103.528 64.8036 102.212 64.2287C101.704 63.5939 101.721 62.8407 101.643 62.0234Z" fill="#BEC2C7"/>
<path d="M70.1094 36.2322C70.1019 31.0097 74.3241 27.2098 77.6327 23.5541C78.592 22.4942 79.8086 21.5049 81.3005 21.4983C81.398 21.4975 81.4958 21.4987 81.5933 21.5019C82.4674 25.732 81.4347 30.3708 81.4005 34.8254C81.3474 41.7191 83.3395 46.0928 84.9419 52.4117C84.6153 52.9822 83.2946 54.9105 82.7855 55.2915C82.173 56.4133 81.3021 57.9051 79.9877 58.0036C79.1804 57.7142 76.7233 55.0625 75.9023 54.2711C72.8256 51.6807 71.3668 50.7986 75.0163 47.3582C76.1023 46.3342 78.8703 43.9693 77.5304 42.4668C76.7757 42.2945 76.4401 42.4752 75.8038 42.8856L75.6746 42.5825C76.0951 41.5813 76.1035 39.2809 76.438 38.8721L77.7416 38.3968L77.9002 38.014C77.0852 36.9074 73.4422 36.6333 71.8533 36.3924C71.2763 36.2997 70.6936 36.2461 70.1094 36.2322Z" fill="#ACB0BB"/>
<path d="M75.9004 54.2711C77.279 54.1881 77.5698 54.2986 78.8497 54.8416C79.1343 54.5156 79.2551 54.3768 79.5928 54.1042C80.44 54.5381 80.1891 55.4997 81.1147 56.0753C82.1812 55.4147 81.3827 55.3053 82.7836 55.2914C82.1711 56.4132 81.3002 57.9051 79.9859 58.0036C79.1785 57.7142 76.7214 55.0624 75.9004 54.2711Z" fill="#9E9FA2"/>
<path d="M41.361 28.0649C40.7955 29.3672 40.0749 29.6331 40.1021 30.3099L39.6563 30.3908C39.1222 31.0553 39.7712 30.9163 39.7338 31.8749C39.6889 33.0209 38.5544 32.785 37.6383 33.6188L37.6958 34.1224L38.0289 34.2735C38.1535 34.1992 38.2812 34.1304 38.412 34.0672C40.1451 33.2317 48.9261 33.1079 50.6465 33.6979C51.0051 34.7657 48.0465 39.7303 47.851 41.4074C47.7245 42.4911 47.7566 43.0202 47.8088 44.109C48.4785 45.1631 49.4741 46.1858 49.8845 47.3491L49.5201 47.8299C48.085 48.2129 48.5257 46.2662 46.8944 45.9429C46.5004 46.4278 46.8322 46.5513 46.7 47.5546L46.3122 47.8064C45.3187 47.6562 45.2597 46.8455 44.474 46.523C41.956 45.4897 42.7848 47.4828 42.3274 48.1906C37.4727 49.4908 34.5038 48.5142 31.7324 43.9265C30.5803 42.0192 30.6402 39.7004 30.5527 37.5322C30.9285 37.0311 32.2636 34.8265 32.6368 34.2037C34.9627 30.3247 37.4157 29.6639 41.361 28.0649Z" fill="#A4A7B2"/>
<path d="M59.5216 58.5819C62.251 58.7849 67.0928 59.43 69.4143 57.7417C70.159 57.2001 70.2973 55.8302 71.2573 55.3525C72.1086 55.4726 72.2886 55.8698 72.928 56.2141C75.1589 57.4148 73.8562 59.5296 73.1078 61.3423C72.8073 64.2497 69.2771 69.717 68.0815 72.5045C67.603 73.6201 66.99 76.0572 66.0236 76.5986C63.662 75.5108 64.0956 67.7026 62.1749 67.2043C61.3805 68.9317 63.3926 75.2674 62.6568 76.729C58.6188 77.3442 57.6818 71.8833 57.2743 68.9064C57.0011 66.9103 58.3323 60.1485 59.5216 58.5819Z" fill="#A9ADB7"/>
<path d="M59.5234 58.5819C62.2529 58.7849 67.0946 59.43 69.4162 57.7417C70.1608 57.2001 70.2991 55.8302 71.2592 55.3525C72.1105 55.4726 72.2905 55.8698 72.9299 56.2141C75.1607 57.4148 73.858 59.5296 73.1097 61.3423C72.3074 61.637 72.6148 62.0706 71.5893 62.486C71.1557 62.3682 70.3951 61.745 70.4352 61.7516C69.462 61.5918 67.7981 62.1526 66.952 61.5934C66.8877 61.551 66.6532 60.9982 66.3762 60.7886C65.7744 61.2083 65.4273 61.5194 64.903 60.9552C63.3366 59.2701 61.9293 61.1411 59.7595 60.1911L59.5234 58.5819Z" fill="#BEC2C7"/>
<path d="M58.7617 23.6047L59.2311 23.7734C60.2843 24.9776 58.6553 31.2962 60.0854 32.5946L60.5478 31.6813L60.8292 31.8429C61.9785 31.5264 61.5055 26.1885 62.8991 24.4766C63.6805 24.3683 63.3813 24.3537 64.1932 24.7035C64.5291 26.8671 62.2989 31.628 64.1955 33.2637C64.9228 33.0219 64.5587 26.7514 66.5494 26.1694C66.9194 26.2745 67.5187 26.9095 67.4207 27.3441C66.963 29.3712 64.1877 36.9645 64.4325 38.6334C65.2635 38.6972 67.9287 36.7929 69.1033 37.157C69.3481 38.5222 63.5898 43.7313 62.4133 44.1048C60.7603 44.2394 59.5203 44.1057 58.2397 45.1432C57.9179 45.4036 57.6171 45.3357 57.2083 45.3387C57.2386 44.3042 60.8378 41.2302 58.2392 39.381C57.7996 39.0684 57.9954 39.1306 57.4758 39.194C57.0021 40.1013 58.038 40.6496 57.9304 41.2639C57.4895 43.7844 55.2837 46.7478 52.6717 44.5022C50.0742 42.2693 52.3173 41.0502 52.1259 39.214L51.173 39.492C51.0271 38.3486 51.6638 39.0869 51.4394 37.9038L50.995 37.734C50.6571 38.0867 50.4848 38.2328 50.0977 38.532C50.1031 36.6252 51.9179 36.8551 51.9869 36.2939C52.6259 31.1053 52.2171 29.6091 54.7585 24.8701C54.8934 27.6754 53.894 30.822 54.8964 32.8072L55.4765 32.8966C57.5098 31.9951 57.5604 26.2619 58.7617 23.6047Z" fill="#A5A9B2"/>
<path d="M98.2822 36.7013C97.3259 38.2458 96.8332 38.9141 95.2958 40.0156C93.5414 41.2723 88.7024 44.6425 86.5948 44.3661C84.6181 43.4706 81.9962 36.1093 82.4109 33.7146L82.5383 33.6843C82.6112 33.9493 82.6871 34.2136 82.7657 34.477C83.2048 35.9418 84.5811 37.6118 86.2191 37.1108C86.935 35.265 83.5883 32.7929 82.9808 31.5751C82.6399 30.892 82.5378 27.6113 82.8708 26.7994C83.7681 26.8138 84.1211 27.9659 84.9858 27.9853C85.0241 26.5139 83.0469 24.1821 84.0867 23.1082C85.072 22.7885 86.8364 23.074 87.9299 23.1813C87.7428 23.8747 87.5653 24.5706 87.3978 25.2691C87.2547 25.8889 87.0164 26.7883 87.3272 27.2834C89.1882 25.8283 88.31 23.3433 92.027 24.6668C92.4887 24.8311 93.9031 25.0795 94.4267 25.185L93.0538 25.6751C92.2018 25.8128 92.4821 25.6592 91.9085 26.2655C91.1786 30.4934 100.547 27.9919 102.452 27.625L102.471 27.8793C101.558 28.5148 100.73 28.9571 99.7616 29.4862L100.501 30.0974C100.417 30.4267 100.486 30.3756 100.268 30.5287C99.4036 31.7736 95.9186 33.0141 94.9492 33.8862C94.1097 34.6005 94.1419 34.8202 93.234 34.9082C92.8763 34.5623 92.8236 34.4303 92.6001 33.9855C92.1389 34.8086 91.9261 35.6674 91.6633 36.5693C93.2509 36.3718 96.7318 35.0955 97.6843 35.4327C97.2094 36.4647 90.9011 40.0077 90.0243 41.1561L90.1038 41.4945C91.5214 41.4708 96.2898 37.6807 98.2822 36.7013Z" fill="#ABAFB9"/>
<path d="M92.5996 33.9854C94.2435 32.828 98.0081 30.4103 99.7611 29.4861L100.501 30.0972C100.417 30.4265 100.486 30.3755 100.268 30.5286C99.4031 31.7734 95.9181 33.014 94.9487 33.886C94.1092 34.6004 94.1414 34.8201 93.2335 34.908C92.8758 34.5621 92.8231 34.4302 92.5996 33.9854Z" fill="#4C4C4F"/>
<path d="M94.9492 33.8859C94.9725 33.041 99.3197 30.423 100.268 30.5285C99.4036 31.7733 95.9186 33.0139 94.9492 33.8859Z" fill="#8A8B8D"/>
<path d="M97.4182 41.9019C97.5468 41.99 97.9779 42.2728 98.0622 42.361L97.6466 42.7384C97.719 43.7781 98.2422 43.1023 98.4708 44.6757C98.9206 47.2502 98.9313 52.4292 99.1906 55.2033C99.2371 55.7003 98.9951 57.4804 98.643 57.5996C95.9309 58.5172 91.0744 59.1536 88.3639 59.8664C86.3411 60.3985 79.4323 62.4791 78.125 62.4427C78.4117 61.6597 93.3708 45.2798 94.9338 44.0124C95.3579 43.7531 96.955 42.3068 97.4182 41.9019Z" fill="#A2A6B0"/>
<path d="M97.4199 41.9019C97.5484 41.99 97.9795 42.2728 98.0638 42.361L97.6482 42.7384C97.7207 43.7781 98.2438 43.1023 98.4724 44.6757C98.0267 45.2916 97.6876 45.6972 97.416 46.4128L97.5126 46.1835C97.4832 46.0903 97.3786 45.7401 97.3 45.6961C95.9246 44.9289 95.9588 45.0421 95.02 46.0128L94.8766 45.7485L95.1122 45.9183C94.7062 45.3099 94.8926 44.8922 94.9354 44.0124C95.3595 43.7531 96.9566 42.3068 97.4199 41.9019Z" fill="#BEC2C7"/>
<path d="M87.7369 3.64775C93.3372 2.1205 99.2518 4.68896 104.198 7.03986C106.208 8.55471 108.281 10.1389 110.09 11.8902C108.347 11.8791 107.107 11.8667 105.376 12.2708L103.525 13.8217L103.091 16.1676C102.028 15.2427 98.9052 11.6099 98.4338 11.3594C97.5366 11.9474 98.4212 12.2649 97.3972 12.3086C96.0407 11.7445 95.1905 11.0338 93.981 10.28C93.4826 9.77049 93.2914 9.98222 92.4834 9.56253L92.3052 8.93881C91.667 8.09797 88.1311 11.0862 86.8721 10.3725C83.6503 8.54583 85.2429 5.10028 87.7369 3.64775Z" fill="#B7BBC6"/>
<path d="M89.3698 16.8928C87.2992 16.7632 82.8899 15.8111 82.3809 13.4578C83.4518 9.96832 94.535 13.9645 94.9467 14.7216C95.1516 17.0405 95.1497 16.6036 96.7952 18.4101C95.7217 18.1784 92.13 17.4709 91.3272 17.1763C90.7861 17.2294 89.9293 17.0079 89.3698 16.8928Z" fill="#AFB3BD"/>
<path d="M89.3691 16.8926C90.2954 15.8807 91.9746 16.2026 93.1746 16.6457L93.3812 16.9168C92.5739 17.1662 92.1624 17.1518 91.3265 17.1762C90.7854 17.2292 89.9286 17.0078 89.3691 16.8926Z" fill="#9E9FA2"/>
<path d="M97.418 41.9018C99.0219 40.401 101.199 39.0846 102.709 37.2943C102.945 37.0144 103.364 37.0491 103.705 37.0591C104.824 38.1027 103.864 40.1305 105.811 40.9231C107.491 40.6897 106.798 39.4745 107.844 39.0078C108.041 39.2642 108.031 39.3531 108.061 39.6791L108.246 39.6119L108.364 39.1391L108.717 39.2806C109.147 40.4557 107.802 43.2544 107.318 44.5211L106.899 44.8634C105.08 44.6034 102.926 43.6566 101.113 43.1314C100.331 42.9046 98.6681 42.5888 98.0619 42.3609C97.9776 42.2728 97.5465 41.99 97.418 41.9018Z" fill="#BEC2C7"/>
<path d="M115.619 73.0208C117.983 75.6463 120.114 75.3081 123.425 76.0945C121.879 77.0258 120.745 77.6344 119.567 79.0447C118.122 79.0989 114.219 78.8013 113.716 77.2042C114.106 76.164 115.051 76.2121 115.655 74.9417L115.482 74.6293C114.313 74.4885 113.234 75.2331 112.195 75.8003C111.15 76.5429 109.34 77.8609 108.05 77.3384L107.887 76.9153C108.166 75.8181 109.145 75.3197 110.081 74.6762C111.181 73.8488 114.104 73.3787 115.619 73.0208Z" fill="#B8B9BA"/>
<path d="M41.3613 28.065C42.5517 27.6368 43.925 26.7586 45.1161 26.7117C45.6753 30.1596 49.9185 27.6042 51.7843 28.7971C50.8393 30.0197 49.1474 29.5443 47.6056 29.838C46.0793 30.1288 42.0982 32.6999 41.0826 32.1217C40.8037 31.6172 40.3281 30.809 40.1023 30.31C40.0752 29.6332 40.7957 29.3673 41.3613 28.065Z" fill="#BEC2C7"/>
<path d="M115.707 55.4043L115.993 55.8024C116.182 58.2246 116.045 62.5535 114.7 64.5877C114.239 64.9563 113.077 64.8597 112.424 64.8604C111.768 64.0784 113.764 58.4432 114.192 57.338C114.32 57.0074 115.408 55.7466 115.707 55.4043Z" fill="#BEC2C7"/>
<path d="M97.5299 73.2473L97.6849 73.3925C97.6466 73.4832 97.6024 73.5682 97.5482 73.6506C97.3075 74.0168 87.8441 80.4653 86.901 80.8682C85.5547 81.4431 83.8129 81.519 82.3561 81.7797L82.2285 81.6741C82.7039 80.7784 95.6224 74.1499 97.5299 73.2473Z" fill="#9E9FA2"/>
<path d="M94.4257 25.185L94.4917 25.2107C96.1251 25.8333 97.516 25.8679 99.223 25.9771C100.47 26.0566 103.817 24.5531 104.331 24.9797C104.049 27.1959 94.8504 28.626 93.2398 26.722C93.1799 26.6511 93.0794 25.8524 93.0527 25.6751L94.4257 25.185Z" fill="#BEC2C7"/>
<path d="M45.1152 26.7116C46.7226 26.6182 50.7386 26.3853 52.2179 26.6298C52.4419 27.1507 51.9705 28.1784 51.7834 28.797C49.9176 27.6042 45.6744 30.1595 45.1152 26.7116Z" fill="#B8B9BA" fill-opacity="0.580392"/>
<path d="M50.0172 63.562C50.7382 64.2085 51.6898 69.3194 51.4389 70.2156L51.0987 70.3805C50.3864 69.8963 49.6818 68.836 49.144 68.1148C48.9893 66.1069 48.763 65.055 50.0172 63.562Z" fill="#B8B9BA"/>
<path d="M87.7383 11.2966C90.0525 10.8451 90.9018 10.7558 92.3034 8.93872L92.4816 9.56244C93.2896 9.98213 93.4808 9.7704 93.9792 10.2799C91.4696 10.314 93.2005 10.8796 92.454 12.1883C91.2413 12.5255 88.9761 11.6961 87.7383 11.2966Z" fill="#B8B9BA"/>
<path d="M105.67 59.2975L105.713 59.2583C106.824 58.2302 106.52 56.9491 107.859 56.6599L108.227 56.9593C108.214 57.305 107.393 59.4935 107.201 60.2172C106.283 60.0734 105.907 60.5339 105.087 60.0989L105.039 59.8041L105.67 59.2975Z" fill="#B8B9BA" fill-opacity="0.615686"/>
<path d="M74.9369 80.2921C74.9244 80.012 74.8804 78.7287 74.72 78.5967C73.7545 77.8037 70.0343 79.6668 69.4785 78.2492C70.2373 77.7511 76.2763 77.7504 77.4113 77.8536C76.4342 78.0264 75.6287 77.9336 75.093 78.5037L74.9369 80.2921Z" fill="#6E6E6E"/>
<path d="M51.2098 45.0981C52.0531 45.375 52.8174 46.6641 52.7347 47.5466C51.1423 47.9853 50.9582 46.2243 51.2098 45.0981Z" fill="#B8B9BA"/>
<path d="M73.5958 39.6063L73.8191 39.5327L74.005 39.7091C73.4422 40.5089 72.7267 41.0604 71.9834 41.6886L71.7956 41.6797C71.3861 41.1695 71.4506 41.3955 71.4907 40.7883C71.9462 40.2052 72.8803 39.9069 73.5958 39.6063Z" fill="#9E9FA2"/>
<path d="M56.2177 25.3372C56.2995 25.4112 56.4852 25.7273 56.5542 25.8366C56.5615 27.316 56.3836 29.0182 55.8087 30.3881L55.6934 30.3888C55.695 29.1923 55.8433 26.4056 56.2177 25.3372Z" fill="#8A8B8D"/>
<path d="M19.214 48.0037C18.7054 47.2009 18.4796 47.1389 18.4814 46.3108C19.6827 45.0275 23.9929 46.5457 25.0889 47.5816C25.3692 47.8469 25.5638 48.0786 25.8972 48.3423C29.1249 51.2576 26.5502 53.4741 28.1244 55.7011C30.0259 56.8206 36.6403 52.6839 41.092 56.5998C42.6392 56.8623 44.7971 59.0683 44.587 60.7892L44.2482 61.2502C43.5803 61.2142 43.5249 61.0289 42.9555 60.3977C42.8794 60.3132 42.8039 60.2279 42.7294 60.142C41.9989 58.5132 38.9577 57.2328 37.1015 58.3863C37.0726 58.9154 37.0067 58.7434 37.3014 59.1358L37.0967 59.2157L37.2496 59.4994L37.5424 59.2328L37.8984 59.4024L38.0684 59.9554C37.4376 60.7605 36.3582 60.3289 35.3171 61.2066C34.8354 61.404 34.2315 62.2667 33.7398 62.7577C34.4008 63.1647 34.4837 63.6387 34.741 64.3717C34.6319 65.5532 33.7733 66.4474 32.5831 66.5675C31.3683 66.1865 31.9508 65.1928 30.7485 64.6274C29.5082 64.9414 28.44 64.7714 27.6625 65.7661L28.2203 66.1396C28.5104 68.1197 26.5161 67.6355 25.9304 69.2516L26.0416 69.6613L25.3471 69.4658C24.0797 70.3118 24.4896 72.7405 23.0778 72.941C22.4511 72.2059 22.4983 70.8587 21.8773 69.7235C19.5451 68.5165 16.6092 68.6447 14.0358 68.7297L12.8587 68.7448C14.7209 69.7016 13.9925 69.5191 14.6849 71.0536C10.9459 71.1768 7.89522 71.9787 4.2667 72.7892C3.84756 72.8827 3.25439 72.9513 2.87925 72.7197C2.54556 72.7259 2.36518 72.5794 2.07034 72.4119C0.135157 68.2665 -1.44493 62.5989 2.15226 58.9801C5.31716 55.7963 9.77223 52.8151 14.4043 52.5216C16.1485 52.4109 18.4329 52.9673 20.3424 52.8967C21.3147 51.4342 20.2116 50.8062 20.1638 48.4744L19.214 48.0037ZM27.114 65.1483C23.5296 62.0249 20.1922 61.4124 15.5161 61.5899C14.1611 61.6414 12.2858 62.6354 11.2645 63.55C11.121 63.6786 11.2414 64.1336 11.2737 64.3749C15.3542 64.992 19.2347 65.9197 23.2958 66.1908C24.048 66.241 24.0558 66.578 25.1163 66.4998C25.7623 65.4657 26.1298 66.117 27.114 65.1483Z" fill="#39383B"/>
<path d="M19.214 48.0037C18.7054 47.2009 18.4796 47.1389 18.4814 46.3108C19.6827 45.0275 23.9929 46.5457 25.0889 47.5816C25.3692 47.8469 25.5638 48.0786 25.8972 48.3423C29.125 51.2576 26.5503 53.4741 28.1244 55.7011C30.0259 56.8206 36.6403 52.6839 41.092 56.5998C39.5655 56.9231 36.0276 55.6906 34.0485 56.3448C32.7296 56.7807 30.6157 58.32 29.209 58.5957C26.9497 57.7738 24.9021 56.3425 22.6993 55.2971C15.8074 52.0262 7.91596 55.1515 3.42179 60.889C0.256406 64.93 4.63423 65.7962 5.18096 67.7823C4.42432 68.8384 1.07767 67.9402 3.01071 72.0366L2.87925 72.7197C2.54556 72.7259 2.36518 72.5794 2.07034 72.4119C0.135157 68.2665 -1.44493 62.5989 2.15226 58.9801C5.31716 55.7963 9.77223 52.8151 14.4043 52.5216C16.1485 52.4109 18.4329 52.9673 20.3424 52.8967C21.3147 51.4342 20.2116 50.8062 20.1638 48.4744L19.214 48.0037Z" fill="#BEC2C7"/>
<path d="M19.2131 48.0037C18.7045 47.2009 18.4787 47.1389 18.4805 46.3108C19.6818 45.0275 23.992 46.5457 25.088 47.5816C25.3683 47.8469 25.5629 48.0786 25.8963 48.3423L25.6472 48.3145L25.492 48.5499C26.4258 50.2541 27.8398 52.8566 26.9894 54.7907C26.3768 55.3374 26.6448 55.2226 25.9017 55.3684C25.0495 54.5549 24.29 50.2764 23.9844 48.8914C21.9881 48.0675 21.2912 47.9948 19.2131 48.0037Z" fill="#39383B"/>
<path d="M6.69727 67.2766C6.80291 67.1043 6.91226 66.9343 7.02531 66.7668C8.15401 65.0735 11.5619 61.0796 13.4028 60.1807C16.9886 58.43 22.9711 59.2797 26.555 60.963C27.7001 61.5008 30.6414 63.3752 31.5244 63.1986C31.634 62.4986 31.7235 62.088 31.9065 61.4094C32.6517 60.8001 36.0797 58.9595 37.1026 58.3862C37.0737 58.9153 37.0078 58.7433 37.3025 59.1357L37.0978 59.2157L37.2507 59.4994L37.5436 59.2328L37.8995 59.4023L38.0695 59.9553C37.4387 60.7604 36.3593 60.3288 35.3182 61.2066C34.8365 61.4039 34.2326 62.2666 33.7409 62.7577C34.4019 63.1646 34.4849 63.6386 34.7421 64.3717C34.633 65.5532 33.7744 66.4473 32.5842 66.5674C31.3694 66.1864 31.9519 65.1927 30.7496 64.6273C29.5093 64.9414 28.4411 64.7714 27.6636 65.766L27.1151 65.1483C23.5307 62.0249 20.1934 61.4123 15.5172 61.5898C14.1622 61.6413 12.2869 62.6353 11.2656 63.55C11.1221 63.6785 11.2425 64.1336 11.2748 64.3749C15.3553 64.9919 19.2358 65.9196 23.2969 66.1908C24.0491 66.2409 24.0569 66.5779 25.1174 66.4998C24.5719 67.3627 23.5273 68.2598 22.4793 68.1664C19.8641 65.861 9.99975 66.3972 6.69727 67.2766Z" fill="#BEC2C7"/>
<path d="M33.7393 62.7578C34.4003 63.1648 34.4833 63.6388 34.7405 64.3718C34.6314 65.5533 33.7728 66.4475 32.5826 66.5676C31.3679 66.1866 31.9503 65.1928 30.748 64.6275L31.2993 64.4067L31.7552 64.7416C32.4521 64.6095 33.3569 63.2623 33.7393 62.7578Z" fill="#39383B"/>
<path d="M12.8584 68.7446C14.7205 69.7015 13.9921 69.5189 14.6846 71.0534C10.9456 71.1767 7.89488 71.9785 4.26636 72.7891C3.84721 72.8825 3.25405 72.9511 2.87891 72.7196L3.01036 72.0364C3.62283 72.0346 7.39343 69.9434 8.19175 69.7267C9.62708 69.3373 11.4053 69.0324 12.8584 68.7446Z" fill="#BEC2C7"/>
<path d="M14.0371 68.7298C16.6105 68.6448 19.5464 68.5165 21.8786 69.7235C22.4995 70.8588 22.4524 72.2059 23.079 72.941C24.4909 72.7405 24.081 70.3119 25.3484 69.4658L26.0429 69.6613C26.8815 70.1923 29.9584 72.0056 30.8735 72.4807C34.9018 75.0978 37.1768 78.3094 37.0041 82.9946C36.9822 83.5853 37.3448 83.9196 36.8765 84.5811C36.6935 87.3346 35.2256 92.1049 33.9078 94.5337C32.804 96.5686 28.9036 99.954 26.5027 99.8948C25.6965 99.5181 25.9593 99.7401 25.4691 98.9482C25.5646 98.0292 25.401 95.6696 26.1172 95.4037C27.5311 94.1267 28.5704 91.4853 29.134 89.6997C29.1955 89.2818 29.2107 88.9464 29.2294 88.4997C29.3566 85.4659 28.539 80.8039 26.3494 78.6248C25.921 78.1987 23.7788 77.263 23.3907 76.7266C22.6356 75.6652 22.6005 74.1278 21.5682 73.2471C20.6852 72.4935 19.1779 72.5375 18.407 71.6388C18.242 71.0953 17.4238 70.2203 17.0232 69.7461L17.0701 69.6445C15.704 68.7088 15.648 69.1655 14.0371 68.7298Z" fill="#39383B"/>
<path d="M14.0371 68.7298C16.6105 68.6448 19.5464 68.5165 21.8786 69.7235C22.4995 70.8588 22.4524 72.2059 23.079 72.941C24.4909 72.7405 24.081 70.3119 25.3484 69.4658L26.0429 69.6613C26.8815 70.1923 29.9584 72.0056 30.8735 72.4807C29.0968 72.3777 22.9459 70.4358 25.9579 75.7281C26.5292 76.7319 29.3254 77.2414 30.0028 78.2595C30.0739 78.3409 30.5265 78.8659 30.5663 78.8966C32.4191 81.5875 33.5437 86.8668 32.2904 89.9802C30.5768 94.3535 29.1371 94.165 26.5198 97.385C25.6952 96.9375 26.1573 96.1208 26.1172 95.4037C27.5311 94.1267 28.5704 91.4853 29.134 89.6997C29.1955 89.2818 29.2107 88.9464 29.2294 88.4997C29.3566 85.4659 28.539 80.8039 26.3494 78.6248C25.921 78.1987 23.7788 77.263 23.3907 76.7266C22.6356 75.6652 22.6005 74.1278 21.5682 73.2471C20.6852 72.4935 19.1779 72.5375 18.407 71.6388C18.242 71.0953 17.4237 70.2203 17.0232 69.7461L17.0701 69.6445C15.704 68.7088 15.648 69.1655 14.0371 68.7298Z" fill="#BEC2C7"/>
<path d="M30.5639 78.8965C32.4167 81.5874 33.5413 86.8667 32.288 89.9801C30.5744 94.3533 29.1347 94.1649 26.5174 97.3849C25.6928 96.9374 26.1549 96.1207 26.1148 95.4036C27.5287 94.1266 28.568 91.4851 29.1315 89.6995C29.3833 90.0965 29.2345 89.9757 29.7151 90.1336C31.1564 88.7792 30.4031 81.4864 30.5639 78.8965Z" fill="#BCBCBC"/>
<path d="M32.2881 89.9802C33.0893 91.7532 32.0588 92.435 32.7329 93.4996C33.7081 92.3493 36.032 86.2356 36.5096 84.5706L36.8742 84.581C36.6912 87.3346 35.2232 92.1048 33.9055 94.5337C32.8017 96.5686 28.9012 99.954 26.5004 99.8948C25.6942 99.5181 25.9569 99.7401 25.4668 98.9482C25.5623 98.0292 25.3987 95.6696 26.1149 95.4037C26.155 96.1208 25.6928 96.9375 26.5175 97.385C29.1348 94.165 30.5745 94.3534 32.2881 89.9802Z" fill="#4C4C4F"/>
<path d="M32.5049 78.7282C31.7816 78.2036 28.9439 75.5595 29.5647 74.5491C31.4168 74.2355 33.6442 77.1122 34.3189 78.6006C34.7728 79.5631 34.8619 81.8193 34.7002 82.8681L34.4673 82.9201C33.8406 82.0022 33.0971 79.9106 32.5049 78.7282Z" fill="#B8B9BA"/>
<path d="M34.318 78.6006C34.7719 79.5631 34.861 81.8192 34.6992 82.8681L34.4663 82.9201C33.8397 82.0022 33.0961 79.9106 32.5039 78.7282C33.1875 78.9328 33.4163 79.3277 33.8522 79.8826C34.2665 79.5362 34.2002 79.229 34.318 78.6006Z" fill="#9E9FA2"/>
<path d="M6.10402 35.8441L5.16082 36.0232C4.71721 35.5402 4.21751 35.1195 4.16602 34.4776C4.74569 33.416 6.05521 33.1607 7.1826 32.296C11.1681 32.1818 21.5548 35.6051 20.2733 40.827L19.8766 41.1658C19.046 40.9874 19.051 40.909 18.675 40.1026C18.6506 37.6801 13.1099 35.4176 11.0309 35.2034C9.44388 35.1598 7.49099 34.973 6.10402 35.8441Z" fill="#39383B"/>
<path d="M11.033 35.2034C13.112 35.4176 18.6528 37.6801 18.6772 40.1026C17.3104 39.3526 16.519 40.1903 14.9398 39.5304C14.6925 39.4272 13.3243 38.4537 13.0255 38.2466C11.8614 37.3091 11.475 37.5734 10.4343 36.8798C10.3589 36.1565 10.6353 35.9556 11.033 35.2034Z" fill="#B8B9BA" fill-opacity="0.482353"/>
<path d="M37.1009 58.3865C38.9571 57.233 41.9982 58.5134 42.7288 60.1422L42.4772 60.2254L41.6892 59.6432L41.4652 59.9203L41.8066 60.4835C40.7885 61.3809 37.7794 60.6376 35.3164 61.2068C36.3575 60.3291 37.437 60.7606 38.0677 59.9556L37.8977 59.4025L37.5418 59.233L37.249 59.4996L37.0961 59.2159L37.3007 59.1359C37.0061 58.7435 37.0719 58.9156 37.1009 58.3865Z" fill="#B8B9BA" fill-opacity="0.792157"/>
<path d="M6.10571 35.8442C7.49268 34.973 9.44557 35.1599 11.0326 35.2034C10.6348 35.9556 10.3585 36.1566 10.4338 36.8798C11.4745 37.5735 11.861 37.3091 13.025 38.2466C11.1831 37.7943 6.98902 37.5516 6.23591 37.1211C5.95634 36.6485 6.03584 36.3988 6.10571 35.8442Z" fill="#B8B9BA" fill-opacity="0.301961"/>
<path d="M12.8574 68.7448L14.0346 68.7297C15.6454 69.1654 15.7015 68.7088 17.0676 69.6444L17.0206 69.746C17.4212 70.2202 18.2395 71.0952 18.4045 71.6387C17.2597 71.2039 15.8988 71.0551 14.6836 71.0535C13.9912 69.5191 14.7196 69.7016 12.8574 68.7448Z" fill="#B8B9BA" fill-opacity="0.796078"/>
<path d="M124.027 82.3513C124.282 81.2079 124.504 79.4155 125.986 79.3872L126.176 79.848C126.057 80.6646 125.87 80.8608 125.377 81.4993L124.761 81.5267L124.027 82.3513Z" fill="#4C4C4F"/>
</svg>
