<svg width="158" height="54" viewBox="0 0 158 54" fill="none" xmlns="http://www.w3.org/2000/svg">
<g>
<!-- Bandit icon/mascot -->
<path d="M15.5188 5.95863C18.653 1.19957 26.2605 -0.408347 31.6359 0.0853529C38.4036 0.715337 40.6846 4.12355 44.395 9.05077C48.416 14.3904 52.4447 8.8474 57.8817 15.5279C58.568 16.2969 58.6576 16.4646 58.8576 17.4752C58.3579 17.7647 56.8332 17.8482 56.8608 17.8141C55.2689 19.7805 52.3843 19.2278 50.3531 19.3457C48.0409 19.48 42.742 18.9874 41.5993 21.2896C41.4311 21.6286 42.4057 24.8456 42.3487 26.0071C44.428 24.5934 58.5297 21.4896 61.7743 20.8952C65.7507 20.167 73.0042 21.5318 77.1138 21.7033C78.2602 21.0237 80.7796 19.7777 81.7662 19.2004C85.8633 16.803 82.4799 16.3957 81.3465 14.5083C79.8824 12.0705 82.5822 11.6563 84.016 10.8499C84.3993 10.6343 84.4904 10.368 84.3414 9.87283C82.5831 6.68177 81.7152 5.302 85.9577 3.2002C93.2704 -0.929108 104.285 6.64511 105.441 6.48674L105.518 6.55879C106.452 7.42089 107.722 8.10976 108.865 9.10384C111.652 11.5288 115.729 15.6288 116.515 19.3535Z" fill="#39383B"/>
<!-- Text: FOG BANDIT -->
<text x="80" y="20" font-family="Arial, sans-serif" font-weight="bold" font-size="13.5" fill="#39383B" letter-spacing="0.3">FOG BANDIT<tspan font-size="7" baseline-shift="super">®</tspan></text>
<!-- Text: ANZ -->
<text x="80" y="30" font-family="Arial, sans-serif" font-weight="600" font-size="10" fill="#39383B" letter-spacing="1.5">ANZ</text>
</g>
</svg>
