<svg width="129" height="36" viewBox="0 0 129 36" fill="none" xmlns="http://www.w3.org/2000/svg">
<path d="M4.6447 1.79601C5.58262 0.361564 7.85915 -0.123081 9.46776 0.0257264C11.493 0.215611 12.1756 1.24289 13.2859 2.72802C14.4892 4.33744 15.6948 2.66672 17.3218 4.68031C17.5272 4.9121 17.554 4.96264 17.6139 5.26724C17.4643 5.3545 17.0081 5.37967 17.0163 5.36939C16.54 5.9621 15.6767 5.7955 15.0689 5.83105C14.377 5.87152 12.7913 5.72305 12.4493 6.41696C12.399 6.51913 12.6906 7.48878 12.6736 7.83886C13.2958 7.41275 17.5158 6.47723 18.4867 6.29809C19.6766 6.07858 21.8473 6.48997 23.0771 6.54166C23.4201 6.33681 24.174 5.96124 24.4693 5.78723C25.6954 5.06462 24.6829 4.94186 24.3437 4.37299C23.9056 3.6382 24.7135 3.51337 25.1425 3.2703C25.2572 3.20531 25.2845 3.12504 25.2399 2.9758C24.7138 2.01397 24.454 1.59809 25.7236 0.96458C27.912 -0.280045 31.208 2.00292 31.554 1.95518L31.577 1.9769C31.8566 2.23675 32.2366 2.44438 32.5785 2.74401C33.4128 3.47493 34.6326 4.71071 34.8679 5.8334C34.9186 6.07516 34.1265 7.12916 34.1316 7.15979C34.206 7.5938 35.1101 7.79964 34.4547 8.5522C34.3584 8.66271 33.9198 8.59739 33.6857 8.62603C33.8068 9.03916 34.9364 9.5608 34.3536 10.2792C33.9998 10.3728 33.7953 10.0244 33.3783 10.0878C32.7292 11.3682 35.2646 12.001 35.4429 12.9464C35.7164 14.3968 35.2498 16.1277 35.2275 17.6321C35.1772 18.6704 34.5059 20.2118 34.5734 21.2815C34.6603 22.6582 37.3939 22.2383 37.8311 23.1415L37.8357 23.2739C37.0605 24.0897 36.9401 24.1443 36.705 25.3355C36.745 25.526 36.8577 25.6931 37.0187 25.8008C37.0634 25.8304 37.1078 25.8488 37.1578 25.8665C37.0445 25.5362 36.9475 25.153 37.1163 24.8217L37.3358 24.5731L37.5202 24.5649C37.496 24.9631 37.4889 25.1287 37.5378 25.5218L37.6674 25.608C38.2248 25.1856 38.2268 24.548 38.7704 24.3544C39.6929 24.0258 40.608 23.4011 41.5041 23.0888C41.4245 22.9842 41.4472 23.0392 41.3185 23.0078C40.2577 22.7488 38.9414 23.9649 38.1288 23.4365L38.094 23.3035L38.1947 23.1963C38.3364 23.1976 38.7561 23.212 38.867 23.1934C39.0981 23.1548 39.8395 22.7232 40.04 22.7197C41.1971 22.6993 43.061 22.9291 44.0193 22.0938C44.4569 21.7124 44.7165 20.9019 45.5593 20.9307C45.8018 20.939 46.1174 20.9619 46.2794 21.1799C46.9944 22.1422 46.9854 22.5927 47.0008 23.7456C47.0052 24.0761 46.9095 24.4991 46.6713 24.713C46.3868 24.9687 45.9256 24.8112 45.5958 24.8132C45.2939 24.8149 44.4709 24.6344 44.2613 24.8145C44.0381 25.0062 43.9771 25.5718 43.7162 25.7205L43.5818 25.6918C43.4129 25.1689 43.885 23.9863 42.9063 24.0708C42.53 24.2816 42.7973 24.8075 42.0302 24.4993C41.9464 24.4656 41.8889 24.5104 41.8004 24.5446C41.4892 25.0282 41.9392 26.0289 40.732 26.5756L40.6304 26.5402C40.6031 26.1847 41.0076 25.3823 41.2639 25.1382L41.289 25.1139C41.3062 25.0974 41.3193 25.0858 41.3374 25.0707L41.34 24.9796C41.1384 24.9939 41.0575 24.9913 40.8732 25.0845C40.6103 25.5227 39.8694 26.8342 39.599 26.7787C38.6649 26.5866 37.4199 25.7698 36.5789 27.0009C36.3127 27.3904 36.1487 27.8521 35.5351 27.8867C35.107 27.9364 35.4924 28.1661 35.1955 28.2802L35.1341 28.2717C34.8469 28.3832 34.5619 28.5001 34.279 28.6223C34.2455 28.7858 34.2622 28.7508 34.3278 28.9306C34.4675 29.0389 34.4333 28.983 34.4708 29.1505C35.0065 29.293 35.6549 30.6717 35.4981 31.1215C35.3323 31.1794 35.3921 31.1706 35.1985 31.0811C35.154 31.0061 35.1122 30.9546 35.1074 30.8689C34.5957 30.5796 34.6843 30.8791 34.2993 30.7341C33.6614 30.4941 30.8762 29.8423 30.3532 30.3672L30.3558 30.4993C31.08 30.9198 32.7261 30.8899 33.4459 31.7525C33.6033 31.9411 33.8197 31.9808 33.9125 32.2754L34.0788 32.2881L34.1994 32.5385C34.4802 32.6626 34.639 33.6269 34.6413 33.9327L34.5857 34.0304C34.3278 34.0074 34.2469 33.9024 34.1569 33.6549C33.9712 33.6167 33.5061 33.6983 33.1355 33.6392L33.0913 33.5574C32.5934 33.0822 29.92 32.4566 29.252 32.9059C29.2289 32.9214 29.1309 33.1239 29.1084 33.1681C29.1337 33.4434 29.1539 33.6655 29.0625 33.9335C28.9742 34.6299 27.8084 35.5926 27.2687 35.9927L26.198 36L25.6453 35.5986C25.6028 35.2121 25.666 33.174 25.5824 33.0172C25.4232 33.1666 25.5187 33.2363 25.2996 33.4961C25.3253 33.7054 25.3458 33.7813 25.2519 33.9739L25.1296 33.9767C24.7286 33.6883 24.6883 32.9642 24.5073 32.5849L24.4932 32.5561C24.1635 32.257 22.2877 30.9255 21.8801 30.8167L21.7747 30.9377C21.688 30.9667 21.6601 30.9526 21.5671 30.9348C21.3352 30.7031 20.783 29.8153 20.5713 29.4965C20.0816 29.0466 18.8515 29.0149 18.5212 28.2044C18.3376 27.7538 18.5532 27.379 18.714 26.9629L18.4269 26.6903C18.3542 26.4003 18.4633 26.3139 18.5415 25.9705L18.3745 25.8688L18.2555 26.1269C17.7374 26.2776 17.0844 24.402 16.7834 23.9793C16.1627 23.1076 15.4885 22.2618 14.7605 21.4801C14.7258 21.4428 14.1159 21.2718 13.989 21.2191C13.9658 21.0073 13.8558 19.7491 13.8811 19.6094C14.076 18.5331 14.5345 17.3625 14.8121 16.2947C14.9043 15.9401 14.9724 15.499 14.7828 15.1786C14.4976 15.1283 13.9459 15.194 13.6241 15.2126C12.649 15.2688 11.3559 15.3546 10.3997 15.1935C9.91733 15.1124 8.99479 14.0454 8.7716 13.5825C8.68357 13.4 8.6985 13.3172 8.58994 13.1515L8.5718 13.1244C8.16375 12.2484 8.04217 12.8528 7.61728 12.6269C6.72085 11.0866 10.0868 8.48489 10.1122 7.76928C10.1201 7.54916 9.90929 7.32573 9.76854 7.17174C8.40685 5.68179 5.80492 5.76646 3.97268 5.98416C3.32646 6.06095 2.62684 6.24503 1.97552 6.21428C1.41737 6.18793 1.04224 6.02875 0.664062 5.61129L0.679412 4.57986C1.88332 2.95433 3.31554 3.94784 4.64344 2.7494L4.6447 1.79601ZM29.6914 27.0658C29.5257 26.1776 29.0681 26.2857 28.5769 25.7033C28.4615 25.5665 28.0441 24.5666 27.9456 24.3341C27.7501 24.4213 27.2925 25.1439 27.2126 25.372C27.0096 25.9512 27.3416 26.4958 27.5933 27.0003C27.7701 27.5151 27.8376 28.0035 28.1519 28.4402C28.5696 28.5451 29.9184 28.12 30.2088 27.7852C30.2827 27.3379 29.7997 27.4991 29.6453 27.1557L29.6914 27.0658ZM20.2883 26.3735L20.2263 26.1355C19.8451 26.0457 19.5159 26.9826 19.2655 27.2757C19.492 27.4283 19.7671 27.6243 20.0149 27.434L20.0082 27.305L19.7615 27.1274C19.9841 26.9295 19.9296 27.1921 20.2014 26.7916L20.3062 26.8235L20.2883 26.3735ZM7.67006 2.45318C7.39778 2.51084 7.04571 2.55481 6.84421 2.73655L6.81509 2.86648C7.09037 3.19302 7.64149 3.23647 8.05847 3.31078C8.30573 3.25024 8.63427 3.20725 8.77978 3.01172C8.81395 2.80621 8.82602 2.88388 8.7118 2.69626C8.48023 2.52515 7.95025 2.39436 7.67006 2.45318ZM41.1849 24.4413L41.1916 24.2131C41.7843 23.863 42.2627 23.9153 42.7917 23.6728C43.1377 23.5142 43.3829 23.1692 43.7627 23.0648L43.853 23.1048C43.9679 23.4388 44.0319 23.9297 44.3263 24.1591L44.3972 24.093C44.3697 23.8631 44.203 23.8788 44.1911 23.6541C44.3242 23.4908 44.476 23.5596 44.5668 23.3465C44.5322 23.1656 44.4499 22.4291 44.3194 22.3347C44.3128 22.33 44.3058 22.326 44.299 22.3217C44.0723 22.7895 42.9774 23.1162 42.4941 23.2835C41.8166 23.5179 40.5223 23.7421 40.1386 24.3781C40.1129 24.533 40.0588 24.7185 40.1219 24.8676C40.241 24.911 40.2806 24.9168 40.3957 24.8577C40.4889 24.8098 40.5483 24.7071 40.6439 24.6606C40.8416 24.5647 40.9893 24.5886 41.1849 24.4413ZM32.9612 8.05562C33.2054 8.29484 33.9998 8.29326 34.2635 8.10926C34.0893 8.03619 33.0696 8.00301 32.9612 8.05562ZM39.5406 24.3896C39.3335 24.5008 39.1755 24.5866 39.042 24.7889L39.0246 24.8149C38.9031 24.9984 38.8756 25.2438 38.9144 25.4593L38.9476 25.4861C39.2757 25.2042 39.5684 25.0001 39.6281 24.5394C39.6027 24.4709 39.5978 24.4364 39.5406 24.3896ZM31.6231 17.873L31.4343 18.0257L31.4488 18.1145C31.6939 18.2457 31.8065 18.1069 32.0813 18.1502C32.1388 17.9321 32.3845 17.2724 32.3882 17.1682L32.2782 17.078C31.8776 17.1651 31.9685 17.5513 31.636 17.8612L31.6231 17.873ZM29.085 6.37944C28.8166 6.55614 28.6129 6.70113 28.3819 6.92668C28.6755 6.96886 28.8067 6.69667 29.2446 6.80141L29.2662 6.90306L29.217 6.97469C29.1668 7.2067 29.1072 7.2703 29.2029 7.44393C29.4685 7.34167 29.6117 6.99908 29.5114 6.73211C29.4329 6.6284 29.212 6.40204 29.085 6.37944ZM13.502 8.05116C13.6693 9.0904 14.9391 8.32019 15.4974 8.67974C15.5534 8.49327 15.6945 8.18351 15.6274 8.0265C15.1847 7.9528 13.983 8.023 13.502 8.05116ZM45.3917 21.754C45.1698 22.3396 45.3456 23.2506 45.7832 23.7101C45.9521 23.7601 46.0021 23.7702 46.1772 23.7826C46.1787 23.2332 46.2143 22.299 45.8316 21.8874C45.6453 21.7875 45.6016 21.7624 45.3917 21.754Z" fill="#39383B"/>
<path d="M19.2637 27.2756C19.5141 26.9825 19.8432 26.0456 20.2245 26.1354L20.2865 26.3734L20.3043 26.8234L20.1995 26.7915C19.9278 27.192 19.9823 26.9294 19.7597 27.1274L20.0063 27.3049L20.0131 27.434C19.7653 27.6242 19.4902 27.4283 19.2637 27.2756Z" fill="#B8B9BA" fill-opacity="0.886275"/>
<path d="M4.6447 1.796C5.58262 0.361564 7.85915 -0.123081 9.46776 0.0257264C11.493 0.215611 12.1756 1.24289 13.2859 2.72801C14.4892 4.33744 15.6948 2.66672 17.3218 4.68031C17.1645 4.59175 17.0056 4.50614 16.845 4.42355C15.6333 3.80177 13.8121 3.89528 12.552 4.30868C12.3978 4.42972 12.2839 4.44452 12.0969 4.48942L11.743 4.64237C11.0522 5.10958 10.8443 5.04041 10.2143 4.52904L10.0361 4.45943C7.01121 3.07312 4.61043 3.53098 1.43889 4.32629C1.43216 4.75997 1.35556 5.37252 1.61386 5.70205C1.83213 5.80678 1.84257 5.81317 2.09934 5.73656C4.13179 5.13019 6.64134 4.94534 8.71446 5.49865C9.20215 5.62882 11.861 7.38397 11.5754 8.2138C11.512 8.398 10.7298 8.86154 10.551 8.99389C9.60448 9.62262 8.69134 10.9983 8.48527 12.1234C8.42745 12.4391 8.55046 12.801 8.57181 13.1244C8.16376 12.2484 8.04217 12.8528 7.61728 12.6269C6.72085 11.0866 10.0868 8.48489 10.1122 7.76928C10.1201 7.54916 9.90929 7.32573 9.76854 7.17174C8.40685 5.68179 5.80492 5.76646 3.97268 5.98416C3.32646 6.06095 2.62684 6.24503 1.97552 6.21428C1.41737 6.18793 1.04224 6.02875 0.664062 5.61129L0.679412 4.57986C1.88332 2.95433 3.31554 3.94784 4.64344 2.7494L4.6447 1.796ZM8.05847 3.31078C8.30573 3.25024 8.63427 3.20725 8.77979 3.01172C8.81395 2.80621 8.82602 2.88388 8.7118 2.69626C8.48023 2.52515 7.95025 2.39436 7.67006 2.45318C7.39778 2.51084 7.04571 2.55481 6.84421 2.73655L6.81509 2.86648C7.09038 3.19302 7.64149 3.23647 8.05847 3.31078Z" fill="#B8B9BA"/>
<path d="M5.30853 1.88602C5.93902 1.41305 6.41403 1.02791 7.17776 0.779546C8.78814 0.255865 11.0653 0.210732 12.189 1.70016C12.3372 1.8983 12.4996 2.27847 12.6223 2.51644C12.9306 2.72152 13.9569 3.372 13.6994 3.827C13.403 3.89469 13.3323 3.87783 13.0584 3.74094C11.9254 3.28543 10.9554 3.20553 9.74764 3.387C9.42415 3.36385 9.52071 3.41239 9.27304 3.21867C9.11573 2.63193 9.69227 2.5507 9.75248 2.02354C9.50441 1.50258 7.91456 1.68051 7.43818 1.85662C6.87316 2.0655 5.98614 2.94922 5.41859 2.88618C5.07423 2.61066 5.2098 2.26436 5.30853 1.88602Z" fill="#39383B"/>
<path d="M9.74805 3.38707C10.9558 3.20559 11.9258 3.28549 13.0588 3.741L12.7718 3.83603L13.0008 3.94843C12.734 4.04091 12.6567 4.03963 12.5515 4.30856C12.3973 4.4296 12.2834 4.4444 12.0964 4.48931L11.7425 4.64225C12.1833 3.3235 10.4447 3.60646 9.76755 3.39337L9.74805 3.38707Z" fill="#9E9FA2"/>
<path d="M12.0964 4.48947C12.0759 4.16218 12.0798 4.08432 12.257 3.85755C12.4639 3.77563 12.5566 3.80309 12.7718 3.8362L13.0008 3.9486C12.734 4.04108 12.6567 4.03979 12.5515 4.30873C12.3973 4.42977 12.2834 4.44457 12.0964 4.48947Z" fill="#8A8B8D"/>
<path d="M10.0352 4.45913C9.97463 4.1355 9.98111 4.23807 10.1073 3.91875C10.4792 3.52186 11.3366 3.83308 11.4597 4.28946C11.2903 4.68122 10.5872 4.5529 10.2134 4.52874L10.0352 4.45913Z" fill="#BEC2C7"/>
<path d="M24.7499 30.6418C25.1745 30.2404 24.7179 29.5714 24.7524 29.0268C24.7674 28.7894 24.606 28.6806 24.4785 28.4649L24.5186 28.3629C24.8581 28.3199 25.4767 28.5948 25.7799 28.7443C26.3342 28.7981 27.2188 29.5047 27.2859 30.0958C27.5047 30.6639 28.0457 32.5013 28.3611 32.8341C28.5623 33.0444 28.4657 32.9869 28.7642 33.0505C28.8835 33.1517 28.9181 33.3072 28.9634 33.4515C29.0451 33.331 29.0594 33.3053 29.1077 33.168C29.133 33.4432 29.1532 33.6653 29.0618 33.9333C28.9735 34.6297 27.8077 35.5924 27.268 35.9925L26.1973 35.9998L25.6446 35.5984C25.6021 35.2119 25.6653 33.1738 25.5818 33.0171C25.4225 33.1664 25.518 33.2361 25.2989 33.4959C25.2169 33.3414 24.7689 30.895 24.7499 30.6418Z" fill="#8A8B8D"/>
<path d="M24.7499 30.6418C25.1745 30.2404 24.7179 29.5714 24.7524 29.0268C24.7674 28.7894 24.606 28.6806 24.4785 28.4649L24.5186 28.3629C24.8581 28.3199 25.4767 28.5948 25.7799 28.7443C26.0516 29.6828 26.403 30.4267 26.3804 31.439C26.4131 32.1481 26.1492 32.8083 26.4634 33.4826C26.5076 33.5776 26.05 34.1888 26.1489 34.4646C26.3297 34.9682 26.5731 35.4854 27.1537 35.4579C27.9073 34.9831 28.3388 34.5364 28.6265 33.7329C28.7342 33.7815 28.9703 33.8798 29.0618 33.9333C28.9735 34.6297 27.8077 35.5924 27.268 35.9925L26.1973 35.9998L25.6446 35.5984C25.6021 35.2119 25.6653 33.1738 25.5818 33.0171C25.4225 33.1664 25.518 33.2361 25.2989 33.4959C25.2169 33.3414 24.7689 30.895 24.7499 30.6418Z" fill="#BEC2C7"/>
<path d="M27.2863 30.0957C27.5051 30.6638 28.0461 32.5012 28.3615 32.834C28.2986 32.8105 28.2231 32.792 28.1575 32.7737C27.5994 33.2745 27.9981 34.8154 26.7992 34.4423C26.7209 33.299 27.4128 31.3064 27.2863 30.0957Z" fill="#707072"/>
<path d="M20.7993 26.5952C20.7596 26.4146 20.6586 26.1034 20.7352 25.9558C21.1425 25.9342 22.8187 27.7914 23.0008 28.2382C23.0354 28.323 23.7374 29.5378 23.6947 29.5031L23.9005 29.4887C24.1219 29.818 24.3154 30.268 24.5051 30.6292L24.6621 30.6157L24.6809 30.9454L24.749 30.6418C24.768 30.8951 25.216 33.3415 25.298 33.4959C25.3237 33.7053 25.3442 33.7811 25.2503 33.9737L25.128 33.9765C24.727 33.6882 24.6867 32.9641 24.5057 32.5847L24.4916 32.556C24.1619 32.2568 22.2861 30.9254 21.8785 30.8165L21.7731 30.9376C21.6864 30.9666 21.6585 30.9525 21.5655 30.9346C21.3335 30.703 20.7813 29.8151 20.5697 29.4963C20.08 29.0464 18.8499 29.0147 18.5195 28.2042C18.336 27.7537 18.5516 27.3789 18.7124 26.9628C18.9186 27.1247 19.0691 27.3575 19.2231 27.3611L19.2639 27.2756C19.4904 27.4282 19.7655 27.6241 20.0133 27.4339L20.0066 27.3048L19.7599 27.1273C19.9825 26.9293 19.928 27.1919 20.1998 26.7914L20.3046 26.8234L20.2867 26.3733C20.3605 26.4665 20.435 26.5592 20.5101 26.6514L20.7993 26.5952Z" fill="#BEC2C7"/>
<path d="M19.2639 27.2756C19.4904 27.4283 19.7655 27.6242 20.0133 27.434L20.0066 27.3049L19.7599 27.1274C19.9825 26.9294 19.928 27.192 20.1998 26.7915L20.3046 26.8234C20.3426 27.1366 20.4101 28.0539 20.4583 28.2838C20.4746 28.5178 20.5869 29.3203 20.5697 29.4964C20.08 29.0465 18.8499 29.0148 18.5195 28.2043C18.336 27.7537 18.5516 27.3789 18.7124 26.9629C18.9186 27.1248 19.0691 27.3576 19.2231 27.3612L19.2639 27.2756Z" fill="#BEC2C7"/>
<path d="M20.2871 26.3735C20.361 26.4667 20.4354 26.5594 20.5105 26.6516L20.7997 26.5954C20.9783 27.0492 21.1216 27.7525 21.2407 28.2458C21.4634 28.8926 21.5594 29.5406 21.6856 30.2098C21.7124 30.3515 21.7448 30.875 21.7735 30.9378C21.6868 30.9668 21.6589 30.9527 21.5659 30.9348C21.334 30.7032 20.7818 29.8153 20.5701 29.4965C20.5874 29.3204 20.475 28.5179 20.4587 28.2839C20.4105 28.054 20.343 27.1367 20.305 26.8235L20.2871 26.3735Z" fill="#4C4C4F"/>
<path d="M20.2871 26.3735C20.361 26.4667 20.4354 26.5594 20.5105 26.6516L20.7997 26.5954C20.9783 27.0492 21.1216 27.7525 21.2407 28.2458L21.0285 28.3377C20.975 28.6911 21.2311 28.6498 21.2629 29.1414C21.1749 29.1028 20.9791 29.1513 20.7222 29.0822C20.7151 28.8185 20.7037 27.8517 20.5414 27.6825C20.4394 27.8668 20.4599 28.0708 20.4587 28.2839C20.4105 28.054 20.343 27.1367 20.305 26.8235L20.2871 26.3735Z" fill="#5B5B5E"/>
<path d="M20.7227 29.082C20.9796 29.1511 21.1754 29.1026 21.2634 29.1412C21.3428 29.4082 21.5676 30.2025 21.537 30.443L21.4298 30.4137C21.1637 30.1393 20.7863 29.4597 20.7227 29.082Z" fill="#8A8B8D"/>
<path d="M23.9011 29.4888C24.1225 29.8181 24.316 30.2681 24.5058 30.6293L24.6627 30.6159L24.6815 30.9455L24.7496 30.642C24.7686 30.8952 25.2166 33.3416 25.2986 33.4961C25.3243 33.7054 25.3448 33.7812 25.2509 33.9738L25.1286 33.9766C24.7276 33.6883 24.6873 32.9642 24.5063 32.5848L24.4922 32.5561C24.8324 32.0747 23.9619 30.0079 23.6953 29.5032L23.9011 29.4888Z" fill="#6E6E6E"/>
<path d="M27.6074 28.0933C27.826 28.3153 28.1225 29.0796 28.3957 29.1556L28.4314 29.1335C30.023 28.2418 31.5126 28.1829 33.2319 28.5754C33.4156 28.6618 34.3589 29.1966 34.4697 29.1505C35.0054 29.2929 35.6538 30.6716 35.497 31.1214C35.3312 31.1794 35.3911 31.1706 35.1975 31.081C35.1529 31.0061 35.1111 30.9546 35.1063 30.8689C34.5947 30.5796 34.6832 30.879 34.2982 30.734C33.6603 30.494 30.8752 29.8422 30.3521 30.3671L30.3547 30.4993C31.0789 30.9198 32.725 30.8898 33.4448 31.7524C33.6022 31.9411 33.8186 31.9808 33.9114 32.2753C33.6961 32.204 33.1655 31.7843 32.8214 31.6233C31.403 30.9595 29.8578 30.9525 28.335 31.1699C28.2458 30.8851 28.1696 30.5698 28.0935 30.279C28.0989 30.1496 27.9293 29.5962 27.8843 29.4361C27.8542 29.0194 27.6314 28.7091 27.6074 28.0933Z" fill="#B8B9BA"/>
<path d="M28.4316 29.1333C30.0232 28.2417 31.5128 28.1827 33.2322 28.5753C33.4158 28.6617 34.3591 29.1964 34.4699 29.1503C35.0056 29.2928 35.654 30.6715 35.4972 31.1213C35.3314 31.1792 35.3913 31.1704 35.1977 31.0809C35.1531 31.0059 35.1113 30.9544 35.1065 30.8687C34.6412 29.31 31.7751 29.3752 30.5133 29.5603C29.8988 29.6505 29.3058 30.0741 28.7711 30.391C28.592 29.9793 28.6932 29.4771 28.4316 29.1333Z" fill="#39383B"/>
<path d="M29.691 27.0657C29.7934 26.9633 29.8744 26.8885 29.9565 26.7686L29.8114 26.6032L29.8817 26.5801L29.9034 26.5928C30.3645 26.8574 31.461 27.1006 32.0111 27.2995C31.7387 27.3203 31.5628 27.3186 31.3154 27.4369L31.2898 27.5695L31.2868 27.5499C31.7227 27.7212 32.2633 27.885 32.6588 28.1088C32.8242 28.2024 33.0751 28.4647 33.2326 28.5754C31.5133 28.1829 30.0236 28.2418 28.4321 29.1334L28.3964 29.1556C28.1232 29.0796 27.8267 28.3153 27.6081 28.0932C27.5084 27.7282 27.3485 27.3197 27.4135 26.9613L27.5929 27.0002C27.7697 27.5151 27.8372 28.0035 28.1515 28.4401C28.5691 28.545 29.918 28.1199 30.2084 27.7851C30.2823 27.3378 29.7993 27.4991 29.6448 27.1556L29.691 27.0657Z" fill="#C2C2C2"/>
<path d="M28.6211 32.1965C29.994 31.8055 31.0991 31.9989 32.4631 32.3687C32.9906 32.5117 33.9812 32.9436 34.175 33.4831L34.1446 33.5573L33.948 33.4374L33.9251 33.4494C33.5735 33.6304 33.4785 33.572 33.0902 33.5573C32.5924 33.0822 29.919 32.4566 29.251 32.9059C29.2278 32.9214 29.1299 33.1239 29.1074 33.1681C29.059 33.3055 29.0448 33.3312 28.9631 33.4516C28.9177 33.3074 28.8831 33.1519 28.7638 33.0507C28.7183 32.7676 28.6748 32.4775 28.6211 32.1965Z" fill="#B8B9BA"/>
<path d="M12.6734 7.83884C12.3261 7.80477 12.2883 7.75745 12.0536 7.51253C11.9831 7.29762 11.9761 7.37626 12.0569 7.18354L12.281 7.32132L12.3795 7.29123C12.33 6.76691 11.9825 6.39361 11.8535 6.04183C11.9888 5.13703 15.1989 5.13872 15.9633 5.1414C16.5022 5.14328 17.0864 5.28288 17.6137 5.26722C17.4642 5.35448 17.0079 5.37965 17.0162 5.36937C16.5398 5.96208 15.6766 5.79548 15.0687 5.83103C14.3768 5.8715 12.7911 5.72303 12.4492 6.41694C12.3988 6.51911 12.6905 7.48876 12.6734 7.83884Z" fill="#BEC2C7"/>
<path d="M33.2329 28.5752C33.0755 28.4645 32.8245 28.2023 32.6591 28.1087C32.2637 27.8849 31.723 27.7211 31.2871 27.5498L31.2901 27.5694L31.3157 27.4368C31.5631 27.3184 31.739 27.3201 32.0114 27.2993C32.1296 27.3039 32.5562 27.3228 32.6309 27.3817C33.0599 27.7197 33.4104 27.9006 33.9664 27.8349C34.3379 27.7909 35.0513 27.3768 35.3473 27.8162L35.1375 27.9503L35.1508 27.9802C35.211 28.1166 35.2205 28.1429 35.134 28.2715C34.8468 28.3829 34.5617 28.4998 34.2789 28.6221C34.2453 28.7856 34.2621 28.7506 34.3276 28.9304C34.4674 29.0387 34.4331 28.9828 34.4707 29.1503C34.3599 29.1964 33.4166 28.6616 33.2329 28.5752Z" fill="#BEC2C7"/>
<path d="M23.9014 29.4887C23.7693 29.2703 23.2619 28.4351 23.25 28.2215C23.5163 28.2025 23.8038 28.2417 24.0709 28.27C24.2064 28.1051 24.2574 27.9871 24.4381 27.9219L24.6075 28.0206L24.6206 28.0937L24.3052 28.0903C24.1971 28.4551 25.0367 30.1008 24.663 30.6157L24.506 30.6292C24.3163 30.268 24.1228 29.818 23.9014 29.4887Z" fill="#707174"/>
<path d="M28.3359 31.1699C29.8587 30.9524 31.4039 30.9595 32.8223 31.6233C33.1664 31.7843 33.697 32.204 33.9123 32.2753L34.0786 32.288L34.1993 32.5384C33.0675 32.0844 32.2701 31.4669 30.8886 31.3452C30.3774 31.3002 28.6184 31.492 28.3771 31.3565L28.3359 31.1699Z" fill="#4C4C4F"/>
<path d="M28.0927 30.279C28.0575 30.4662 28.0431 30.5606 27.9673 30.7404L27.8834 30.6938C27.7754 30.4598 27.4403 29.1596 27.5339 28.999C27.7448 29.1702 27.5126 29.2499 27.6912 29.504L27.8836 29.4361C27.9286 29.5962 28.0982 30.1496 28.0927 30.279Z" fill="#4C4C4F"/>
<path d="M18.373 25.8687C18.5053 25.5683 18.8478 24.9303 19.0922 24.7207C19.154 24.9199 18.7466 25.7718 18.6411 26.0062L18.5775 26.0489L18.5401 25.9705L18.373 25.8687Z" fill="#B8B9BA"/>
<path d="M30.4175 18.6946C30.4204 18.4748 30.4145 18.3928 30.5087 18.1862C30.8005 17.8828 31.2063 17.9061 31.6228 17.873L31.4341 18.0257L31.4486 18.1146C31.6937 18.2457 31.8063 18.1069 32.0811 18.1503C31.8464 18.5393 31.5999 18.9367 31.3722 19.3284C31.044 19.7745 29.9154 20.8386 29.4238 21.0825C27.2789 22.1472 25.0679 23.1101 22.9568 24.2426C22.8683 24.29 22.5202 24.2303 22.4256 24.2011L22.4723 23.6621C22.6327 23.4903 22.8737 23.5182 23.1661 23.4662C23.372 23.3567 23.8987 23.2036 24.1764 23.0768C24.9926 22.7068 25.8047 22.3273 26.6219 21.9598C26.9976 21.7909 27.8971 21.5885 27.9814 21.1544C27.5851 21.0748 25.1942 22.4093 24.5793 22.5488C23.9979 22.6807 21.7618 23.2901 21.284 23.0519L21.2626 22.9477C21.7664 22.5959 22.3079 22.8873 22.5993 22.3119C22.5677 22.0746 22.6054 22.158 22.441 21.9779C21.2944 21.4498 20.4856 23.2677 20.2637 23.3363C19.9805 22.8513 20.9107 21.4917 21.3171 21.1219L21.3462 21.166C21.1932 21.3882 20.9767 21.5796 21.1129 21.8215L21.2292 21.82C21.4609 21.4909 21.8822 21.305 22.2163 21.0086C22.9815 20.3565 24.5481 19.4418 25.5453 19.4683C26.7796 19.523 27.9449 19.611 29.1765 19.4177C29.8932 19.3052 30.2241 19.5703 30.4175 18.6946Z" fill="#A9ACB7"/>
<path d="M30.416 18.6946C30.4189 18.4748 30.413 18.3928 30.5072 18.1862C30.799 17.8828 31.2048 17.9061 31.6213 17.873L31.4326 18.0257L31.447 18.1146C31.6922 18.2457 31.8048 18.1069 32.0796 18.1503C31.8449 18.5393 31.5984 18.9367 31.3707 19.3284C31.0545 19.3458 30.9802 19.5326 30.5864 19.3593C30.4344 19.168 30.4394 18.941 30.416 18.6946Z" fill="#BEC2C7"/>
<path d="M20.9805 10.9206C20.9782 9.34643 22.2417 8.20107 23.2318 7.0992C23.5189 6.77976 23.883 6.48156 24.3294 6.47956C24.3586 6.47933 24.3879 6.4797 24.417 6.48066C24.6786 7.75567 24.3696 9.15384 24.3594 10.4965C24.3435 12.5744 24.9396 13.8927 25.4191 15.7972C25.3214 15.9692 24.9262 16.5504 24.7738 16.6653C24.5905 17.0034 24.3299 17.453 23.9366 17.4827C23.695 17.3955 22.9597 16.5962 22.714 16.3577C21.7933 15.5769 21.3567 15.311 22.4489 14.2741C22.7739 13.9654 23.6022 13.2526 23.2012 12.7997C22.9754 12.7478 22.8749 12.8023 22.6845 12.926L22.6459 12.8346C22.7717 12.5328 22.7742 11.8395 22.8743 11.7163L23.2644 11.573L23.3119 11.4576C23.068 11.1241 21.9778 11.0414 21.5023 10.9688C21.3297 10.9409 21.1553 10.9248 20.9805 10.9206Z" fill="#ACB0BB"/>
<path d="M22.7129 16.3579C23.1254 16.3329 23.2125 16.3662 23.5955 16.5299C23.6806 16.4316 23.7168 16.3898 23.8178 16.3076C24.0714 16.4384 23.9963 16.7282 24.2733 16.9017C24.5924 16.7026 24.3535 16.6696 24.7727 16.6655C24.5894 17.0036 24.3288 17.4532 23.9355 17.4829C23.6939 17.3957 22.9586 16.5964 22.7129 16.3579Z" fill="#9E9FA2"/>
<path d="M12.377 8.45898C12.2077 8.85151 11.9921 8.93166 12.0002 9.13565L11.8668 9.16003C11.707 9.36031 11.9012 9.31841 11.89 9.60736C11.8766 9.95276 11.5371 9.88168 11.263 10.133L11.2801 10.2848L11.3798 10.3303C11.4171 10.3079 11.4553 10.2872 11.4945 10.2682C12.0131 10.0163 14.6408 9.979 15.1557 10.1568C15.263 10.4787 14.3776 11.9751 14.3191 12.4806C14.2813 12.8072 14.2909 12.9667 14.3065 13.2949C14.5069 13.6126 14.8048 13.9208 14.9276 14.2715L14.8186 14.4164C14.3891 14.5318 14.521 13.9451 14.0328 13.8476C13.9149 13.9938 14.0142 14.031 13.9747 14.3334L13.8586 14.4093C13.5613 14.364 13.5436 14.1197 13.3085 14.0225C12.555 13.711 12.803 14.3118 12.6662 14.5251C11.2134 14.917 10.3249 14.6226 9.4956 13.2398C9.15083 12.665 9.16876 11.9661 9.14258 11.3125C9.25502 11.1615 9.65455 10.497 9.76624 10.3093C10.4623 9.14011 11.1963 8.94093 12.377 8.45898Z" fill="#A4A7B2"/>
<path d="M17.8122 17.6575C18.629 17.7186 20.0779 17.9131 20.7726 17.4042C20.9954 17.241 21.0368 16.828 21.3241 16.6841C21.5789 16.7203 21.6327 16.84 21.8241 16.9438C22.4917 17.3057 22.1018 17.9431 21.8779 18.4895C21.7879 19.3658 20.7315 21.0137 20.3737 21.8539C20.2305 22.1902 20.0471 22.9247 19.7579 23.0879C19.0512 22.76 19.181 20.4065 18.6062 20.2563C18.3685 20.777 18.9706 22.6867 18.7504 23.1272C17.542 23.3126 17.2616 21.6667 17.1397 20.7694C17.0579 20.1677 17.4563 18.1296 17.8122 17.6575Z" fill="#A9ADB7"/>
<path d="M17.8125 17.6575C18.6293 17.7186 20.0782 17.9131 20.7729 17.4042C20.9958 17.241 21.0371 16.828 21.3244 16.6841C21.5792 16.7203 21.6331 16.84 21.8244 16.9438C22.492 17.3057 22.1021 17.9431 21.8782 18.4895C21.6381 18.5783 21.7301 18.709 21.4232 18.8342C21.2935 18.7987 21.0659 18.6108 21.0779 18.6128C20.7866 18.5647 20.2887 18.7337 20.0355 18.5652C20.0163 18.5524 19.9461 18.3858 19.8632 18.3226C19.6831 18.4491 19.5792 18.5428 19.4223 18.3728C18.9536 17.8649 18.5325 18.4288 17.8831 18.1425L17.8125 17.6575Z" fill="#BEC2C7"/>
<path d="M17.5849 7.11475L17.7254 7.16557C18.0406 7.52856 17.5531 9.43306 17.981 9.82442L18.1194 9.54913L18.2036 9.59783C18.5476 9.50243 18.406 7.89354 18.823 7.37753C19.0569 7.3449 18.9673 7.34051 19.2103 7.44593C19.3108 8.09808 18.6434 9.53306 19.211 10.0261C19.4286 9.9532 19.3197 8.06319 19.9154 7.88777C20.0261 7.91943 20.2055 8.11085 20.1761 8.24183C20.0391 8.85283 19.2087 11.1415 19.2819 11.6446C19.5306 11.6638 20.3281 11.0898 20.6797 11.1996C20.7529 11.6111 19.0297 13.1811 18.6777 13.2937C18.183 13.3343 17.8119 13.294 17.4287 13.6067C17.3324 13.6852 17.2424 13.6647 17.1201 13.6656C17.1291 13.3538 18.2062 12.4273 17.4286 11.8699C17.297 11.7757 17.3556 11.7944 17.2001 11.8135C17.0583 12.087 17.3683 12.2523 17.3362 12.4374C17.2042 13.1971 16.5441 14.0904 15.7625 13.4135C14.9852 12.7405 15.6564 12.373 15.5991 11.8196L15.314 11.9034C15.2703 11.5587 15.4609 11.7813 15.3937 11.4247L15.2607 11.3735C15.1596 11.4798 15.108 11.5238 14.9922 11.614C14.9938 11.0393 15.5369 11.1086 15.5576 10.9394C15.7488 9.37551 15.6264 8.92453 16.3869 7.49614C16.4273 8.34169 16.1282 9.29013 16.4282 9.8885L16.6018 9.91542C17.2103 9.64371 17.2254 7.91566 17.5849 7.11475Z" fill="#A5A9B2"/>
<path d="M29.411 11.0623C29.1248 11.5279 28.9774 11.7293 28.5173 12.0613C27.9923 12.4401 26.5443 13.4559 25.9136 13.3726C25.322 13.1027 24.5374 10.8839 24.6615 10.1621L24.6996 10.153C24.7215 10.2329 24.7442 10.3125 24.7677 10.3919C24.8991 10.8334 25.311 11.3368 25.8011 11.1858C26.0154 10.6294 25.0139 9.88429 24.8321 9.51725C24.7301 9.31134 24.6995 8.32251 24.7991 8.0778C25.0677 8.08212 25.1733 8.42938 25.4321 8.43522C25.4435 7.99174 24.8518 7.28891 25.163 6.96521C25.4578 6.86884 25.9858 6.9549 26.3131 6.98725C26.2571 7.19625 26.204 7.40601 26.1539 7.61652C26.111 7.80334 26.0397 8.07443 26.1327 8.22368C26.6896 7.78507 26.4268 7.03609 27.5391 7.435C27.6773 7.48452 28.1006 7.55938 28.2573 7.59118L27.8464 7.73892C27.5914 7.7804 27.6753 7.73411 27.5037 7.91687C27.2853 9.19121 30.0889 8.43721 30.6587 8.32663L30.6644 8.40328C30.3912 8.59484 30.1436 8.72815 29.8537 8.88763L30.075 9.07184C30.05 9.17109 30.0706 9.1557 30.0053 9.20186C29.7466 9.57707 28.7037 9.95098 28.4136 10.2138C28.1624 10.4291 28.172 10.4954 27.9004 10.5219C27.7933 10.4176 27.7775 10.3778 27.7106 10.2438C27.5726 10.4919 27.5089 10.7507 27.4303 11.0226C27.9054 10.963 28.9471 10.5783 29.2321 10.68C29.09 10.991 27.2022 12.0589 26.9398 12.4051L26.9636 12.5071C27.3878 12.4999 28.8148 11.3575 29.411 11.0623Z" fill="#ABAFB9"/>
<path d="M27.7109 10.2433C28.2029 9.89451 29.3294 9.16578 29.854 8.88721L30.0753 9.07141C30.0503 9.17066 30.0709 9.15528 30.0056 9.20143C29.7469 9.57664 28.704 9.95055 28.4139 10.2134C28.1627 10.4287 28.1723 10.4949 27.9006 10.5214C27.7936 10.4172 27.7778 10.3774 27.7109 10.2433Z" fill="#4C4C4F"/>
<path d="M28.4141 10.2136C28.421 9.95891 29.7219 9.16982 30.0058 9.20162C29.747 9.57683 28.7041 9.95074 28.4141 10.2136Z" fill="#8A8B8D"/>
<path d="M29.1524 12.6299C29.1909 12.6565 29.3199 12.7417 29.3451 12.7683L29.2208 12.882C29.2424 13.1954 29.399 12.9917 29.4674 13.466C29.602 14.2419 29.6052 15.803 29.6828 16.6391C29.6967 16.7889 29.6243 17.3254 29.5189 17.3614C28.7074 17.638 27.254 17.8298 26.4429 18.0446C25.8376 18.205 23.7701 18.8321 23.3789 18.8211C23.4647 18.5852 27.9412 13.648 28.409 13.266C28.5359 13.1879 29.0138 12.7519 29.1524 12.6299Z" fill="#A2A6B0"/>
<path d="M29.1522 12.6299C29.1906 12.6565 29.3196 12.7417 29.3449 12.7683L29.2205 12.882C29.2422 13.1954 29.3987 12.9917 29.4671 13.466C29.3338 13.6516 29.2323 13.7739 29.151 13.9895L29.1799 13.9204C29.1711 13.8923 29.1398 13.7868 29.1163 13.7735C28.7047 13.5423 28.7149 13.5764 28.434 13.869L28.3911 13.7893L28.4616 13.8405C28.3401 13.6571 28.3959 13.5312 28.4087 13.266C28.5356 13.1879 29.0135 12.7519 29.1522 12.6299Z" fill="#BEC2C7"/>
<path d="M26.2542 1.09966C27.9301 0.639331 29.7001 1.4135 31.1803 2.12209C31.7816 2.57868 32.4022 3.05619 32.9435 3.58404C32.4217 3.58071 32.0507 3.57695 31.5327 3.69875L30.9789 4.16621L30.8489 4.87332C30.531 4.59451 29.5964 3.49955 29.4553 3.42406C29.1868 3.60127 29.4515 3.69697 29.1451 3.71015C28.7391 3.54012 28.4847 3.32591 28.1228 3.09871C27.9736 2.94513 27.9164 3.00895 27.6746 2.88245L27.6213 2.69446C27.4303 2.44102 26.3722 3.3417 25.9954 3.12657C25.0313 2.576 25.5079 1.53747 26.2542 1.09966Z" fill="#B7BBC6"/>
<path d="M26.7438 5.09144C26.1242 5.05238 24.8047 4.76543 24.6523 4.05609C24.9728 3.00433 28.2895 4.20883 28.4127 4.43704C28.474 5.13598 28.4734 5.00429 28.9658 5.54878C28.6446 5.47895 27.5698 5.26569 27.3296 5.17692C27.1676 5.1929 26.9112 5.12614 26.7438 5.09144Z" fill="#AFB3BD"/>
<path d="M26.7441 5.09144C27.0213 4.78642 27.5238 4.88345 27.8829 5.017L27.9448 5.09873C27.7032 5.1739 27.58 5.16956 27.3299 5.17692C27.1679 5.1929 26.9115 5.12614 26.7441 5.09144Z" fill="#9E9FA2"/>
<path d="M29.1523 12.6297C29.6323 12.1773 30.2838 11.7806 30.7356 11.2409C30.8063 11.1566 30.9318 11.167 31.0338 11.17C31.3687 11.4846 31.0814 12.0958 31.6639 12.3347C32.1668 12.2644 31.9593 11.8981 32.2723 11.7574C32.3314 11.8347 32.3284 11.8615 32.3372 11.9597L32.3927 11.9395L32.4279 11.797L32.5335 11.8396C32.6624 12.1938 32.2598 13.0374 32.1148 13.4192L31.9895 13.5223C31.4453 13.444 30.8007 13.1586 30.2582 13.0003C30.0242 12.932 29.5264 12.8368 29.3451 12.7681C29.3198 12.7415 29.1908 12.6563 29.1523 12.6297Z" fill="#BEC2C7"/>
<path d="M34.599 22.0093C35.3066 22.8006 35.9443 22.6987 36.9349 22.9357C36.4725 23.2164 36.1331 23.3999 35.7804 23.825C35.3481 23.8413 34.18 23.7516 34.0297 23.2702C34.1464 22.9567 34.4291 22.9712 34.6098 22.5883L34.5581 22.4941C34.2081 22.4517 33.8852 22.6761 33.5746 22.8471C33.2616 23.0709 32.7201 23.4682 32.3341 23.3107L32.2852 23.1831C32.3688 22.8524 32.6617 22.7022 32.9417 22.5083C33.271 22.2589 34.1457 22.1172 34.599 22.0093Z" fill="#B8B9BA"/>
<path d="M12.377 8.45918C12.7332 8.33012 13.1442 8.06542 13.5006 8.05127C13.6679 9.09051 14.9377 8.3203 15.4961 8.67985C15.2133 9.04834 14.707 8.90506 14.2456 8.9936C13.7888 9.08124 12.5975 9.85618 12.2936 9.68193C12.2101 9.52987 12.0678 9.28625 12.0002 9.13584C11.9921 8.93185 12.2077 8.8517 12.377 8.45918Z" fill="#BEC2C7"/>
<path d="M34.6253 16.6992L34.7108 16.8192C34.7674 17.5493 34.7262 18.8541 34.3238 19.4672C34.1858 19.5783 33.838 19.5492 33.6428 19.5494C33.4463 19.3137 34.0438 17.6152 34.1718 17.2821C34.21 17.1824 34.5356 16.8024 34.6253 16.6992Z" fill="#BEC2C7"/>
<path d="M29.1864 22.0776L29.2328 22.1214C29.2213 22.1487 29.2081 22.1743 29.1918 22.1992C29.1198 22.3096 26.2879 24.2532 26.0057 24.3747C25.6028 24.5479 25.0815 24.5708 24.6456 24.6494L24.6074 24.6176C24.7497 24.3476 28.6156 22.3497 29.1864 22.0776Z" fill="#9E9FA2"/>
<path d="M28.2566 7.59076L28.2763 7.59852C28.7651 7.78616 29.1813 7.7966 29.6922 7.8295C30.0654 7.85347 31.0668 7.4003 31.2208 7.52887C31.1364 8.19688 28.3837 8.62793 27.9017 8.05402C27.8838 8.03266 27.8537 7.79193 27.8457 7.73849L28.2566 7.59076Z" fill="#BEC2C7"/>
<path d="M13.502 8.05095C13.983 8.02279 15.1847 7.9526 15.6274 8.02629C15.6945 8.1833 15.5534 8.49306 15.4974 8.67954C14.9391 8.31998 13.6693 9.09019 13.502 8.05095Z" fill="#B8B9BA" fill-opacity="0.580392"/>
<path d="M14.9679 19.1582C15.1837 19.3531 15.4684 20.8935 15.3933 21.1637L15.2915 21.2134C15.0784 21.0674 14.8675 20.7479 14.7066 20.5305C14.6603 19.9253 14.5926 19.6082 14.9679 19.1582Z" fill="#B8B9BA"/>
<path d="M26.2559 3.40503C26.9484 3.26893 27.2025 3.24203 27.622 2.69434L27.6753 2.88233C27.9171 3.00883 27.9743 2.94501 28.1235 3.09859C27.3725 3.10886 27.8904 3.27933 27.6671 3.67381C27.3041 3.77542 26.6263 3.52546 26.2559 3.40503Z" fill="#B8B9BA"/>
<path d="M31.6223 17.8731L31.6352 17.8613C31.9678 17.5514 31.8768 17.1653 32.2775 17.0781L32.3874 17.1684C32.3838 17.2726 32.1381 17.9322 32.0806 18.1503C31.8058 18.107 31.6932 18.2458 31.4481 18.1147L31.4336 18.0258L31.6223 17.8731Z" fill="#B8B9BA" fill-opacity="0.615686"/>
<path d="M22.4244 24.2011C22.4207 24.1166 22.4075 23.7298 22.3595 23.6901C22.0706 23.451 20.9573 24.0126 20.791 23.5853C21.0181 23.4352 22.8253 23.435 23.1649 23.4661C22.8725 23.5181 22.6315 23.4902 22.4712 23.662L22.4244 24.2011Z" fill="#6E6E6E"/>
<path d="M15.3246 13.5933C15.577 13.6767 15.8057 14.0652 15.7809 14.3313C15.3044 14.4635 15.2493 13.9327 15.3246 13.5933Z" fill="#B8B9BA"/>
<path d="M22.0236 11.9377L22.0904 11.9155L22.1461 11.9687C21.9777 12.2098 21.7635 12.376 21.5411 12.5653L21.4849 12.5627C21.3624 12.4089 21.3817 12.477 21.3937 12.294C21.53 12.1182 21.8095 12.0283 22.0236 11.9377Z" fill="#9E9FA2"/>
<path d="M16.8229 7.63672C16.8474 7.65904 16.903 7.7543 16.9236 7.78727C16.9258 8.23316 16.8726 8.74622 16.7005 9.15914L16.666 9.15935C16.6665 8.79869 16.7109 7.95877 16.8229 7.63672Z" fill="#8A8B8D"/>
<path d="M5.74981 14.4689C5.59761 14.227 5.53003 14.2083 5.53058 13.9587C5.89007 13.5719 7.17989 14.0295 7.50788 14.3417C7.59176 14.4217 7.64999 14.4915 7.74976 14.571C8.71567 15.4497 7.94519 16.1178 8.41625 16.789C8.98529 17.1265 10.9646 15.8796 12.2968 17.0599C12.7598 17.139 13.4056 17.804 13.3427 18.3226L13.2413 18.4616C13.0414 18.4507 13.0249 18.3949 12.8545 18.2046C12.8317 18.1792 12.8091 18.1535 12.7868 18.1276C12.5682 17.6366 11.6581 17.2507 11.1027 17.5984C11.094 17.7579 11.0743 17.706 11.1625 17.8243L11.1012 17.8484L11.147 17.9339L11.2346 17.8535L11.3411 17.9046L11.392 18.0713C11.2032 18.314 10.8802 18.1839 10.5687 18.4485C10.4245 18.508 10.2438 18.768 10.0967 18.916C10.2945 19.0387 10.3193 19.1815 10.3963 19.4025C10.3636 19.7586 10.1067 20.0281 9.75052 20.0643C9.387 19.9495 9.56129 19.6499 9.20152 19.4795C8.83036 19.5742 8.51069 19.5229 8.27802 19.8227L8.44495 19.9353C8.53176 20.5322 7.93496 20.3862 7.75971 20.8733L7.79299 20.9968L7.58514 20.9379C7.20587 21.1929 7.32855 21.9249 6.90604 21.9854C6.71852 21.7638 6.73263 21.3577 6.54681 21.0156C5.84889 20.6517 4.97033 20.6904 4.20024 20.716L3.84798 20.7206C4.40524 21.009 4.18726 20.9539 4.39447 21.4165C3.27558 21.4536 2.36265 21.6953 1.27681 21.9396C1.15139 21.9678 0.97388 21.9884 0.861619 21.9187C0.761761 21.9205 0.707782 21.8764 0.61955 21.8259C0.0404457 20.5764 -0.432398 18.8681 0.644065 17.7774C1.59116 16.8177 2.92435 15.9192 4.31049 15.8307C4.83245 15.7973 5.51605 15.965 6.08748 15.9438C6.37845 15.5029 6.04834 15.3137 6.03402 14.6108L5.74981 14.4689ZM8.11389 19.6365C7.04126 18.6951 6.04255 18.5105 4.6432 18.564C4.23773 18.5795 3.67655 18.8791 3.37091 19.1548C3.32796 19.1935 3.364 19.3307 3.37365 19.4034C4.59475 19.5894 5.75601 19.869 6.9713 19.9508C7.19639 19.9659 7.19871 20.0675 7.51607 20.0439C7.70939 19.7322 7.81938 19.9285 8.11389 19.6365Z" fill="#39383B"/>
<path d="M5.74981 14.4689C5.59761 14.227 5.53003 14.2083 5.53058 13.9587C5.89007 13.5719 7.17989 14.0295 7.50788 14.3417C7.59176 14.4217 7.64999 14.4915 7.74976 14.571C8.71567 15.4497 7.94519 16.1178 8.41624 16.789C8.98529 17.1265 10.9646 15.8796 12.2968 17.0599C11.84 17.1574 10.7813 16.7859 10.1891 16.9831C9.79437 17.1144 9.16177 17.5784 8.74083 17.6615C8.06472 17.4138 7.45197 16.9824 6.79277 16.6673C4.73036 15.6814 2.36886 16.6234 1.02397 18.3527C0.0767298 19.5707 1.3868 19.8318 1.55041 20.4304C1.32398 20.7488 0.322494 20.478 0.900957 21.7128L0.861618 21.9187C0.761761 21.9205 0.707782 21.8764 0.61955 21.8259C0.0404457 20.5764 -0.432398 18.8681 0.644065 17.7774C1.59116 16.8177 2.92435 15.9192 4.31049 15.8307C4.83244 15.7973 5.51605 15.965 6.08748 15.9438C6.37845 15.5029 6.04834 15.3137 6.03402 14.6108L5.74981 14.4689Z" fill="#BEC2C7"/>
<path d="M5.75048 14.4689C5.59828 14.227 5.53071 14.2083 5.53125 13.9587C5.89075 13.5719 7.18057 14.0295 7.50856 14.3417C7.59244 14.4217 7.65067 14.4915 7.75043 14.571L7.6759 14.5626L7.62946 14.6336C7.90891 15.1472 8.33203 15.9317 8.07754 16.5146C7.89425 16.6794 7.97444 16.6448 7.75207 16.6888C7.49704 16.4436 7.26976 15.154 7.17832 14.7365C6.5809 14.4882 6.37238 14.4662 5.75048 14.4689Z" fill="#39383B"/>
<path d="M2.00391 20.2778C2.03552 20.2259 2.06824 20.1746 2.10207 20.1242C2.43984 19.6138 3.45966 18.41 4.01056 18.139C5.0836 17.6113 6.87386 17.8675 7.94635 18.3748C8.28901 18.5369 9.16921 19.1019 9.43344 19.0487C9.46624 18.8377 9.49304 18.7139 9.5478 18.5094C9.77078 18.3257 10.7966 17.771 11.1027 17.5981C11.0941 17.7576 11.0744 17.7058 11.1625 17.824L11.1013 17.8482L11.1471 17.9337L11.2347 17.8533L11.3412 17.9044L11.3921 18.0711C11.2033 18.3138 10.8803 18.1837 10.5687 18.4482C10.4246 18.5077 10.2439 18.7677 10.0967 18.9158C10.2945 19.0384 10.3194 19.1813 10.3964 19.4022C10.3637 19.7584 10.1068 20.0279 9.7506 20.0641C9.38707 19.9492 9.56137 19.6497 9.2016 19.4793C8.83044 19.5739 8.51076 19.5227 8.2781 19.8225L8.11397 19.6363C7.04134 18.6949 6.04262 18.5103 4.64327 18.5638C4.2378 18.5793 3.67662 18.8789 3.37099 19.1546C3.32804 19.1933 3.36407 19.3305 3.37373 19.4032C4.59482 19.5892 5.75609 19.8688 6.97137 19.9505C7.19647 19.9656 7.19879 20.0672 7.51614 20.0437C7.3529 20.3038 7.04031 20.5742 6.72671 20.546C5.94409 19.8511 2.99218 20.0128 2.00391 20.2778Z" fill="#BEC2C7"/>
<path d="M10.0963 18.916C10.2941 19.0387 10.3189 19.1815 10.3959 19.4025C10.3633 19.7586 10.1063 20.0281 9.75017 20.0643C9.38665 19.9495 9.56094 19.65 9.20117 19.4796L9.36612 19.413L9.50257 19.514C9.7111 19.4741 9.98188 19.0681 10.0963 18.916Z" fill="#39383B"/>
<path d="M3.84769 20.7202C4.40495 21.0086 4.18697 20.9536 4.39418 21.4161C3.27529 21.4533 2.36236 21.695 1.27652 21.9393C1.1511 21.9674 0.97359 21.9881 0.861328 21.9183L0.900667 21.7124C1.08395 21.7119 2.2123 21.0816 2.4512 21.0162C2.88072 20.8989 3.41287 20.807 3.84769 20.7202Z" fill="#BEC2C7"/>
<path d="M4.20117 20.7162C4.97126 20.6905 5.84982 20.6519 6.54774 21.0157C6.73356 21.3579 6.71945 21.7639 6.90697 21.9855C7.32948 21.925 7.2068 21.193 7.58608 20.938L7.79392 20.9969C8.04486 21.157 8.96563 21.7035 9.23948 21.8467C10.4449 22.6356 11.1258 23.6036 11.0741 25.0158C11.0675 25.1938 11.176 25.2945 11.0359 25.4939C10.9811 26.3239 10.5418 27.7617 10.1475 28.4938C9.81719 29.1071 8.64998 30.1275 7.93153 30.1097C7.69027 29.9961 7.76889 30.063 7.62222 29.8244C7.65079 29.5474 7.60183 28.8362 7.81615 28.756C8.23927 28.3711 8.55028 27.5749 8.71892 27.0367C8.73733 26.9108 8.7419 26.8097 8.74749 26.6751C8.78554 25.7606 8.54087 24.3554 7.88563 23.6986C7.75744 23.5702 7.11638 23.2882 7.00025 23.1265C6.77427 22.8066 6.76377 22.3432 6.45487 22.0777C6.19063 21.8506 5.73955 21.8638 5.50887 21.593C5.4595 21.4291 5.21463 21.1654 5.09475 21.0225L5.1088 20.9918C4.7 20.7098 4.68322 20.8475 4.20117 20.7162Z" fill="#39383B"/>
<path d="M4.20117 20.7162C4.97126 20.6905 5.84982 20.6519 6.54774 21.0157C6.73356 21.3579 6.71945 21.7639 6.90697 21.9855C7.32948 21.925 7.2068 21.193 7.58608 20.938L7.79392 20.9969C8.04486 21.157 8.96563 21.7035 9.23948 21.8467C8.7078 21.8157 6.86715 21.2304 7.76848 22.8255C7.93944 23.1281 8.7762 23.2817 8.97893 23.5885C9.0002 23.6131 9.13563 23.7713 9.14756 23.7806C9.70201 24.5916 10.0385 26.1829 9.66349 27.1213C9.1507 28.4395 8.71987 28.3826 7.93664 29.3532C7.68986 29.2183 7.82815 28.9722 7.81615 28.756C8.23927 28.3711 8.55028 27.5749 8.71892 27.0367C8.73733 26.9108 8.7419 26.8097 8.74749 26.6751C8.78554 25.7606 8.54087 24.3554 7.88563 23.6986C7.75744 23.5702 7.11638 23.2882 7.00025 23.1265C6.77427 22.8066 6.76377 22.3432 6.45487 22.0777C6.19063 21.8506 5.73955 21.8638 5.50887 21.593C5.4595 21.4291 5.21463 21.1654 5.09475 21.0225L5.1088 20.9918C4.7 20.7098 4.68322 20.8475 4.20117 20.7162Z" fill="#BEC2C7"/>
<path d="M9.14644 23.7803C9.7009 24.5913 10.0374 26.1826 9.66237 27.121C9.14958 28.4392 8.71875 28.3824 7.93552 29.3529C7.68874 29.218 7.82703 28.9719 7.81503 28.7557C8.23815 28.3708 8.54916 27.5746 8.7178 27.0365C8.79315 27.1561 8.74862 27.1197 8.89243 27.1673C9.32374 26.759 9.0983 24.5609 9.14644 23.7803Z" fill="#BCBCBC"/>
<path d="M9.66236 27.1213C9.90212 27.6557 9.59377 27.8612 9.79547 28.1821C10.0873 27.8353 10.7827 25.9926 10.9257 25.4907L11.0348 25.4939C10.98 26.3238 10.5407 27.7616 10.1464 28.4937C9.81606 29.1071 8.64885 30.1275 7.9304 30.1096C7.68915 29.9961 7.76777 30.063 7.62109 29.8243C7.64967 29.5473 7.6007 28.8361 7.81503 28.756C7.82703 28.9721 7.68874 29.2183 7.93552 29.3532C8.71875 28.3826 9.14957 28.4394 9.66236 27.1213Z" fill="#4C4C4F"/>
<path d="M9.72653 23.7297C9.5101 23.5716 8.66093 22.7746 8.84668 22.47C9.40092 22.3755 10.0675 23.2426 10.2694 23.6912C10.4052 23.9813 10.4319 24.6614 10.3835 24.9775L10.3138 24.9932C10.1263 24.7165 9.90376 24.0861 9.72653 23.7297Z" fill="#B8B9BA"/>
<path d="M10.2694 23.6909C10.4053 23.981 10.4319 24.6611 10.3835 24.9772L10.3138 24.9929C10.1263 24.7162 9.90379 24.0858 9.72656 23.7294C9.93113 23.7911 9.9996 23.9101 10.13 24.0773C10.254 23.9729 10.2342 23.8803 10.2694 23.6909Z" fill="#9E9FA2"/>
<path d="M1.828 10.8037L1.54574 10.8577C1.41299 10.7121 1.26346 10.5853 1.24805 10.3918C1.42152 10.0718 1.81339 9.99488 2.15076 9.73423C3.34341 9.69982 6.45167 10.7316 6.06817 12.3056L5.94945 12.4077C5.7009 12.3539 5.7024 12.3303 5.58988 12.0872C5.58259 11.3571 3.9245 10.6751 3.30237 10.6106C2.82745 10.5974 2.24305 10.5411 1.828 10.8037Z" fill="#39383B"/>
<path d="M3.30203 10.6108C3.92416 10.6754 5.58224 11.3574 5.58954 12.0875C5.18054 11.8615 4.94371 12.114 4.47114 11.9151C4.39712 11.8839 3.98771 11.5905 3.89827 11.5281C3.54992 11.2455 3.43428 11.3252 3.12285 11.1161C3.10031 10.8981 3.183 10.8376 3.30203 10.6108Z" fill="#B8B9BA" fill-opacity="0.482353"/>
<path d="M11.1024 17.5984C11.6578 17.2507 12.5679 17.6367 12.7865 18.1276L12.7112 18.1527L12.4754 17.9772L12.4084 18.0607L12.5106 18.2305C12.2059 18.501 11.3054 18.2769 10.5684 18.4485C10.8799 18.1839 11.2029 18.314 11.3917 18.0714L11.3408 17.9047L11.2343 17.8536L11.1467 17.9339L11.1009 17.8484L11.1622 17.8243C11.074 17.706 11.0937 17.7579 11.1024 17.5984Z" fill="#B8B9BA" fill-opacity="0.792157"/>
<path d="M1.82658 10.804C2.24164 10.5414 2.82604 10.5977 3.30096 10.6108C3.18193 10.8375 3.09924 10.8981 3.12178 11.1161C3.43321 11.3252 3.54885 11.2455 3.8972 11.5281C3.346 11.3917 2.09092 11.3186 1.86555 11.1888C1.78189 11.0464 1.80568 10.9711 1.82658 10.804Z" fill="#B8B9BA" fill-opacity="0.301961"/>
<path d="M3.84766 20.7204L4.19992 20.7158C4.68197 20.8471 4.69874 20.7095 5.10754 20.9915L5.0935 21.0221C5.21338 21.1651 5.45825 21.4288 5.50762 21.5926C5.16503 21.4616 4.7578 21.4167 4.39415 21.4162C4.18694 20.9537 4.40492 21.0088 3.84766 20.7204Z" fill="#B8B9BA" fill-opacity="0.796078"/>
<path d="M37.1152 24.8216C37.1914 24.477 37.2579 23.9367 37.7013 23.9282L37.7583 24.0671C37.7226 24.3133 37.6666 24.3724 37.5191 24.5648L37.3347 24.5731L37.1152 24.8216Z" fill="#4C4C4F"/>
</svg>
