<svg width="32" height="32" viewBox="0 0 32 32" fill="none" xmlns="http://www.w3.org/2000/svg">
<rect width="32" height="32" rx="5.33333" fill="#021373"/>
<path d="M16.834 19.3335H12.6673M17.6673 12.6669H12.6673M19.334 16.0002H12.6673M9.33398 8.50021C9.33398 8.2792 9.42178 8.06724 9.57806 7.91096C9.73434 7.75468 9.9463 7.66688 10.1673 7.66688C10.3737 7.66575 10.576 7.72357 10.7507 7.83355L11.5282 8.33355C11.7023 8.44486 11.9048 8.50401 12.1115 8.50401C12.3182 8.50401 12.5206 8.44486 12.6948 8.33355L13.4732 7.83355C13.6473 7.72223 13.8498 7.66309 14.0565 7.66309C14.2632 7.66309 14.4656 7.72223 14.6398 7.83355L15.4173 8.33355C15.5915 8.44486 15.7939 8.50401 16.0007 8.50401C16.2074 8.50401 16.4098 8.44486 16.584 8.33355L17.3615 7.83355C17.5357 7.72223 17.7381 7.66309 17.9448 7.66309C18.1515 7.66309 18.354 7.72223 18.5282 7.83355L19.3065 8.33355C19.4807 8.44486 19.6831 8.50401 19.8898 8.50401C20.0965 8.50401 20.299 8.44486 20.4732 8.33355L21.2507 7.83355C21.4253 7.72357 21.6276 7.66575 21.834 7.66688C22.055 7.66688 22.267 7.75468 22.4232 7.91096C22.5795 8.06724 22.6673 8.2792 22.6673 8.50021V23.5002C22.6673 23.7212 22.5795 23.9332 22.4232 24.0895C22.267 24.2458 22.055 24.3335 21.834 24.3335C21.6276 24.3347 21.4253 24.2769 21.2507 24.1669L20.4732 23.6669C20.299 23.5556 20.0965 23.4964 19.8898 23.4964C19.6831 23.4964 19.4807 23.5556 19.3065 23.6669L18.5282 24.1669C18.354 24.2782 18.1515 24.3373 17.9448 24.3373C17.7381 24.3373 17.5357 24.2782 17.3615 24.1669L16.584 23.6669C16.4098 23.5556 16.2074 23.4964 16.0007 23.4964C15.7939 23.4964 15.5915 23.5556 15.4173 23.6669L14.6398 24.1669C14.4656 24.2782 14.2632 24.3373 14.0565 24.3373C13.8498 24.3373 13.6473 24.2782 13.4732 24.1669L12.6948 23.6669C12.5206 23.5556 12.3182 23.4964 12.1115 23.4964C11.9048 23.4964 11.7023 23.5556 11.5282 23.6669L10.7507 24.1669C10.576 24.2769 10.3737 24.3347 10.1673 24.3335C9.9463 24.3335 9.73434 24.2458 9.57806 24.0895C9.42178 23.9332 9.33398 23.7212 9.33398 23.5002V8.50021Z" stroke="white" stroke-width="1.66667" stroke-linecap="round" stroke-linejoin="round"/>
</svg>
