<svg width="32" height="32" viewBox="0 0 32 32" fill="none" xmlns="http://www.w3.org/2000/svg">
<rect width="32" height="32" rx="5.33333" fill="#021373"/>
<path d="M22.6673 16.8335C22.6673 21.0002 19.7507 23.0835 16.284 24.2919C16.1025 24.3534 15.9053 24.3505 15.7257 24.2835C12.2507 23.0835 9.33398 21.0002 9.33398 16.8335V11.0002C9.33398 10.7792 9.42178 10.5672 9.57806 10.411C9.73434 10.2547 9.9463 10.1669 10.1673 10.1669C11.834 10.1669 13.9173 9.16688 15.3673 7.90021C15.5439 7.74938 15.7684 7.6665 16.0007 7.6665C16.2329 7.6665 16.4574 7.74938 16.634 7.90021C18.0923 9.17521 20.1673 10.1669 21.834 10.1669C22.055 10.1669 22.267 10.2547 22.4232 10.411C22.5795 10.5672 22.6673 10.7792 22.6673 11.0002V16.8335Z" stroke="white" stroke-width="1.66667" stroke-linecap="round" stroke-linejoin="round"/>
</svg>
