<svg width="44" height="44" viewBox="0 0 44 44" fill="none" xmlns="http://www.w3.org/2000/svg">
<rect width="44" height="44" rx="9.42857" fill="#021373"/>
<path d="M26.6398 26.2356C27.7447 25.0571 28.2972 23.6452 28.2972 22.0001C28.2972 20.6988 27.935 19.5202 27.2107 18.4644C26.4863 17.4086 25.5349 16.6475 24.3563 16.1809V16.5124C24.3563 16.9298 24.1967 17.292 23.8775 17.5989C23.5583 17.9058 23.19 18.0593 22.7726 18.0593H21.2257V19.643C21.2257 19.864 21.1459 20.0481 20.9863 20.1955C20.8267 20.3428 20.6364 20.4164 20.4155 20.4164H18.8686V22.0001H23.5829C23.8039 22.0001 23.988 22.0738 24.1353 22.2211C24.2826 22.3684 24.3563 22.5526 24.3563 22.7736V25.1307H25.1297C25.8664 25.1307 26.3697 25.499 26.6398 26.2356ZM21.2257 28.2245V26.7144C20.8083 26.7144 20.44 26.5548 20.1208 26.2356C19.8016 25.9164 19.642 25.5481 19.642 25.1307V24.3573L15.8853 20.6006C15.7626 21.0917 15.7012 21.5582 15.7012 22.0001C15.7012 23.5961 16.2352 24.9834 17.3033 26.162C18.3714 27.3405 19.6789 28.028 21.2257 28.2245ZM16.4562 16.4572C17.9908 14.9226 19.8384 14.1553 21.9992 14.1553C24.1599 14.1553 26.0075 14.9226 27.5421 16.4572C29.0767 17.9918 29.844 19.8394 29.844 22.0001C29.844 24.1609 29.0767 26.0085 27.5421 27.5431C26.0075 29.0777 24.1599 29.845 21.9992 29.845C19.8384 29.845 17.9908 29.0777 16.4562 27.5431C14.9216 26.0085 14.1543 24.1609 14.1543 22.0001C14.1543 19.8394 14.9216 17.9918 16.4562 16.4572Z" fill="white"/>
</svg>
