<svg width="32" height="24" viewBox="0 0 32 24" fill="none" xmlns="http://www.w3.org/2000/svg">
<path d="M0 24V10.6667C0 7.55556 0.888889 4.88889 2.66667 2.66667C4.44444 0.444444 6.66667 0 9.33333 0V4C7.55556 4.44444 6.22222 5.33333 5.33333 6.66667C4.44444 8 4 9.55556 4 11.3333H10.6667V24H0ZM21.3333 24V10.6667C21.3333 7.55556 22.2222 4.88889 24 2.66667C25.7778 0.444444 28 0 30.6667 0V4C28.8889 4.44444 27.5556 5.33333 26.6667 6.66667C25.7778 8 25.3333 9.55556 25.3333 11.3333H32V24H21.3333Z" fill="#021373"/>
</svg>
