<svg width="31" height="27" viewBox="0 0 31 27" fill="none" xmlns="http://www.w3.org/2000/svg">
<path d="M28.5704 12.075V24C28.5704 24.825 28.2767 25.5312 27.6892 26.1187C27.1017 26.7062 26.3954 27 25.5704 27H4.57041C3.74541 27 3.03916 26.7062 2.45166 26.1187C1.86416 25.5312 1.57041 24.825 1.57041 24V12.075C0.995408 11.55 0.551658 10.875 0.239158 10.05C-0.0733418 9.225 -0.0795919 8.325 0.220408 7.35L1.79541 2.25C1.99541 1.6 2.35166 1.0625 2.86416 0.6375C3.37666 0.2125 3.97041 0 4.64541 0H25.4954C26.1704 0 26.7579 0.20625 27.2579 0.61875C27.7579 1.03125 28.1204 1.575 28.3454 2.25L29.9204 7.35C30.2204 8.325 30.2142 9.2125 29.9017 10.0125C29.5892 10.8125 29.1454 11.5 28.5704 12.075ZM18.3704 10.5C19.0454 10.5 19.5579 10.2687 19.9079 9.80625C20.2579 9.34375 20.3954 8.825 20.3204 8.25L19.4954 3H16.5704V8.55C16.5704 9.075 16.7454 9.53125 17.0954 9.91875C17.4454 10.3062 17.8704 10.5 18.3704 10.5ZM11.6204 10.5C12.1954 10.5 12.6642 10.3062 13.0267 9.91875C13.3892 9.53125 13.5704 9.075 13.5704 8.55V3H10.6454L9.82041 8.25C9.72041 8.85 9.85166 9.375 10.2142 9.825C10.5767 10.275 11.0454 10.5 11.6204 10.5ZM4.94541 10.5C5.39541 10.5 5.78916 10.3375 6.12666 10.0125C6.46416 9.6875 6.67041 9.275 6.74541 8.775L7.57041 3H4.64541L3.14541 8.025C2.99541 8.525 3.07666 9.0625 3.38916 9.6375C3.70166 10.2125 4.22041 10.5 4.94541 10.5ZM25.1954 10.5C25.9204 10.5 26.4454 10.2125 26.7704 9.6375C27.0954 9.0625 27.1704 8.525 26.9954 8.025L25.4204 3H22.5704L23.3954 8.775C23.4704 9.275 23.6767 9.6875 24.0142 10.0125C24.3517 10.3375 24.7454 10.5 25.1954 10.5ZM4.57041 24H25.5704V13.425C25.4454 13.475 25.3642 13.5 25.3267 13.5C25.2892 13.5 25.2454 13.5 25.1954 13.5C24.5204 13.5 23.9267 13.3875 23.4142 13.1625C22.9017 12.9375 22.3954 12.575 21.8954 12.075C21.4454 12.525 20.9329 12.875 20.3579 13.125C19.7829 13.375 19.1704 13.5 18.5204 13.5C17.8454 13.5 17.2142 13.375 16.6267 13.125C16.0392 12.875 15.5204 12.525 15.0704 12.075C14.6454 12.525 14.1517 12.875 13.5892 13.125C13.0267 13.375 12.4204 13.5 11.7704 13.5C11.0454 13.5 10.3892 13.375 9.80166 13.125C9.21416 12.875 8.69541 12.525 8.24541 12.075C7.72041 12.6 7.20166 12.9688 6.68916 13.1812C6.17666 13.3937 5.59541 13.5 4.94541 13.5C4.89541 13.5 4.83916 13.5 4.77666 13.5C4.71416 13.5 4.64541 13.475 4.57041 13.425V24ZM25.5704 24H4.57041C4.64541 24 4.71416 24 4.77666 24C4.83916 24 4.89541 24 4.94541 24C5.59541 24 6.17666 24 6.68916 24C7.20166 24 7.72041 24 8.24541 24C8.47041 24 8.71416 24 8.97666 24C9.23916 24 9.52041 24 9.82041 24C10.1204 24 10.4329 24 10.7579 24C11.0829 24 11.4204 24 11.7704 24C12.0954 24 12.4079 24 12.7079 24C13.0079 24 13.3017 24 13.5892 24C13.8767 24 14.1454 24 14.3954 24C14.6454 24 14.8704 24 15.0704 24C15.5204 24 16.0392 24 16.6267 24C17.2142 24 17.8454 24 18.5204 24C18.8454 24 19.1579 24 19.4579 24C19.7579 24 20.0517 24 20.3392 24C20.6267 24 20.9017 24 21.1642 24C21.4267 24 21.6704 24 21.8954 24C22.3954 24 22.9017 24 23.4142 24C23.9267 24 24.5204 24 25.1954 24C25.2454 24 25.2892 24 25.3267 24C25.3642 24 25.4454 24 25.5704 24Z" fill="#F20530"/>
</svg>
