<svg width="40" height="40" viewBox="0 0 40 40" fill="none" xmlns="http://www.w3.org/2000/svg">
<rect width="40" height="40" rx="20" fill="#FFDDE3"/>
<path d="M15.7812 24.2188C15.2188 23.6875 14.7812 23.0625 14.4688 22.3438C14.1562 21.625 14 20.8438 14 20C14 19.1562 14.1562 18.375 14.4688 17.6562C14.7812 16.9375 15.2188 16.3125 15.7812 15.7812L17.1875 17.1875C16.8125 17.5312 16.5234 17.9453 16.3203 18.4297C16.1172 18.9141 16.0156 19.4375 16.0156 20C16.0156 20.5625 16.1172 21.0859 16.3203 21.5703C16.5234 22.0547 16.8125 22.4688 17.1875 22.8125L15.7812 24.2188ZM24.2188 24.2188C24.7812 23.6875 25.2188 23.0625 25.5312 22.3438C25.8438 21.625 26 20.8438 26 20C26 19.1562 25.8438 18.375 25.5312 17.6562C25.2188 16.9375 24.7812 16.3125 24.2188 15.7812L22.8125 17.1875C23.1875 17.5312 23.4766 17.9453 23.6797 18.4297C23.8828 18.9141 23.9844 19.4375 23.9844 20C23.9844 20.5625 23.8828 21.0859 23.6797 21.5703C23.4766 22.0547 23.1875 22.4688 22.8125 22.8125L24.2188 24.2188ZM20 17.9844C19.4375 17.9844 18.9609 18.1797 18.5703 18.5703C18.1797 18.9609 17.9844 19.4375 17.9844 20C17.9844 20.5625 18.1797 21.0391 18.5703 21.4297C18.9609 21.8203 19.4375 22.0156 20 22.0156C20.5625 22.0156 21.0391 21.8203 21.4297 21.4297C21.8203 21.0391 22.0156 20.5625 22.0156 20C22.0156 19.4375 21.8203 18.9609 21.4297 18.5703C21.0391 18.1797 20.5625 17.9844 20 17.9844ZM28.0156 20C28.0156 21.0938 27.8047 22.125 27.3828 23.0938C26.9609 24.0625 26.3906 24.9219 25.6719 25.6719L27.0781 27.0781C27.9844 26.1719 28.6953 25.1094 29.2109 23.8906C29.7266 22.6719 29.9844 21.375 29.9844 20C29.9844 18.625 29.7266 17.3281 29.2109 16.1094C28.6953 14.8906 27.9844 13.8281 27.0781 12.9219L25.6719 14.3281C26.3906 15.0781 26.9609 15.9375 27.3828 16.9062C27.8047 17.875 28.0156 18.9062 28.0156 20ZM14.3281 14.3281L12.9219 12.9219C12.0156 13.8281 11.3047 14.8906 10.7891 16.1094C10.2734 17.3281 10.0156 18.625 10.0156 20C10.0156 21.375 10.2734 22.6719 10.7891 23.8906C11.3047 25.1094 12.0156 26.1719 12.9219 27.0781L14.3281 25.6719C13.6094 24.9219 13.0391 24.0625 12.6172 23.0938C12.1953 22.125 11.9844 21.0938 11.9844 20C11.9844 18.9062 12.1953 17.875 12.6172 16.9062C13.0391 15.9375 13.6094 15.0781 14.3281 14.3281Z" fill="#F20530"/>
</svg>
