<svg width="17" height="12" viewBox="0 0 17 12" fill="none" xmlns="http://www.w3.org/2000/svg">
<path d="M4.125 12C2.9875 12 2.01562 11.6063 1.20938 10.8188C0.403125 10.0312 0 9.06875 0 7.93125C0 6.95625 0.29375 6.0875 0.88125 5.325C1.46875 4.5625 2.2375 4.075 3.1875 3.8625C3.5 2.7125 4.125 1.78125 5.0625 1.06875C6 0.35625 7.0625 0 8.25 0C9.7125 0 10.9531 0.509375 11.9719 1.52813C12.9906 2.54688 13.5 3.7875 13.5 5.25C14.3625 5.35 15.0781 5.72187 15.6469 6.36562C16.2156 7.00938 16.5 7.7625 16.5 8.625C16.5 9.5625 16.1719 10.3594 15.5156 11.0156C14.8594 11.6719 14.0625 12 13.125 12H4.125ZM4.125 10.5H13.125C13.65 10.5 14.0938 10.3188 14.4563 9.95625C14.8188 9.59375 15 9.15 15 8.625C15 8.1 14.8188 7.65625 14.4563 7.29375C14.0938 6.93125 13.65 6.75 13.125 6.75H12V5.25C12 4.2125 11.6344 3.32812 10.9031 2.59687C10.1719 1.86562 9.2875 1.5 8.25 1.5C7.2125 1.5 6.32812 1.86562 5.59688 2.59687C4.86563 3.32812 4.5 4.2125 4.5 5.25H4.125C3.4 5.25 2.78125 5.50625 2.26875 6.01875C1.75625 6.53125 1.5 7.15 1.5 7.875C1.5 8.6 1.75625 9.21875 2.26875 9.73125C2.78125 10.2437 3.4 10.5 4.125 10.5Z" fill="#F20530"/>
</svg>
