<svg width="17" height="20" viewBox="0 0 17 20" fill="none" xmlns="http://www.w3.org/2000/svg">
<path d="M5.66667 1.90476V0H11.3333V1.90476H5.66667ZM7.55556 12.381H9.44444V6.66667H7.55556V12.381ZM8.5 20C7.33518 20 6.23727 19.7738 5.20625 19.3214C4.17523 18.869 3.27407 18.254 2.50278 17.4762C1.73148 16.6984 1.12153 15.7897 0.672917 14.75C0.224306 13.7103 0 12.6032 0 11.4286C0 10.254 0.224306 9.14683 0.672917 8.10714C1.12153 7.06746 1.73148 6.15873 2.50278 5.38095C3.27407 4.60318 4.17523 3.9881 5.20625 3.53571C6.23727 3.08333 7.33518 2.85714 8.5 2.85714C9.47593 2.85714 10.4125 3.01587 11.3097 3.33333C12.2069 3.65079 13.0491 4.11111 13.8361 4.71429L15.1583 3.38095L16.4806 4.71429L15.1583 6.04762C15.7565 6.84127 16.213 7.69048 16.5278 8.59524C16.8426 9.5 17 10.4444 17 11.4286C17 12.6032 16.7757 13.7103 16.3271 14.75C15.8785 15.7897 15.2685 16.6984 14.4972 17.4762C13.7259 18.254 12.8248 18.869 11.7937 19.3214C10.7627 19.7738 9.66481 20 8.5 20Z" fill="#021373"/>
</svg>
