<svg width="32" height="32" viewBox="0 0 32 32" fill="none" xmlns="http://www.w3.org/2000/svg">
<rect width="32" height="32" rx="5.33333" fill="#021373"/>
<path d="M15.166 20.1666L16.8327 21.8333C16.9968 21.9974 17.1917 22.1276 17.4062 22.2165C17.6207 22.3053 17.8505 22.351 18.0827 22.351C18.3148 22.351 18.5447 22.3053 18.7592 22.2165C18.9737 22.1276 19.1685 21.9974 19.3327 21.8333C19.4968 21.6691 19.627 21.4742 19.7159 21.2598C19.8047 21.0453 19.8504 20.8154 19.8504 20.5833C19.8504 20.3511 19.8047 20.1212 19.7159 19.9068C19.627 19.6923 19.4968 19.4974 19.3327 19.3333M17.666 17.6666L19.7493 19.7499C20.0809 20.0815 20.5305 20.2677 20.9993 20.2677C21.4682 20.2677 21.9178 20.0815 22.2493 19.7499C22.5809 19.4184 22.7671 18.9688 22.7671 18.4999C22.7671 18.0311 22.5809 17.5815 22.2493 17.2499L19.016 14.0166C18.5473 13.5484 17.9119 13.2855 17.2493 13.2855C16.5868 13.2855 15.9514 13.5484 15.4827 14.0166L14.7493 14.7499C14.4178 15.0815 13.9682 15.2677 13.4993 15.2677C13.0305 15.2677 12.5809 15.0815 12.2493 14.7499C11.9178 14.4184 11.7316 13.9688 11.7316 13.4999C11.7316 13.0311 11.9178 12.5815 12.2493 12.2499L14.591 9.90826C15.3512 9.15005 16.3426 8.66706 17.4082 8.53574C18.4738 8.40443 19.5528 8.63229 20.4743 9.18326L20.866 9.4166C21.2208 9.63075 21.6427 9.70503 22.0493 9.62493L23.4993 9.33326M23.4993 8.49993L24.3327 17.6666H22.666M8.49935 8.49993L7.66602 17.6666L13.0827 23.0833C13.4142 23.4148 13.8638 23.601 14.3327 23.601C14.8015 23.601 15.2512 23.4148 15.5827 23.0833C15.9142 22.7517 16.1004 22.3021 16.1004 21.8333C16.1004 21.3644 15.9142 20.9148 15.5827 20.5833M8.49935 9.33326H15.166" stroke="white" stroke-width="1.66667" stroke-linecap="round" stroke-linejoin="round"/>
</svg>
