<svg width="48" height="48" viewBox="0 0 48 48" fill="none" xmlns="http://www.w3.org/2000/svg">
<rect width="48" height="48" rx="12" fill="#021373"/>
<path d="M22.5 24.9844H20.0156V21.9844H22.5V19.5H25.5V21.9844H27.9844V24.9844H25.5V27.5156H22.5V24.9844ZM24 14.0156L15.9844 17.0156V23.1094C15.9844 24.3594 16.1875 25.5781 16.5938 26.7656C17 27.9531 17.5625 29.0391 18.2812 30.0234C19 31.0078 19.8438 31.8438 20.8125 32.5312C21.7812 33.2188 22.8438 33.7031 24 33.9844C25.1562 33.7031 26.2188 33.2188 27.1875 32.5312C28.1562 31.8438 29 31.0078 29.7188 30.0234C30.4375 29.0391 31 27.9531 31.4062 26.7656C31.8125 25.5781 32.0156 24.3594 32.0156 23.1094V17.0156L24 14.0156Z" fill="white"/>
</svg>
