<svg width="18" height="22" viewBox="0 0 18 22" fill="none" xmlns="http://www.w3.org/2000/svg">
<path d="M9 22C6.39375 21.3583 4.24219 19.8963 2.54531 17.6138C0.848438 15.3313 0 12.7967 0 10.01V3.3L9 0L18 3.3V10.01C18 12.7967 17.1516 15.3313 15.4547 17.6138C13.7578 19.8963 11.6062 21.3583 9 22ZM9 19.69C10.8188 19.14 12.3375 18.0538 13.5563 16.4312C14.775 14.8088 15.4875 12.9983 15.6937 11H9V2.3375L2.25 4.8125V10.01C2.25 10.2117 2.25 10.3767 2.25 10.505C2.25 10.6333 2.26875 10.7983 2.30625 11H9V19.69Z" fill="#334155"/>
</svg>
