<svg width="36" height="36" viewBox="0 0 36 36" fill="none" xmlns="http://www.w3.org/2000/svg">
<rect width="36" height="36" rx="7.71429" fill="#021373"/>
<path d="M22.2599 21.8871C23.274 20.8054 23.7811 19.5097 23.7811 17.9998C23.7811 16.8054 23.4487 15.7237 22.7839 14.7547C22.1191 13.7857 21.2459 13.0871 20.1642 12.659V12.9632C20.1642 13.3463 20.0177 13.6787 19.7247 13.9604C19.4318 14.2421 19.0937 14.3829 18.7106 14.3829H17.2909V15.8364C17.2909 16.0392 17.2177 16.2083 17.0712 16.3435C16.9247 16.4787 16.7501 16.5463 16.5473 16.5463H15.1275V17.9998H19.4543C19.6571 17.9998 19.8261 18.0674 19.9613 18.2026C20.0966 18.3378 20.1642 18.5068 20.1642 18.7097V20.873H20.874C21.5501 20.873 22.012 21.2111 22.2599 21.8871ZM17.2909 23.7125V22.3266C16.9078 22.3266 16.5698 22.1801 16.2768 21.8871C15.9839 21.5942 15.8374 21.2561 15.8374 20.873V20.1632L12.3895 16.7153C12.2768 17.166 12.2205 17.5942 12.2205 17.9998C12.2205 19.4646 12.7106 20.7378 13.6909 21.8195C14.6712 22.9012 15.8712 23.5322 17.2909 23.7125ZM12.9135 12.9125C14.3219 11.504 16.0177 10.7998 18.0008 10.7998C19.9839 10.7998 21.6797 11.504 23.0881 12.9125C24.4966 14.3209 25.2008 16.0167 25.2008 17.9998C25.2008 19.9829 24.4966 21.6787 23.0881 23.0871C21.6797 24.4956 19.9839 25.1998 18.0008 25.1998C16.0177 25.1998 14.3219 24.4956 12.9135 23.0871C11.505 21.6787 10.8008 19.9829 10.8008 17.9998C10.8008 16.0167 11.505 14.3209 12.9135 12.9125Z" fill="white"/>
</svg>
