<svg width="40" height="40" viewBox="0 0 40 40" fill="none" xmlns="http://www.w3.org/2000/svg">
<rect width="40" height="40" rx="7.27273" fill="#021373"/>
<path d="M10.9316 18.2091C10.9316 16.6977 11.2679 15.3111 11.9405 14.0491C12.613 12.7871 13.5161 11.7404 14.6496 10.9092L15.7151 12.3601C14.8083 13.0251 14.0866 13.8639 13.5501 14.8765C13.0136 15.8892 12.7453 17 12.7453 18.2091H10.9316ZM27.2545 18.2091C27.2545 17 26.9862 15.8892 26.4497 14.8765C25.9131 13.8639 25.1914 13.0251 24.2846 12.3601L25.3501 10.9092C26.4837 11.7404 27.3867 12.7871 28.0593 14.0491C28.7318 15.3111 29.0681 16.6977 29.0681 18.2091H27.2545ZM12.7453 26.3705V24.5569H14.5589V18.2091C14.5589 16.9547 14.9368 15.84 15.6925 14.8652C16.4482 13.8904 17.4305 13.2518 18.6396 12.9495V12.3148C18.6396 11.9369 18.7719 11.6157 19.0364 11.3513C19.3009 11.0868 19.622 10.9545 19.9999 10.9545C20.3777 10.9545 20.6989 11.0868 20.9634 11.3513C21.2279 11.6157 21.3601 11.9369 21.3601 12.3148V12.9495C22.5692 13.2518 23.5516 13.8904 24.3073 14.8652C25.063 15.84 25.4408 16.9547 25.4408 18.2091V24.5569H27.2545V26.3705H12.7453ZM19.9999 29.091C19.5011 29.091 19.0742 28.9134 18.719 28.5582C18.3638 28.2031 18.1862 27.7761 18.1862 27.2774H21.8135C21.8135 27.7761 21.6359 28.2031 21.2808 28.5582C20.9256 28.9134 20.4986 29.091 19.9999 29.091ZM16.3726 24.5569H23.6272V18.2091C23.6272 17.2116 23.272 16.3577 22.5617 15.6473C21.8513 14.937 20.9974 14.5818 19.9999 14.5818C19.0024 14.5818 18.1484 14.937 17.4381 15.6473C16.7278 16.3577 16.3726 17.2116 16.3726 18.2091V24.5569Z" fill="#F9F9F9"/>
</svg>
