<svg width="40" height="40" viewBox="0 0 40 40" fill="none" xmlns="http://www.w3.org/2000/svg">
<rect width="40" height="40" rx="7.27273" fill="#021373"/>
<path d="M19.9991 29.091C18.7415 29.091 17.5597 28.8524 16.4537 28.3751C15.3476 27.8978 14.3855 27.2501 13.5673 26.4319C12.7491 25.6137 12.1014 24.6516 11.6241 23.5455C11.1468 22.4395 10.9082 21.2577 10.9082 20.0001C10.9082 18.7425 11.1468 17.5607 11.6241 16.4546C12.1014 15.3486 12.7491 14.3865 13.5673 13.5683C14.3855 12.7501 15.3476 12.1024 16.4537 11.6251C17.5597 11.1478 18.7415 10.9092 19.9991 10.9092C21.2567 10.9092 22.4385 11.1478 23.5446 11.6251C24.6506 12.1024 25.6127 12.7501 26.4309 13.5683C27.2491 14.3865 27.8968 15.3486 28.3741 16.4546C28.8514 17.5607 29.09 18.7425 29.09 20.0001C29.09 21.2577 28.8514 22.4395 28.3741 23.5455C27.8968 24.6516 27.2491 25.6137 26.4309 26.4319C25.6127 27.2501 24.6506 27.8978 23.5446 28.3751C22.4385 28.8524 21.2567 29.091 19.9991 29.091ZM19.9991 27.2728C20.8476 27.2728 21.6468 27.1402 22.3968 26.8751C23.1468 26.6099 23.8324 26.2349 24.4537 25.7501L23.1582 24.4546C22.7188 24.7728 22.2302 25.019 21.6923 25.1933C21.1544 25.3675 20.59 25.4546 19.9991 25.4546C18.484 25.4546 17.1961 24.9243 16.1355 23.8637C15.0749 22.8031 14.5446 21.5152 14.5446 20.0001C14.5446 18.4849 15.0749 17.1971 16.1355 16.1365C17.1961 15.0758 18.484 14.5455 19.9991 14.5455C21.5143 14.5455 22.8021 15.0758 23.8627 16.1365C24.9234 17.1971 25.4537 18.4849 25.4537 20.0001C25.4537 20.591 25.3627 21.1592 25.1809 21.7046C24.9991 22.2501 24.7491 22.7425 24.4309 23.1819L25.7264 24.4774C26.2112 23.8562 26.59 23.1668 26.8627 22.4092C27.1355 21.6516 27.2718 20.8486 27.2718 20.0001C27.2718 17.9698 26.5673 16.2501 25.1582 14.841C23.7491 13.4319 22.0294 12.7274 19.9991 12.7274C17.9688 12.7274 16.2491 13.4319 14.84 14.841C13.4309 16.2501 12.7264 17.9698 12.7264 20.0001C12.7264 22.0304 13.4309 23.7501 14.84 25.1592C16.2491 26.5683 17.9688 27.2728 19.9991 27.2728ZM19.9991 23.6365C20.3324 23.6365 20.6544 23.5948 20.965 23.5115C21.2756 23.4281 21.5673 23.3031 21.84 23.1365L20.4537 21.7501C20.3779 21.7804 20.3021 21.7993 20.2264 21.8069C20.1506 21.8145 20.0749 21.8183 19.9991 21.8183C19.4991 21.8183 19.0711 21.6402 18.715 21.2842C18.359 20.9281 18.1809 20.5001 18.1809 20.0001C18.1809 19.5001 18.359 19.0721 18.715 18.716C19.0711 18.3599 19.4991 18.1819 19.9991 18.1819C20.4991 18.1819 20.9271 18.3599 21.2832 18.716C21.6393 19.0721 21.8173 19.5001 21.8173 20.0001C21.8173 20.091 21.8135 20.1781 21.8059 20.2615C21.7984 20.3448 21.7794 20.4243 21.7491 20.5001L23.1127 21.8637C23.2794 21.591 23.4082 21.2993 23.4991 20.9887C23.59 20.6781 23.6355 20.3486 23.6355 20.0001C23.6355 19.0001 23.2794 18.144 22.5673 17.4319C21.8552 16.7198 20.9991 16.3637 19.9991 16.3637C18.9991 16.3637 18.1431 16.7198 17.4309 17.4319C16.7188 18.144 16.3627 19.0001 16.3627 20.0001C16.3627 21.0001 16.7188 21.8561 17.4309 22.5683C18.1431 23.2804 18.9991 23.6365 19.9991 23.6365Z" fill="#F9F9F9"/>
</svg>
