<svg width="20" height="20" viewBox="0 0 20 20" fill="none" xmlns="http://www.w3.org/2000/svg">
<path d="M7.96875 15L16.9688 6L15.5625 4.54688L7.96875 12.1406L4.40625 8.57812L3 9.98438L7.96875 15ZM2.92969 2.92969C4.88281 0.976562 7.23438 0 9.98438 0C12.7344 0 15.0859 0.976562 17.0391 2.92969C18.9922 4.88281 19.9688 7.23438 19.9688 9.98438C19.9688 12.7344 18.9922 15.0859 17.0391 17.0391C15.0859 18.9922 12.7344 19.9688 9.98438 19.9688C7.23438 19.9688 4.88281 18.9922 2.92969 17.0391C0.976562 15.0859 0 12.7344 0 9.98438C0 7.23438 0.976562 4.88281 2.92969 2.92969Z" fill="#021373"/>
</svg>
