<svg width="72" height="72" viewBox="0 0 72 72" fill="none" xmlns="http://www.w3.org/2000/svg">
<rect width="72" height="72" rx="7.2" fill="#FFDDE3"/>
<path d="M36.0021 32.4V37.2M36.0021 42H36.0141M47.6781 43.2L38.0781 26.4C37.8687 26.0307 37.5652 25.7235 37.1984 25.5097C36.8316 25.296 36.4146 25.1833 35.9901 25.1833C35.5655 25.1833 35.1486 25.296 34.7818 25.5097C34.4149 25.7235 34.1114 26.0307 33.9021 26.4L24.3021 43.2C24.0905 43.5665 23.9795 43.9823 23.9805 44.4054C23.9814 44.8286 24.0942 45.2439 24.3074 45.6094C24.5206 45.9749 24.8266 46.2775 25.1945 46.4866C25.5624 46.6957 25.979 46.8038 26.4021 46.8H45.6021C46.0231 46.7996 46.4367 46.6884 46.8012 46.4776C47.1657 46.2667 47.4683 45.9637 47.6787 45.599C47.889 45.2342 47.9997 44.8205 47.9996 44.3994C47.9995 43.9783 47.8886 43.5647 47.6781 43.2Z" stroke="#F20530" stroke-width="2.4" stroke-linecap="round" stroke-linejoin="round"/>
</svg>
