<svg width="27" height="24" viewBox="0 0 27 24" fill="none" xmlns="http://www.w3.org/2000/svg">
<path d="M4.5 21V22.5C4.5 22.925 4.35625 23.2812 4.06875 23.5688C3.78125 23.8563 3.425 24 3 24H1.5C1.075 24 0.71875 23.8563 0.43125 23.5688C0.14375 23.2812 0 22.925 0 22.5V10.5L3.15 1.5C3.3 1.05 3.56875 0.6875 3.95625 0.4125C4.34375 0.1375 4.775 0 5.25 0H21.75C22.225 0 22.6562 0.1375 23.0438 0.4125C23.4313 0.6875 23.7 1.05 23.85 1.5L27 10.5V22.5C27 22.925 26.8563 23.2812 26.5688 23.5688C26.2812 23.8563 25.925 24 25.5 24H24C23.575 24 23.2188 23.8563 22.9312 23.5688C22.6437 23.2812 22.5 22.925 22.5 22.5V21H4.5ZM4.2 7.5H22.8L21.225 3H5.775L4.2 7.5ZM3 10.5V18V10.5ZM6.75 16.5C7.375 16.5 7.90625 16.2812 8.34375 15.8438C8.78125 15.4062 9 14.875 9 14.25C9 13.625 8.78125 13.0938 8.34375 12.6562C7.90625 12.2188 7.375 12 6.75 12C6.125 12 5.59375 12.2188 5.15625 12.6562C4.71875 13.0938 4.5 13.625 4.5 14.25C4.5 14.875 4.71875 15.4062 5.15625 15.8438C5.59375 16.2812 6.125 16.5 6.75 16.5ZM20.25 16.5C20.875 16.5 21.4062 16.2812 21.8438 15.8438C22.2812 15.4062 22.5 14.875 22.5 14.25C22.5 13.625 22.2812 13.0938 21.8438 12.6562C21.4062 12.2188 20.875 12 20.25 12C19.625 12 19.0938 12.2188 18.6562 12.6562C18.2188 13.0938 18 13.625 18 14.25C18 14.875 18.2188 15.4062 18.6562 15.8438C19.0938 16.2812 19.625 16.5 20.25 16.5ZM3 18H24V10.5H3V18Z" fill="#F20530"/>
</svg>
