<svg width="40" height="40" viewBox="0 0 40 40" fill="none" xmlns="http://www.w3.org/2000/svg">
<rect width="40" height="40" rx="7.27273" fill="#021373"/>
<path d="M17.4018 12.6408V10.9092H22.5966V12.6408H17.4018ZM19.1334 22.1646H20.865V16.9698H19.1334V22.1646ZM19.9992 29.091C18.9314 29.091 17.9249 28.8854 16.9798 28.4741C16.0346 28.0629 15.2085 27.5037 14.5014 26.7966C13.7943 26.0896 13.2352 25.2634 12.8239 24.3183C12.4127 23.3731 12.207 22.3666 12.207 21.2988C12.207 20.231 12.4127 19.2245 12.8239 18.2793C13.2352 17.3341 13.7943 16.508 14.5014 15.801C15.2085 15.0939 16.0346 14.5347 16.9798 14.1235C17.9249 13.7122 18.9314 13.5066 19.9992 13.5066C20.8939 13.5066 21.7525 13.6509 22.575 13.9395C23.3975 14.2281 24.1695 14.6466 24.891 15.1949L26.1031 13.9828L27.3153 15.1949L26.1031 16.407C26.6515 17.1285 27.0699 17.9005 27.3585 18.723C27.6471 19.5455 27.7914 20.4041 27.7914 21.2988C27.7914 22.3666 27.5858 23.3731 27.1746 24.3183C26.7633 25.2634 26.2041 26.0896 25.4971 26.7966C24.79 27.5037 23.9639 28.0629 23.0187 28.4741C22.0736 28.8854 21.0671 29.091 19.9992 29.091ZM19.9992 27.3594C21.6731 27.3594 23.1017 26.7678 24.285 25.5845C25.4682 24.4012 26.0598 22.9727 26.0598 21.2988C26.0598 19.6249 25.4682 18.1963 24.285 17.0131C23.1017 15.8298 21.6731 15.2382 19.9992 15.2382C18.3254 15.2382 16.8968 15.8298 15.7135 17.0131C14.5303 18.1963 13.9386 19.6249 13.9386 21.2988C13.9386 22.9727 14.5303 24.4012 15.7135 25.5845C16.8968 26.7678 18.3254 27.3594 19.9992 27.3594Z" fill="#F9F9F9"/>
</svg>
