<svg width="20" height="24" viewBox="0 0 20 24" fill="none" xmlns="http://www.w3.org/2000/svg">
<path d="M6.66667 2.22222V0H13.3333V2.22222H6.66667ZM8.88889 14.4444H11.1111V7.77778H8.88889V14.4444ZM10 23.3333C8.62963 23.3333 7.33796 23.0694 6.125 22.5417C4.91204 22.0139 3.85185 21.2963 2.94444 20.3889C2.03704 19.4815 1.31944 18.4213 0.791667 17.2083C0.263889 15.9954 0 14.7037 0 13.3333C0 11.963 0.263889 10.6713 0.791667 9.45833C1.31944 8.24537 2.03704 7.18519 2.94444 6.27778C3.85185 5.37037 4.91204 4.65278 6.125 4.125C7.33796 3.59722 8.62963 3.33333 10 3.33333C11.1481 3.33333 12.25 3.51852 13.3056 3.88889C14.3611 4.25926 15.3519 4.7963 16.2778 5.5L17.8333 3.94444L19.3889 5.5L17.8333 7.05556C18.537 7.98148 19.0741 8.97222 19.4444 10.0278C19.8148 11.0833 20 12.1852 20 13.3333C20 14.7037 19.7361 15.9954 19.2083 17.2083C18.6806 18.4213 17.963 19.4815 17.0556 20.3889C16.1481 21.2963 15.088 22.0139 13.875 22.5417C12.662 23.0694 11.3704 23.3333 10 23.3333ZM10 21.1111C12.1481 21.1111 13.9815 20.3519 15.5 18.8333C17.0185 17.3148 17.7778 15.4815 17.7778 13.3333C17.7778 11.1852 17.0185 9.35185 15.5 7.83333C13.9815 6.31482 12.1481 5.55556 10 5.55556C7.85185 5.55556 6.01852 6.31482 4.5 7.83333C2.98148 9.35185 2.22222 11.1852 2.22222 13.3333C2.22222 15.4815 2.98148 17.3148 4.5 18.8333C6.01852 20.3519 7.85185 21.1111 10 21.1111Z" fill="#021373"/>
</svg>
