<svg width="32" height="32" viewBox="0 0 32 32" fill="none" xmlns="http://www.w3.org/2000/svg">
<rect width="32" height="32" rx="5.33333" fill="#021373"/>
<path d="M22.6673 16.8333C22.6673 21 19.7507 23.0833 16.284 24.2917C16.1025 24.3532 15.9053 24.3502 15.7257 24.2833C12.2507 23.0833 9.33398 21 9.33398 16.8333V11C9.33398 10.779 9.42178 10.567 9.57806 10.4107C9.73434 10.2545 9.9463 10.1667 10.1673 10.1667C11.834 10.1667 13.9173 9.16666 15.3673 7.9C15.5439 7.74916 15.7684 7.66629 16.0007 7.66629C16.2329 7.66629 16.4574 7.74916 16.634 7.9C18.0923 9.175 20.1673 10.1667 21.834 10.1667C22.055 10.1667 22.267 10.2545 22.4232 10.4107C22.5795 10.567 22.6673 10.779 22.6673 11V16.8333Z" stroke="white" stroke-width="1.66667" stroke-linecap="round" stroke-linejoin="round"/>
</svg>
