<svg width="21" height="22" viewBox="0 0 21 22" fill="none" xmlns="http://www.w3.org/2000/svg">
<path d="M5.25 3.47368C4.76389 3.47368 4.35069 3.64254 4.01042 3.98026C3.67014 4.31798 3.5 4.72807 3.5 5.21053C3.5 5.69298 3.67014 6.10307 4.01042 6.44079C4.35069 6.77851 4.76389 6.94737 5.25 6.94737C5.73611 6.94737 6.14931 6.77851 6.48958 6.44079C6.82986 6.10307 7 5.69298 7 5.21053C7 4.72807 6.82986 4.31798 6.48958 3.98026C6.14931 3.64254 5.73611 3.47368 5.25 3.47368ZM5.25 15.0526C4.76389 15.0526 4.35069 15.2215 4.01042 15.5592C3.67014 15.8969 3.5 16.307 3.5 16.7895C3.5 17.2719 3.67014 17.682 4.01042 18.0197C4.35069 18.3575 4.76389 18.5263 5.25 18.5263C5.73611 18.5263 6.14931 18.3575 6.48958 18.0197C6.82986 17.682 7 17.2719 7 16.7895C7 16.307 6.82986 15.8969 6.48958 15.5592C6.14931 15.2215 5.73611 15.0526 5.25 15.0526ZM1.16667 0H19.8333C20.1639 0 20.441 0.110965 20.6646 0.332895C20.8882 0.554825 21 0.829825 21 1.15789V9.26316C21 9.59123 20.8882 9.86623 20.6646 10.0882C20.441 10.3101 20.1639 10.4211 19.8333 10.4211H1.16667C0.836111 10.4211 0.559028 10.3101 0.335417 10.0882C0.111806 9.86623 0 9.59123 0 9.26316V1.15789C0 0.829825 0.111806 0.554825 0.335417 0.332895C0.559028 0.110965 0.836111 0 1.16667 0ZM2.33333 2.31579V8.10526H18.6667V2.31579H2.33333ZM1.16667 11.5789H19.8333C20.1639 11.5789 20.441 11.6899 20.6646 11.9118C20.8882 12.1338 21 12.4088 21 12.7368V20.8421C21 21.1702 20.8882 21.4452 20.6646 21.6671C20.441 21.889 20.1639 22 19.8333 22H1.16667C0.836111 22 0.559028 21.889 0.335417 21.6671C0.111806 21.4452 0 21.1702 0 20.8421V12.7368C0 12.4088 0.111806 12.1338 0.335417 11.9118C0.559028 11.6899 0.836111 11.5789 1.16667 11.5789ZM2.33333 13.8947V19.6842H18.6667V13.8947H2.33333Z" fill="#334155"/>
</svg>
