<svg width="12" height="15" viewBox="0 0 12 15" fill="none" xmlns="http://www.w3.org/2000/svg">
<path d="M6 15C4.2625 14.5625 2.82812 13.5656 1.69687 12.0094C0.565625 10.4531 0 8.725 0 6.825V2.25L6 0L12 2.25V6.825C12 8.725 11.4344 10.4531 10.3031 12.0094C9.17188 13.5656 7.7375 14.5625 6 15ZM6 13.425C7.3 13.0125 8.375 12.1875 9.225 10.95C10.075 9.7125 10.5 8.3375 10.5 6.825V3.28125L6 1.59375L1.5 3.28125V6.825C1.5 8.3375 1.925 9.7125 2.775 10.95C3.625 12.1875 4.7 13.0125 6 13.425Z" fill="#F20530"/>
</svg>
