<svg width="21" height="24" viewBox="0 0 21 24" fill="none" xmlns="http://www.w3.org/2000/svg">
<path d="M6.85714 2.28571V0H13.7143V2.28571H6.85714ZM9.14286 14.8571H11.4286V8H9.14286V14.8571ZM10.2857 24C8.87619 24 7.54762 23.7286 6.3 23.1857C5.05238 22.6429 3.9619 21.9048 3.02857 20.9714C2.09524 20.0381 1.35714 18.9476 0.814286 17.7C0.271429 16.4524 0 15.1238 0 13.7143C0 12.3048 0.271429 10.9762 0.814286 9.72857C1.35714 8.48095 2.09524 7.39048 3.02857 6.45714C3.9619 5.52381 5.05238 4.78571 6.3 4.24286C7.54762 3.7 8.87619 3.42857 10.2857 3.42857C11.4667 3.42857 12.6 3.61905 13.6857 4C14.7714 4.38095 15.7905 4.93333 16.7429 5.65714L18.3429 4.05714L19.9429 5.65714L18.3429 7.25714C19.0667 8.20952 19.619 9.22857 20 10.3143C20.381 11.4 20.5714 12.5333 20.5714 13.7143C20.5714 15.1238 20.3 16.4524 19.7571 17.7C19.2143 18.9476 18.4762 20.0381 17.5429 20.9714C16.6095 21.9048 15.519 22.6429 14.2714 23.1857C13.0238 23.7286 11.6952 24 10.2857 24Z" fill="#F20530"/>
</svg>
