<svg width="48" height="48" viewBox="0 0 48 48" fill="none" xmlns="http://www.w3.org/2000/svg">
<rect width="48" height="48" rx="12" fill="#021373"/>
<path d="M27.9844 23.0156H27V15C27 14.4375 26.8047 13.9609 26.4141 13.5703C26.0234 13.1797 25.5469 12.9844 24.9844 12.9844H23.0156C22.4531 12.9844 21.9766 13.1797 21.5859 13.5703C21.1953 13.9609 21 14.4375 21 15V23.0156H20.0156C19.0781 23.0156 18.2344 23.2344 17.4844 23.6719C16.7344 24.1094 16.1328 24.7109 15.6797 25.4766C15.2266 26.2422 15 27.0781 15 27.9844V35.0156H33V27.9844C33 27.0781 32.7734 26.2422 32.3203 25.4766C31.8672 24.7109 31.2656 24.1094 30.5156 23.6719C29.7656 23.2344 28.9219 23.0156 27.9844 23.0156ZM30.9844 33H29.0156V30C29.0156 29.7188 28.9141 29.4844 28.7109 29.2969C28.5078 29.1094 28.2656 29.0156 27.9844 29.0156C27.7344 29.0156 27.5078 29.1094 27.3047 29.2969C27.1016 29.4844 27 29.7188 27 30V33H24.9844V30C24.9844 29.7188 24.8906 29.4844 24.7031 29.2969C24.5156 29.1094 24.2812 29.0156 24 29.0156C23.7188 29.0156 23.4844 29.1094 23.2969 29.2969C23.1094 29.4844 23.0156 29.7188 23.0156 30V33H21V30C21 29.7188 20.8984 29.4844 20.6953 29.2969C20.4922 29.1094 20.2656 29.0156 20.0156 29.0156C19.7344 29.0156 19.4922 29.1094 19.2891 29.2969C19.0859 29.4844 18.9844 29.7188 18.9844 30V33H17.0156V27.9844C17.0156 27.4531 17.1484 26.9609 17.4141 26.5078C17.6797 26.0547 18.0391 25.6875 18.4922 25.4062C18.9453 25.125 19.4531 24.9844 20.0156 24.9844H27.9844C28.5469 24.9844 29.0547 25.125 29.5078 25.4062C29.9609 25.6875 30.3203 26.0547 30.5859 26.5078C30.8516 26.9609 30.9844 27.4531 30.9844 27.9844V33Z" fill="white"/>
</svg>
