<svg width="36" height="36" viewBox="0 0 36 36" fill="none" xmlns="http://www.w3.org/2000/svg">
<rect width="36" height="36" rx="7.71429" fill="#021373"/>
<path d="M22.0133 22.0123V13.9873H13.9883V22.0123H22.0133ZM25.2008 17.2123H23.5883V18.7873H25.2008V20.3998H23.5883V22.0123C23.5883 22.4373 23.432 22.8061 23.1195 23.1186C22.807 23.4311 22.4383 23.5873 22.0133 23.5873H20.4008V25.1998H18.7883V23.5873H17.2133V25.1998H15.6008V23.5873H13.9883C13.5633 23.5873 13.1945 23.4311 12.882 23.1186C12.5695 22.8061 12.4133 22.4373 12.4133 22.0123V20.3998H10.8008V18.7873H12.4133V17.2123H10.8008V15.5998H12.4133V13.9873C12.4133 13.5623 12.5695 13.1936 12.882 12.8811C13.1945 12.5686 13.5633 12.4123 13.9883 12.4123H15.6008V10.7998H17.2133V12.4123H18.7883V10.7998H20.4008V12.4123H22.0133C22.4383 12.4123 22.807 12.5686 23.1195 12.8811C23.432 13.1936 23.5883 13.5623 23.5883 13.9873V15.5998H25.2008V17.2123ZM18.7883 18.7873V17.2123H17.2133V18.7873H18.7883ZM20.4008 15.5998V20.3998H15.6008V15.5998H20.4008Z" fill="white"/>
</svg>
