<svg width="32" height="32" viewBox="0 0 32 32" fill="none" xmlns="http://www.w3.org/2000/svg">
<rect width="32" height="32" rx="5.33333" fill="#021373"/>
<path d="M15.166 20.1667L16.8327 21.8333C16.9968 21.9975 17.1917 22.1277 17.4062 22.2165C17.6207 22.3054 17.8505 22.3511 18.0827 22.3511C18.3148 22.3511 18.5447 22.3054 18.7592 22.2165C18.9737 22.1277 19.1685 21.9975 19.3327 21.8333C19.4968 21.6692 19.627 21.4743 19.7159 21.2598C19.8047 21.0454 19.8504 20.8155 19.8504 20.5833C19.8504 20.3512 19.8047 20.1213 19.7159 19.9068C19.627 19.6924 19.4968 19.4975 19.3327 19.3333M17.666 17.6667L19.7493 19.75C20.0809 20.0815 20.5305 20.2678 20.9993 20.2678C21.4682 20.2678 21.9178 20.0815 22.2493 19.75C22.5809 19.4185 22.7671 18.9688 22.7671 18.5C22.7671 18.0312 22.5809 17.5815 22.2493 17.25L19.016 14.0167C18.5473 13.5485 17.9119 13.2855 17.2493 13.2855C16.5868 13.2855 15.9514 13.5485 15.4827 14.0167L14.7493 14.75C14.4178 15.0815 13.9682 15.2678 13.4993 15.2678C13.0305 15.2678 12.5809 15.0815 12.2493 14.75C11.9178 14.4185 11.7316 13.9688 11.7316 13.5C11.7316 13.0312 11.9178 12.5815 12.2493 12.25L14.591 9.90833C15.3512 9.15012 16.3426 8.66713 17.4082 8.53581C18.4738 8.40449 19.5528 8.63236 20.4743 9.18333L20.866 9.41667C21.2208 9.63082 21.6427 9.7051 22.0493 9.625L23.4993 9.33333M23.4993 8.5L24.3327 17.6667H22.666M8.49935 8.5L7.66602 17.6667L13.0827 23.0833C13.4142 23.4149 13.8638 23.6011 14.3327 23.6011C14.8015 23.6011 15.2512 23.4149 15.5827 23.0833C15.9142 22.7518 16.1004 22.3022 16.1004 21.8333C16.1004 21.3645 15.9142 20.9149 15.5827 20.5833M8.49935 9.33333H15.166" stroke="white" stroke-width="1.66667" stroke-linecap="round" stroke-linejoin="round"/>
</svg>
