<svg width="44" height="44" viewBox="0 0 44 44" fill="none" xmlns="http://www.w3.org/2000/svg">
<rect width="44" height="44" rx="9.42857" fill="#021373"/>
<path d="M27.2553 27.2543V16.7454H16.7464V27.2543H27.2553ZM31.4294 20.9686H29.3178V23.0311H31.4294V25.1427H29.3178V27.2543C29.3178 27.8109 29.1132 28.2938 28.704 28.703C28.2947 29.1122 27.8119 29.3168 27.2553 29.3168H25.1437V31.4284H23.0321V29.3168H20.9696V31.4284H18.858V29.3168H16.7464C16.1898 29.3168 15.7069 29.1122 15.2977 28.703C14.8885 28.2938 14.6839 27.8109 14.6839 27.2543V25.1427H12.5723V23.0311H14.6839V20.9686H12.5723V18.857H14.6839V16.7454C14.6839 16.1888 14.8885 15.706 15.2977 15.2967C15.7069 14.8875 16.1898 14.6829 16.7464 14.6829H18.858V12.5713H20.9696V14.6829H23.0321V12.5713H25.1437V14.6829H27.2553C27.8119 14.6829 28.2947 14.8875 28.704 15.2967C29.1132 15.706 29.3178 16.1888 29.3178 16.7454V18.857H31.4294V20.9686ZM23.0321 23.0311V20.9686H20.9696V23.0311H23.0321ZM25.1437 18.857V25.1427H18.858V18.857H25.1437Z" fill="white"/>
</svg>
