<svg width="48" height="48" viewBox="0 0 48 48" fill="none" xmlns="http://www.w3.org/2000/svg">
<rect width="48" height="48" rx="12" fill="#021373"/>
<path d="M27.9844 18C27.9844 17.0625 28.4922 16.1641 29.5078 15.3047C30.5234 14.4453 31.6875 14.0156 33 14.0156V33.9844H30.5156V26.0156H27.9844V18ZM23.0156 21V14.0156H24.9844V21C24.9844 22.0625 24.625 22.9766 23.9062 23.7422C23.1875 24.5078 22.2969 24.9219 21.2344 24.9844V33.9844H18.75V24.9844C17.6875 24.9219 16.7969 24.5078 16.0781 23.7422C15.3594 22.9766 15 22.0625 15 21V14.0156H17.0156V21H18.9844V14.0156H21V21H23.0156Z" fill="white"/>
</svg>
