<svg width="32" height="32" viewBox="0 0 32 32" fill="none" xmlns="http://www.w3.org/2000/svg">
<rect width="32" height="32" rx="5.33333" fill="#021373"/>
<path d="M16.834 19.3333H12.6673M17.6673 12.6667H12.6673M19.334 16H12.6673M9.33398 8.5C9.33398 8.27899 9.42178 8.06703 9.57806 7.91075C9.73434 7.75447 9.9463 7.66667 10.1673 7.66667C10.3737 7.66553 10.576 7.72336 10.7507 7.83333L11.5282 8.33333C11.7023 8.44465 11.9048 8.5038 12.1115 8.5038C12.3182 8.5038 12.5206 8.44465 12.6948 8.33333L13.4732 7.83333C13.6473 7.72202 13.8498 7.66287 14.0565 7.66287C14.2632 7.66287 14.4656 7.72202 14.6398 7.83333L15.4173 8.33333C15.5915 8.44465 15.7939 8.5038 16.0007 8.5038C16.2074 8.5038 16.4098 8.44465 16.584 8.33333L17.3615 7.83333C17.5357 7.72202 17.7381 7.66287 17.9448 7.66287C18.1515 7.66287 18.354 7.72202 18.5282 7.83333L19.3065 8.33333C19.4807 8.44465 19.6831 8.5038 19.8898 8.5038C20.0965 8.5038 20.299 8.44465 20.4732 8.33333L21.2507 7.83333C21.4253 7.72336 21.6276 7.66553 21.834 7.66667C22.055 7.66667 22.267 7.75447 22.4232 7.91075C22.5795 8.06703 22.6673 8.27899 22.6673 8.5V23.5C22.6673 23.721 22.5795 23.933 22.4232 24.0893C22.267 24.2455 22.055 24.3333 21.834 24.3333C21.6276 24.3345 21.4253 24.2766 21.2507 24.1667L20.4732 23.6667C20.299 23.5554 20.0965 23.4962 19.8898 23.4962C19.6831 23.4962 19.4807 23.5554 19.3065 23.6667L18.5282 24.1667C18.354 24.278 18.1515 24.3371 17.9448 24.3371C17.7381 24.3371 17.5357 24.278 17.3615 24.1667L16.584 23.6667C16.4098 23.5554 16.2074 23.4962 16.0007 23.4962C15.7939 23.4962 15.5915 23.5554 15.4173 23.6667L14.6398 24.1667C14.4656 24.278 14.2632 24.3371 14.0565 24.3371C13.8498 24.3371 13.6473 24.278 13.4732 24.1667L12.6948 23.6667C12.5206 23.5554 12.3182 23.4962 12.1115 23.4962C11.9048 23.4962 11.7023 23.5554 11.5282 23.6667L10.7507 24.1667C10.576 24.2766 10.3737 24.3345 10.1673 24.3333C9.9463 24.3333 9.73434 24.2455 9.57806 24.0893C9.42178 23.933 9.33398 23.721 9.33398 23.5V8.5Z" stroke="white" stroke-width="1.66667" stroke-linecap="round" stroke-linejoin="round"/>
</svg>
