<svg width="40" height="40" viewBox="0 0 40 40" fill="none" xmlns="http://www.w3.org/2000/svg">
<rect width="40" height="40" rx="7.27273" fill="#021373"/>
<path d="M23.7644 20.5511L22.4329 19.2196C22.5706 18.5002 22.364 17.8268 21.813 17.1994C21.2621 16.5719 20.5504 16.327 19.6781 16.4647L18.3466 15.1332C18.6067 15.0108 18.8707 14.919 19.1386 14.8578C19.4064 14.7965 19.6934 14.7659 19.9994 14.7659C21.1473 14.7659 22.123 15.1677 22.9264 15.9712C23.7299 16.7747 24.1317 17.7503 24.1317 18.8982C24.1317 19.2043 24.1011 19.4912 24.0399 19.759C23.9786 20.0269 23.8868 20.2909 23.7644 20.5511ZM26.7028 23.4436L25.3713 22.158C25.9529 21.7142 26.4694 21.2283 26.9209 20.7003C27.3724 20.1723 27.7589 19.5716 28.0803 18.8982C27.315 17.3524 26.2169 16.1242 24.7859 15.2136C23.355 14.303 21.7595 13.8477 19.9994 13.8477C19.5556 13.8477 19.1194 13.8783 18.6909 13.9395C18.2624 14.0007 17.8415 14.0925 17.4283 14.215L16.005 12.7916C16.6324 12.5315 17.2752 12.3363 17.9333 12.2062C18.5914 12.0762 19.2801 12.0111 19.9994 12.0111C22.3104 12.0111 24.3689 12.6501 26.1748 13.928C27.9808 15.2059 29.2893 16.8627 30.1005 18.8982C29.7485 19.8011 29.2855 20.6391 28.7116 21.4119C28.1376 22.1848 27.4681 22.862 26.7028 23.4436ZM27.162 29.091L23.3052 25.2802C22.7696 25.4485 22.2301 25.5748 21.6868 25.6589C21.1435 25.7431 20.581 25.7852 19.9994 25.7852C17.6885 25.7852 15.63 25.1462 13.8241 23.8683C12.0181 22.5904 10.7096 20.9337 9.89844 18.8982C10.2198 18.087 10.6254 17.3333 11.1151 16.6369C11.6049 15.9406 12.1635 15.3169 12.791 14.7659L10.2657 12.1948L11.5513 10.9092L28.4476 27.8054L27.162 29.091ZM14.0766 16.0515C13.6328 16.4494 13.2272 16.8856 12.8599 17.3601C12.4926 17.8345 12.1788 18.3472 11.9186 18.8982C12.6839 20.4439 13.782 21.6721 15.2129 22.5827C16.6439 23.4934 18.2394 23.9487 19.9994 23.9487C20.3055 23.9487 20.604 23.9295 20.8948 23.8913C21.1855 23.853 21.484 23.8109 21.7901 23.765L20.9636 22.8927C20.7953 22.9386 20.6346 22.973 20.4815 22.996C20.3285 23.0189 20.1678 23.0304 19.9994 23.0304C18.8516 23.0304 17.8759 22.6286 17.0724 21.8252C16.269 21.0217 15.8672 20.046 15.8672 18.8982C15.8672 18.7298 15.8787 18.5691 15.9017 18.4161C15.9246 18.263 15.959 18.1023 16.005 17.934L14.0766 16.0515Z" fill="white"/>
</svg>
