<svg width="20" height="25" viewBox="0 0 20 25" fill="none" xmlns="http://www.w3.org/2000/svg">
<path d="M0 24.4444V16.6667C0 15.1296 0.541667 13.8194 1.625 12.7361C2.70833 11.6528 4.01852 11.1111 5.55556 11.1111H6.66667V2.22222C6.66667 1.61111 6.88426 1.08796 7.31944 0.652778C7.75463 0.217593 8.27778 0 8.88889 0H11.1111C11.7222 0 12.2454 0.217593 12.6806 0.652778C13.1157 1.08796 13.3333 1.61111 13.3333 2.22222V11.1111H14.4444C15.9815 11.1111 17.2917 11.6528 18.375 12.7361C19.4583 13.8194 20 15.1296 20 16.6667V24.4444H0ZM2.22222 22.2222H4.44444V18.8889C4.44444 18.5741 4.55093 18.3102 4.76389 18.0972C4.97685 17.8843 5.24074 17.7778 5.55556 17.7778C5.87037 17.7778 6.13426 17.8843 6.34722 18.0972C6.56019 18.3102 6.66667 18.5741 6.66667 18.8889V22.2222H8.88889V18.8889C8.88889 18.5741 8.99537 18.3102 9.20833 18.0972C9.4213 17.8843 9.68518 17.7778 10 17.7778C10.3148 17.7778 10.5787 17.8843 10.7917 18.0972C11.0046 18.3102 11.1111 18.5741 11.1111 18.8889V22.2222H13.3333V18.8889C13.3333 18.5741 13.4398 18.3102 13.6528 18.0972C13.8657 17.8843 14.1296 17.7778 14.4444 17.7778C14.7593 17.7778 15.0231 17.8843 15.2361 18.0972C15.4491 18.3102 15.5556 18.5741 15.5556 18.8889V22.2222H17.7778V16.6667C17.7778 15.7407 17.4537 14.9537 16.8056 14.3056C16.1574 13.6574 15.3704 13.3333 14.4444 13.3333H5.55556C4.62963 13.3333 3.84259 13.6574 3.19444 14.3056C2.5463 14.9537 2.22222 15.7407 2.22222 16.6667V22.2222ZM11.1111 11.1111V2.22222H8.88889V11.1111H11.1111Z" fill="#021373"/>
</svg>
