<svg width="22" height="22" viewBox="0 0 22 22" fill="none" xmlns="http://www.w3.org/2000/svg">
<path d="M3.3 22C2.695 22 2.17708 21.7846 1.74625 21.3538C1.31542 20.9229 1.1 20.405 1.1 19.8V7.3975C0.77 7.19583 0.504167 6.93458 0.3025 6.61375C0.100833 6.29292 0 5.92167 0 5.5V2.2C0 1.595 0.215417 1.07708 0.64625 0.64625C1.07708 0.215417 1.595 0 2.2 0H19.8C20.405 0 20.9229 0.215417 21.3538 0.64625C21.7846 1.07708 22 1.595 22 2.2V5.5C22 5.92167 21.8992 6.29292 21.6975 6.61375C21.4958 6.93458 21.23 7.19583 20.9 7.3975V19.8C20.9 20.405 20.6846 20.9229 20.2538 21.3538C19.8229 21.7846 19.305 22 18.7 22H3.3ZM3.3 7.7V19.8H18.7V7.7H3.3ZM2.2 5.5H19.8V2.2H2.2V5.5ZM7.7 13.2H14.3V11H7.7V13.2Z" fill="#334155"/>
</svg>
