<svg width="32" height="32" viewBox="0 0 32 32" fill="none" xmlns="http://www.w3.org/2000/svg">
<path d="M16 32C11.9111 32 8.34815 30.6444 5.31111 27.9333C2.27407 25.2222 0.533333 21.837 0.0888889 17.7778H3.73333C4.14815 20.8593 5.51852 23.4074 7.84444 25.4222C10.1704 27.437 12.8889 28.4444 16 28.4444C19.4667 28.4444 22.4074 27.237 24.8222 24.8222C27.237 22.4074 28.4444 19.4667 28.4444 16C28.4444 12.5333 27.237 9.59259 24.8222 7.17778C22.4074 4.76296 19.4667 3.55556 16 3.55556C13.9556 3.55556 12.0444 4.02963 10.2667 4.97778C8.48889 5.92593 6.99259 7.22963 5.77778 8.88889H10.6667V12.4444H0V1.77778H3.55556V5.95556C5.06667 4.05926 6.91111 2.59259 9.08889 1.55556C11.2667 0.518519 13.5704 0 16 0C18.2222 0 20.3037 0.422222 22.2444 1.26667C24.1852 2.11111 25.8741 3.25185 27.3111 4.68889C28.7481 6.12593 29.8889 7.81481 30.7333 9.75556C31.5778 11.6963 32 13.7778 32 16C32 18.2222 31.5778 20.3037 30.7333 22.2444C29.8889 24.1852 28.7481 25.8741 27.3111 27.3111C25.8741 28.7481 24.1852 29.8889 22.2444 30.7333C20.3037 31.5778 18.2222 32 16 32ZM20.9778 23.4667L14.2222 16.7111V7.11111H17.7778V15.2889L23.4667 20.9778L20.9778 23.4667Z" fill="#021373"/>
</svg>
