<svg width="48" height="48" viewBox="0 0 48 48" fill="none" xmlns="http://www.w3.org/2000/svg">
<rect width="48" height="48" rx="12" fill="#021373"/>
<path d="M33.9844 29.0156V21.9844H30V29.0156H33.9844ZM35.0156 20.0156C35.2969 20.0156 35.5312 20.1094 35.7188 20.2969C35.9062 20.4844 36 20.7188 36 21V30.9844C36 31.2656 35.9062 31.5078 35.7188 31.7109C35.5312 31.9141 35.2969 32.0156 35.0156 32.0156H29.0156C28.7344 32.0156 28.4922 31.9141 28.2891 31.7109C28.0859 31.5078 27.9844 31.2656 27.9844 30.9844V21C27.9844 20.7188 28.0859 20.4844 28.2891 20.2969C28.4922 20.1094 28.7344 20.0156 29.0156 20.0156H35.0156ZM15.9844 18V29.0156H26.0156V32.0156H12V29.0156H14.0156V18C14.0156 17.4688 14.2109 17 14.6016 16.5938C14.9922 16.1875 15.4531 15.9844 15.9844 15.9844H33.9844V18H15.9844Z" fill="white"/>
</svg>
