<svg width="22" height="22" viewBox="0 0 22 22" fill="none" xmlns="http://www.w3.org/2000/svg">
<path d="M2.2 22C1.595 22 1.07708 21.7846 0.64625 21.3538C0.215417 20.9229 0 20.405 0 19.8V6.6C0 5.995 0.215417 5.47708 0.64625 5.04625C1.07708 4.61542 1.595 4.4 2.2 4.4H6.6V2.2C6.6 1.595 6.81542 1.07708 7.24625 0.64625C7.67708 0.215417 8.195 0 8.8 0H13.2C13.805 0 14.3229 0.215417 14.7538 0.64625C15.1846 1.07708 15.4 1.595 15.4 2.2V4.4H19.8C20.405 4.4 20.9229 4.61542 21.3538 5.04625C21.7846 5.47708 22 5.995 22 6.6V19.8C22 20.405 21.7846 20.9229 21.3538 21.3538C20.9229 21.7846 20.405 22 19.8 22H2.2ZM2.2 19.8H19.8V6.6H2.2V19.8ZM8.8 4.4H13.2V2.2H8.8V4.4ZM9.9 14.3V17.6H12.1V14.3H15.4V12.1H12.1V8.8H9.9V12.1H6.6V14.3H9.9Z" fill="#334155"/>
</svg>
