<svg width="32" height="32" viewBox="0 0 32 32" fill="none" xmlns="http://www.w3.org/2000/svg">
<rect width="32" height="32" rx="6.4" fill="#021373"/>
<path d="M19.9993 13.3332H19.3327V11.9998C19.3327 10.1598 17.8393 8.6665 15.9993 8.6665C14.1593 8.6665 12.666 10.1598 12.666 11.9998V13.3332H11.9993C11.266 13.3332 10.666 13.9332 10.666 14.6665V21.3332C10.666 22.0665 11.266 22.6665 11.9993 22.6665H19.9993C20.7327 22.6665 21.3327 22.0665 21.3327 21.3332V14.6665C21.3327 13.9332 20.7327 13.3332 19.9993 13.3332ZM15.9993 19.3332C15.266 19.3332 14.666 18.7332 14.666 17.9998C14.666 17.2665 15.266 16.6665 15.9993 16.6665C16.7327 16.6665 17.3327 17.2665 17.3327 17.9998C17.3327 18.7332 16.7327 19.3332 15.9993 19.3332ZM18.066 13.3332H13.9327V11.9998C13.9327 10.8598 14.8593 9.93317 15.9993 9.93317C17.1393 9.93317 18.066 10.8598 18.066 11.9998V13.3332Z" fill="white"/>
</svg>
