<svg width="48" height="48" viewBox="0 0 48 48" fill="none" xmlns="http://www.w3.org/2000/svg">
<rect width="48" height="48" rx="8" fill="white"/>
<path d="M34 25.2501C34 31.5001 29.625 34.6251 24.425 36.4376C24.1527 36.5298 23.8569 36.5254 23.5875 36.4251C18.375 34.6251 14 31.5001 14 25.2501V16.5001C14 16.1686 14.1317 15.8506 14.3661 15.6162C14.6005 15.3818 14.9185 15.2501 15.25 15.2501C17.75 15.2501 20.875 13.7501 23.05 11.8501C23.3148 11.6238 23.6517 11.4995 24 11.4995C24.3483 11.4995 24.6852 11.6238 24.95 11.8501C27.1375 13.7626 30.25 15.2501 32.75 15.2501C33.0815 15.2501 33.3995 15.3818 33.6339 15.6162C33.8683 15.8506 34 16.1686 34 16.5001V25.2501Z" stroke="#F20530" stroke-width="2.5" stroke-linecap="round" stroke-linejoin="round"/>
</svg>
